<?xml version="1.0" standalone="no"?>
<!DOCTYPE svg PUBLIC "-//W3C//DTD SVG 1.1//EN" "http://www.w3.org/Graphics/SVG/1.1/DTD/svg11.dtd" >
<svg>
<metadata>
Created by FontForge 20090914 at Fri Jun 22 04:18:07 2012
 By www-data
Copyright (c) 2001, 2006 Nick Curtis. All Rights Reserved. Distributed under non-exclusive license by 1001 Free Fonts.
</metadata>
<defs>
<font id="HamburgerHeavenNF" horiz-adv-x="485" >
  <font-face 
    font-family="Hamburger Heaven NF"
    font-weight="400"
    font-stretch="normal"
    units-per-em="1000"
    panose-1="2 6 6 6 5 3 4 9 1 3"
    ascent="781"
    descent="-219"
    x-height="507.999"
    cap-height="737"
    bbox="-150 -252 1303 958.003"
    underline-thickness="20"
    underline-position="-123"
    unicode-range="U+0020-U+FB02"
  />
<missing-glyph horiz-adv-x="200" 
 />
    <glyph glyph-name=".notdef" horiz-adv-x="200" 
 />
    <glyph glyph-name="space" unicode=" " horiz-adv-x="200" 
 />
    <glyph glyph-name="exclam" unicode="!" horiz-adv-x="220" 
d="M138 262c-0.666992 -2.66699 -1 -5.16797 -1 -7.50098v-6.5c0 -19.333 10.333 -29 31 -29l-6 -71c-43.333 0 -74 8.33301 -92 25s-27 46.667 -27 90c0 2.66699 0.166992 5.33398 0.5 8.00098s0.5 5.66699 0.5 9l16 386h-39l6 71h179zM160 64.999
c0 -18 -6.33301 -33.333 -19 -46s-28 -19 -46 -19s-33.333 6.33301 -46 19s-19 28 -19 46s6.33301 33.333 19 46s28 19 46 19s33.333 -6.33301 46 -19s19 -28 19 -46z" />
    <glyph glyph-name="quotedbl" unicode="&#x22;" horiz-adv-x="311" 
d="M290 683c-0.666992 -3.33301 -2.16406 -9.82812 -4.49707 -19.4951s-5.5 -21.334 -9.5 -35.001l-12.5 -43.5c-4.33301 -15.333 -8.33301 -30.333 -12 -45s-6.83398 -27.834 -9.50098 -39.501s-4.33398 -20.5 -5.00098 -26.5h-56v12c0 8.66699 -0.833008 22.667 -2.5 42
l-5 60c-1.66699 20.667 -3.33398 39.667 -5.00098 57s-2.5 28.666 -2.5 33.999c0 17.333 6.83301 32.666 20.5 45.999s29.5 20 47.5 20c15.333 0 28.5 -5.33301 39.5 -16s16.5 -24.334 16.5 -41.001v-5zM150.003 683.005
c-0.666992 -3.33301 -2.16406 -9.82812 -4.49707 -19.4951s-5.5 -21.334 -9.5 -35.001l-12.5 -43.5c-4.33301 -15.333 -8.33301 -30.333 -12 -45s-6.83398 -27.834 -9.50098 -39.501s-4.33398 -20.5 -5.00098 -26.5h-56v12c0 8.66699 -0.833008 22.667 -2.5 42l-5 60
c-1.66699 20.667 -3.33398 39.667 -5.00098 57s-2.5 28.666 -2.5 33.999c0 17.333 6.83301 32.666 20.5 45.999s29.5 20 47.5 20c15.333 0 28.5 -5.33301 39.5 -16s16.5 -24.334 16.5 -41.001v-5z" />
    <glyph glyph-name="numbersign" unicode="#" horiz-adv-x="460" 
d="M306 381l-28 -151h-68l28 151h-56l-28 -151h-68l28 151h-102v67h114l11 59h-125v67h138l30 163h68l-30 -163h56l30 163h68l-30 -163h106v-67h-119l-11 -59h130v-67h-142zM205 507l-11 -59h56l11 59h-56z" />
    <glyph glyph-name="dollar" unicode="$" horiz-adv-x="385" 
d="M365 671l-73.001 -0.00195312l-44 -224l72 -93c30 -39.333 45 -84.666 45 -135.999c0 -27.333 -4.66699 -53.166 -14 -77.499s-22.833 -46 -40.5 -65s-39.167 -34.667 -64.5 -47s-53.666 -20.5 -84.999 -24.5l-13 -66h-67l12 63h-78l6 67h85l49 248l-95 131
c-18.667 25.333 -28 55.666 -28 90.999c0 24.667 4.5 48.334 13.5 71.001s22.167 43 39.5 61s38.833 32.833 64.5 44.5s55.167 19.167 88.5 22.5l7 37h68l-7 -36h65zM223.999 665.998c-38 -11.333 -57 -36 -57 -74c0 -25.333 9.33301 -50.333 28 -75zM175.999 80.998
c36.667 16.667 55 45.333 55 86c0 24.667 -7.66699 49.667 -23 75z" />
    <glyph glyph-name="percent" unicode="%" horiz-adv-x="919" 
d="M880 142c-2 -19.333 -8.50098 -37.667 -19.501 -55s-25 -32.5 -42 -45.5s-36.5 -23.333 -58.5 -31s-44.667 -11.5 -68 -11.5h-21c-22 0 -43 3.16699 -63 9.5s-37.5 15.166 -52.5 26.499s-26.833 25 -35.5 41s-13 33.667 -13 53c0 2 0.166992 4 0.5 6s0.5 4.33301 0.5 7
l19 223c2 20.667 8.33301 39.667 19 57s24.667 32.333 42 45s36.833 22.5 58.5 29.5s44.5 10.5 68.5 10.5h21c22.667 0 43.834 -3.16699 63.501 -9.5s37 -15.166 52 -26.499s26.833 -24.833 35.5 -40.5s13 -33.167 13 -52.5v-13zM317.999 -0.000976562h-72l356 737h72z
M391.999 370.999c-2 -19.333 -8.49902 -37.501 -19.499 -54.501s-25.167 -32 -42.5 -45s-36.833 -23.333 -58.5 -31s-44.167 -11.5 -67.5 -11.5h-21c-22.667 0 -44 3.16699 -64 9.5s-37.333 15.166 -52 26.499s-26.334 24.833 -35.001 40.5s-13 33.167 -13 52.5
c0 2 0.166992 4 0.5 6s0.5 4.33301 0.5 7l19 223c2 20.667 8.33301 39.834 19 57.501s24.5 32.834 41.5 45.501s36.5 22.5 58.5 29.5s45 10.5 69 10.5h21c22.667 0 44 -3.16699 64 -9.5s37.333 -15.333 52 -27s26.167 -25.5 34.5 -41.5s12.5 -33.333 12.5 -52v-13z
M766 375.998c0 20 -4.33301 35.666 -13 46.999s-19.667 17 -33 17c-14 0 -26.833 -6.66699 -38.5 -20s-18.5 -31.666 -20.5 -54.999l-20 -223c0 -2 -0.166992 -3.83301 -0.5 -5.5s-0.5 -3.5 -0.5 -5.5c0 -20 4.5 -35.833 13.5 -47.5s20.167 -17.5 33.5 -17.5
c14 0 26.833 6.33301 38.5 19s18.5 31.667 20.5 57l20 223v11zM278 604.997c0 20 -4.33301 35.666 -13 46.999s-19.667 17 -33 17c-14 0 -26.833 -6.66699 -38.5 -20s-18.5 -31.666 -20.5 -54.999l-20 -223c0 -2 -0.166992 -3.83301 -0.5 -5.5s-0.5 -3.5 -0.5 -5.5
c0 -20 4.5 -35.833 13.5 -47.5s20.167 -17.5 33.5 -17.5c14 0 26.833 6.33301 38.5 19s18.5 31.667 20.5 57l20 223v11z" />
    <glyph glyph-name="ampersand" unicode="&#x26;" horiz-adv-x="541" 
d="M523 441l-102.001 0.000976562l-23 -267l57 -107h50l-6 -67h-148l-21 39c-36 -26 -84 -39 -144 -39c-58 0 -102 16.667 -132 50c-20.667 22.667 -31 49.667 -31 81l19 235c2.66699 38.667 22.334 72.667 59.001 102l-22 41.5c-5.33301 10.333 -9.5 19.166 -12.5 26.499
s-4.83301 14.5 -5.5 21.5s-1 15.5 -1 25.5c0 22 4.66699 42.333 14 61s22.166 35 38.499 49s35.333 24.833 57 32.5s44.5 11.5 68.5 11.5h193l-6 -67h-163c-50 0 -75 -24.667 -75 -74c0 -9.33301 1.33301 -18.5 4 -27.5s6.33398 -17.833 11.001 -26.5l81 -153l10 119h236z
M172.999 333.001l-16 -202c0 -42 15 -63 45 -63c15.333 0 28.5 7 39.5 21s17.5 31.667 19.5 53l2 22z" />
    <glyph glyph-name="quotesingle" unicode="'" horiz-adv-x="159" 
d="M146 683c0 -3.33301 -1.33008 -9.8291 -3.99707 -19.4961l-10 -35l-12.5 -43.5c-4.33301 -15.333 -8.33301 -30.333 -12 -45s-6.83398 -27.834 -9.50098 -39.501s-4.33398 -20.5 -5.00098 -26.5h-56v12c0 8.66699 -0.833008 22.667 -2.5 42l-5 60
c-1.66699 20.667 -3.33398 39.667 -5.00098 57s-2.5 28.666 -2.5 33.999c0 17.333 6.83301 32.666 20.5 45.999s29.5 20 47.5 20c15.333 0 28.5 -5.33301 39.5 -16s16.5 -24.334 16.5 -41.001v-5z" />
    <glyph glyph-name="parenleft" unicode="(" horiz-adv-x="320" 
d="M307 670l-46.002 -0.00292969c-12 0 -22.667 -5.5 -32 -16.5s-14.666 -25.167 -15.999 -42.5l-61 -706v-8c0 -15.333 3.33301 -27.666 10 -36.999s15.334 -14 26.001 -14h47l-6 -67h-63c-22 0 -42.167 3.16699 -60.5 9.5s-34 15 -47 26s-23 24.333 -30 40
s-10.5 32.834 -10.5 51.501v8c0 2.66699 0.333008 5.33398 1 8.00098l59 672c2 21.333 7.66699 40.833 17 58.5s21.5 32.667 36.5 45s32.5 22 52.5 29s41.667 10.5 65 10.5h64z" />
    <glyph glyph-name="parenright" unicode=")" horiz-adv-x="320" 
d="M13 -154l46.002 0.00195312c12 0 22.667 5.5 32 16.5s14.666 25.167 15.999 42.5l61 706v8c0 15.333 -3.33301 27.666 -10 36.999s-15.334 14 -26.001 14h-47l6 67h63c44 0 79.667 -11.833 107 -35.5s41 -54.5 41 -92.5c0 -2.66699 -0.166992 -5.16699 -0.5 -7.5
s-0.5 -4.83301 -0.5 -7.5l-59 -672c-2 -22 -7.83301 -41.667 -17.5 -59s-22 -32.333 -37 -45s-32.5 -22.334 -52.5 -29.001s-41.333 -10 -64 -10h-64z" />
    <glyph glyph-name="asterisk" unicode="*" horiz-adv-x="329" 
d="M231 582l84 -49l-33 -58l-84 48v-97h-66v99l-85 -49l-33 58l83 48l-84 48l34 58l85 -49v98h66v-97l84 49l34 -58z" />
    <glyph glyph-name="plus" unicode="+" horiz-adv-x="567" 
d="M326 0h-85v237h-237v85h237v237h85v-237h237v-85h-237v-237z" />
    <glyph glyph-name="comma" unicode="," horiz-adv-x="164" 
d="M145 42c0 -29.333 -8.33398 -55.001 -25.001 -77.001s-41.334 -33.667 -74.001 -35v40c10.667 0 19.334 1.83301 26.001 5.5s11.667 10.5 15 20.5c-2.66699 -0.666992 -6 -1 -10 -1c-17.333 0 -31.666 6.33301 -42.999 19s-17 27.334 -17 44.001
c0 17.333 6.33301 31.833 19 43.5s26.667 17.5 42 17.5c22.667 0 39.5 -7 50.5 -21s16.5 -32.667 16.5 -56z" />
    <glyph glyph-name="hyphen" unicode="-" horiz-adv-x="240" 
d="M204 320h-177l9 100h177z" />
    <glyph glyph-name="period" unicode="." horiz-adv-x="163" 
d="M143 57c0 -16.667 -6 -31 -18 -43s-26.667 -18 -44 -18c-16.667 0 -31 6 -43 18s-18 26.333 -18 43c0 17.333 5.83301 32 17.5 44s26.167 18 43.5 18s32 -6 44 -18s18 -26.667 18 -44z" />
    <glyph glyph-name="slash" unicode="/" horiz-adv-x="550" 
d="M94 -203h-92l454 940h92z" />
    <glyph glyph-name="zero" unicode="0" horiz-adv-x="439" 
d="M396 142c-2 -19.333 -8.33398 -37.667 -19.001 -55s-24.5 -32.5 -41.5 -45.5s-36.5 -23.167 -58.5 -30.5s-45 -11 -69 -11h-20c-22.667 0 -44 3.16699 -64 9.5s-37.5 15.166 -52.5 26.499s-26.833 24.833 -35.5 40.5s-13 33.167 -13 52.5c0 2 0.166992 4 0.5 6
s0.5 4.33301 0.5 7l20 224c2 20 8.16699 38.667 18.5 56s24 32.333 41 45s36.5 22.667 58.5 30s45.333 11 70 11h21c22 0 43 -3.16699 63 -9.5s37.333 -15.166 52 -26.499s26.334 -25 35.001 -41s13 -33.333 13 -52v-13zM281.999 376.999c0 18.667 -4.33301 33.833 -13 45.5
s-19.667 17.5 -33 17.5c-16 0 -29.333 -7 -40 -21s-17 -31.667 -19 -53l-19 -224c0 -2 -0.166992 -4 -0.5 -6s-0.5 -4 -0.5 -6c0 -22 4.5 -38.833 13.5 -50.5s20.167 -17.5 33.5 -17.5c14 0 26.833 7 38.5 21s18.5 33.667 20.5 59l19 224v11z" />
    <glyph glyph-name="one" unicode="1" horiz-adv-x="291" 
d="M262 0h-244l6 67h55l33 374h-57l6 67h190l-38 -441h55z" />
    <glyph glyph-name="two" unicode="2" horiz-adv-x="416" 
d="M397 383c0 -54 -24.667 -107.334 -74 -160.001l-148 -156h176l-6 -67h-327l6 66l210 215c28.667 29.333 43 60 43 92c0 45.333 -20.333 68 -61 68c-20.667 0 -39.834 -6.66699 -57.501 -20s-27.5 -31.666 -29.5 -54.999l-2 -22h-67l2 22c2 21.333 7.66699 40.833 17 58.5
s21.666 32.667 36.999 45s33.333 21.833 54 28.5s43.334 10 68.001 10c48.667 0 87.334 -11 116.001 -33s43 -52.667 43 -92z" />
    <glyph glyph-name="three" unicode="3" horiz-adv-x="424" 
d="M266 263c30.667 -8.66699 55.499 -24.167 74.499 -46.5s28.5 -47.833 28.5 -76.5v-12l-14 -162c-2 -19.333 -8.5 -37.5 -19.5 -54.5s-25 -32 -42 -45s-36.5 -23.333 -58.5 -31s-44.667 -11.5 -68 -11.5h-21c-18 0 -35 3.33301 -51 10s-30 16.334 -42 29.001
s-21.333 27.667 -28 45s-10 36.666 -10 57.999h67c0 -8 1.16699 -16.5 3.5 -25.5s6.33301 -17.167 12 -24.5s12.834 -13.5 21.501 -18.5s19.667 -7.5 33 -7.5c41.333 0 64.333 25.333 69 76l17 188v9c0 27.333 -12.667 41 -38 41h-106l138 237h-160l6 67h329z" />
    <glyph glyph-name="four" unicode="4" horiz-adv-x="509" 
d="M485 0h-77l-16 -176h-133l15 176h-271l305 508h144l-38 -441h77zM181 67h99l17 192z" />
    <glyph glyph-name="five" unicode="5" horiz-adv-x="396" 
d="M371 441l-152.998 -0.00292969l-14 -170c23.333 0 45.166 -3.16699 65.499 -9.5s38.166 -15.166 53.499 -26.499s27.333 -25 36 -41s13 -33.667 13 -53v-13l-15 -162c-2 -19.333 -8.33301 -37.666 -19 -54.999s-24.667 -32.5 -42 -45.5s-36.833 -23.167 -58.5 -30.5
s-44.5 -11 -68.5 -11h-21c-18.667 0 -36 3.66699 -52 11s-29.833 17.333 -41.5 30s-20.834 27.667 -27.501 45s-10 36 -10 56h68c0 -9.33301 1.5 -18.5 4.5 -27.5s7.5 -17.167 13.5 -24.5s13.333 -13.166 22 -17.499s18.334 -6.5 29.001 -6.5c42.667 0 66 25.333 70 76
l15 179v11c0 32 -12.333 48 -37 48h-139l27 304h286z" />
    <glyph glyph-name="six" unicode="6" horiz-adv-x="434" 
d="M394 142c-2 -19.333 -8.33398 -37.666 -19.001 -54.999s-24.5 -32.5 -41.5 -45.5s-36.5 -23.167 -58.5 -30.5s-45 -11 -69 -11h-20c-22.667 0 -44 3.16699 -64 9.5s-37.5 15.166 -52.5 26.499s-26.833 24.833 -35.5 40.5s-13 33.167 -13 52.5c0 2 0.166992 4 0.5 6
s0.5 4.33301 0.5 7l31 354c2.66699 28 11.167 54.167 25.5 78.5s32.833 45.333 55.5 63s48.5 31.667 77.5 42s59.5 15.5 91.5 15.5h82l-6 -67h-82c-28.667 0 -53 -8.83301 -73 -26.5s-31 -38.834 -33 -63.501l-3 -34c10 2.66699 24 4 42 4h21c22 0 43 -3.16699 63 -9.5
s37.333 -15.166 52 -26.499s26.334 -25 35.001 -41s13 -33.333 13 -52v-13zM279.999 377c0 20 -4.16797 35.666 -12.501 46.999s-19.166 17 -32.499 17c-16 0 -29.333 -7 -40 -21s-17 -31.667 -19 -53l-20 -225c0 -2 -0.166992 -3.83301 -0.5 -5.5s-0.5 -3.16699 -0.5 -4.5
c0 -19.333 4.5 -34.5 13.5 -45.5s20.167 -16.5 33.5 -16.5c14 0 26.833 6.33301 38.5 19s18.5 30.334 20.5 53.001l19 224v11z" />
    <glyph glyph-name="seven" unicode="7" horiz-adv-x="404" 
d="M153 -176h-135l222 617h-220l6 67h373z" />
    <glyph glyph-name="eight" unicode="8" horiz-adv-x="451" 
d="M394 142c-2 -19.333 -8.33398 -37.666 -19.001 -54.999s-24.5 -32.5 -41.5 -45.5s-36.5 -23.167 -58.5 -30.5s-45 -11 -69 -11h-21c-22 0 -43 3.16699 -63 9.5s-37.5 15.166 -52.5 26.499s-26.833 24.833 -35.5 40.5s-13 33.167 -13 52.5c0 2 0.166992 4 0.5 6
s0.5 4.33301 0.5 7l16 182c4 46 27 82 69 108c-15.333 9.33301 -27.666 23.5 -36.999 42.5s-14 38.833 -14 59.5c0 24 5 45.833 15 65.5s23.833 36.5 41.5 50.5s38.667 25 63 33s51.166 12 80.499 12c52.667 0 94.834 -11.833 126.501 -35.5s47.5 -57.167 47.5 -100.5
c0 -52.667 -23.333 -95 -70 -127c33.333 -25.333 50 -57 50 -95v-13zM250.999 629c-8 0 -15.6689 -3 -23.002 -9s-13.833 -13.5 -19.5 -22.5s-10.167 -19 -13.5 -30s-5 -21.5 -5 -31.5c0 -8 1.16699 -16.167 3.5 -24.5s5.5 -16 9.5 -23s8.83301 -12.667 14.5 -17
s11.834 -6.5 18.501 -6.5c8 0 15.667 2.66699 23 8s13.833 12.5 19.5 21.5s10.167 18.833 13.5 29.5s5 21.667 5 33c0 8 -1.16699 16.167 -3.5 24.5s-5.66602 16 -9.99902 23s-9.33301 12.833 -15 17.5s-11.5 7 -17.5 7zM275.997 335c0 18.667 -4.33301 33.833 -13 45.5
s-19.667 17.5 -33 17.5c-15.333 0 -28.333 -7 -39 -21s-17 -31.667 -19 -53l-16 -182c0 -2 -0.166992 -3.83301 -0.5 -5.5s-0.5 -3.5 -0.5 -5.5c0 -20 4.5 -35.5 13.5 -46.5s20.167 -16.5 33.5 -16.5c14.667 0 27.667 6.5 39 19.5s18 31.167 20 54.5l15 182v11z" />
    <glyph glyph-name="nine" unicode="9" horiz-adv-x="434" 
d="M383 22c-2.66699 -28 -11.001 -54 -25.001 -78s-32.333 -45 -55 -63s-48.5 -32 -77.5 -42s-59.833 -15 -92.5 -15h-82l6 66h82c28.667 0 53.167 8.83301 73.5 26.5s31.5 38.834 33.5 63.501l2 24c-11.333 -2.66699 -25.666 -4 -42.999 -4h-21c-22 0 -43 3.16699 -63 9.5
s-37.5 15.166 -52.5 26.499s-26.833 24.833 -35.5 40.5s-13 33.167 -13 52.5c0 2 0.166992 4.16699 0.5 6.5s0.5 4.5 0.5 6.5l20 224c2 19.333 8.33301 37.666 19 54.999s24.5 32.5 41.5 45.5s36.5 23.167 58.5 30.5s45 11 69 11h21c22 0 42.833 -3.16699 62.5 -9.5
s37 -15.166 52 -26.499s26.833 -24.833 35.5 -40.5s13 -33.167 13 -52.5v-13zM278.999 376c0 19.333 -4.33301 34.501 -13 45.501s-19.667 16.5 -33 16.5c-14 0 -26.833 -6.33301 -38.5 -19s-18.5 -30.334 -20.5 -53.001l-19 -224c0 -2 -0.166992 -4 -0.5 -6
s-0.5 -3.66699 -0.5 -5c0 -20.667 4.33301 -36.5 13 -47.5s19.667 -16.5 33 -16.5c14 0 27 6.5 39 19.5s19 31.167 21 54.5l19 225v10z" />
    <glyph glyph-name="colon" unicode=":" horiz-adv-x="180" 
d="M165 300c0 -16.667 -6 -31 -18 -43s-26.667 -18 -44 -18c-16.667 0 -31 6 -43 18s-18 26.333 -18 43c0 17.333 5.83301 32 17.5 44s26.167 18 43.5 18s32 -6 44 -18s18 -26.667 18 -44zM139 57c0 -16.667 -6 -31 -18 -43s-26.667 -18 -44 -18c-16.667 0 -31 6 -43 18
s-18 26.333 -18 43c0 17.333 5.83301 32 17.5 44s26.167 18 43.5 18s32 -6 44 -18s18 -26.667 18 -44z" />
    <glyph glyph-name="semicolon" unicode=";" horiz-adv-x="177" 
d="M163 300c0 -16.667 -6 -31 -18 -43s-26.667 -18 -44 -18c-16.667 0 -31 6 -43 18s-18 26.333 -18 43c0 17.333 5.83301 32 17.5 44s26.167 18 43.5 18s32 -6 44 -18s18 -26.667 18 -44zM140 42c0 -29.333 -8.33398 -55.001 -25.001 -77.001s-41.334 -33.667 -74.001 -35
v40c10.667 0 19.334 1.83301 26.001 5.5s11.667 10.5 15 20.5c-2.66699 -0.666992 -6 -1 -10 -1c-17.333 0 -31.666 6.33301 -42.999 19s-17 27.334 -17 44.001c0 17.333 6.33301 31.833 19 43.5s26.667 17.5 42 17.5c22.667 0 39.5 -7 50.5 -21s16.5 -32.667 16.5 -56z" />
    <glyph glyph-name="less" unicode="&#x3c;" horiz-adv-x="554" 
d="M2 403l535 212v-85l-410 -162l410 -161v-85l-535 211v70z" />
    <glyph glyph-name="equal" unicode="=" horiz-adv-x="598" 
d="M29 345v85h559v-85h-559zM29 123v85h559v-85h-559z" />
    <glyph glyph-name="greater" unicode="&#x3e;" horiz-adv-x="566" 
d="M564 333l-535 -211v85l410 161l-410 162v85l535 -212v-70z" />
    <glyph glyph-name="question" unicode="?" horiz-adv-x="404" 
d="M399 566c0 -65.333 -35.332 -123.335 -105.999 -174.002l-38 -22.5l-57 -34.5c-16 -10 -28.667 -18.5 -38 -25.5s-16.333 -13.667 -21 -20s-7.83398 -12.833 -9.50098 -19.5s-2.83398 -15 -3.50098 -25l-8 -85h-72l12 128c1.33301 16 3.83301 30.5 7.5 43.5
s8.83398 25.167 15.501 36.5s15 22 25 32s22.667 20.333 38 31c16.667 12 30.834 23.333 42.501 34s21.167 21.834 28.5 33.501s12.666 23.834 15.999 36.501s5 27 5 43c0 24.667 -7.83301 45.5 -23.5 62.5s-36.167 25.5 -61.5 25.5h-97l6 71h115
c32 0 61.667 -4.16699 89 -12.5s51 -20 71 -35s35.667 -33 47 -54s17 -44.167 17 -69.5zM147.001 64.998c0 -18 -6.33301 -33.333 -19 -46s-28 -19 -46 -19s-33.333 6.33301 -46 19s-19 28 -19 46s6.33301 33.333 19 46s28 19 46 19s33.333 -6.33301 46 -19s19 -28 19 -46z
" />
    <glyph glyph-name="at" unicode="@" horiz-adv-x="827" 
d="M808 368c-12 -142 -79.3301 -213.001 -201.997 -213.001c-42 0 -77.333 9 -106 27c-29.333 -18 -62.333 -27 -99 -27h-16c-21.333 0 -40.833 2.83301 -58.5 8.5s-33 13.5 -46 23.5s-23.167 21.833 -30.5 35.5s-11 28.834 -11 45.501c0 1.33301 0.166992 2.83301 0.5 4.5
s0.5 3.5 0.5 5.5l15 182c1.33301 18 6.83301 34.5 16.5 49.5s22.167 27.833 37.5 38.5s32.666 19 51.999 25s39.666 9 60.999 9h173l-25 -281c-0.666992 -3.33301 -1 -6.33301 -1 -9v-9c0 -36 11.667 -54 35 -54c16.667 0 31.5 4.83301 44.5 14.5s24 22.5 33 38.5
s15.833 34.333 20.5 55s7 41.667 7 63c0 40.667 -6.16699 77.5 -18.5 110.5s-29.833 61.333 -52.5 85s-50 42 -82 55s-67.667 19.5 -107 19.5c-41.333 0 -80 -8.83301 -116 -26.5s-67.333 -41.667 -94 -72s-47.5 -65.666 -62.5 -105.999s-22.5 -82.833 -22.5 -127.5
c0 -37.333 6.16699 -72.5 18.5 -105.5s29.333 -61.833 51 -86.5s47.167 -44 76.5 -58s61.333 -21 96 -21h166l-6 -67h-166c-52 0 -100.667 8.16699 -146 24.5s-84.5 39.333 -117.5 69s-59 65.167 -78 106.5s-28.5 86.666 -28.5 135.999c0 56 11.667 108.333 35 157
s54.666 91.167 93.999 127.5s85.333 64.833 138 85.5s108.667 31 168 31c54 0 102.833 -7.33301 146.5 -22s81 -36 112 -64s54.833 -62.333 71.5 -103s25 -86.667 25 -138c0 -6.66699 -0.166992 -13.5 -0.5 -20.5s-0.833008 -14.167 -1.5 -21.5zM455.003 515.999
c-14.667 0 -26.167 -0.666016 -34.5 -1.99902s-14.666 -4 -18.999 -8s-7.33301 -9.5 -9 -16.5s-2.83398 -15.833 -3.50098 -26.5l-16 -185c-0.666992 -3.33301 -1 -8.33301 -1 -15c0 -30 9 -45 27 -45c10 0 17.833 4.66699 23.5 14s9.5 24.666 11.5 45.999z" />
    <glyph glyph-name="A" unicode="A" 
d="M418 98c0 -19.333 9.6709 -29.6641 29.0039 -30.9971l-6 -67h-53c-32.667 0 -58.334 8 -77.001 24s-28 38.333 -28 67c0 5.33301 0.333008 9.66602 1 12.999l15 170h-121l-24 -274h-133l51 582c2 24 8.66699 45.5 20 64.5s26.333 35.167 45 48.5s40 23.666 64 30.999
s50 11 78 11c25.333 0 49.166 -3.16699 71.499 -9.5s41.666 -15.5 57.999 -27.5s29.166 -26.667 38.499 -44s14 -36.666 14 -57.999c0 -2.66699 -0.166992 -5.33398 -0.5 -8.00098s-0.5 -5.33398 -0.5 -8.00098zM328.004 610.002c0 17.333 -4.83398 31.666 -14.501 42.999
s-23.167 17 -40.5 17c-18 0 -33.167 -6.66699 -45.5 -20s-19.166 -29.666 -20.499 -48.999l-23 -260h121l23 260v9z" />
    <glyph glyph-name="B" unicode="B" horiz-adv-x="459" 
d="M429 513c-4 -44 -24.334 -82.3359 -61.001 -115.003c38 -28 57 -64.667 57 -110v-8.5c0 -2.33301 -0.333008 -5.16602 -1 -8.49902l-10 -116c-2 -21.333 -7.83301 -41.333 -17.5 -60s-22.167 -35 -37.5 -49s-32.666 -25.167 -51.999 -33.5s-39.666 -12.5 -60.999 -12.5
h-222l58 670h-38l5 67h245c19.333 0 37.666 -3.66699 54.999 -11s32.5 -17.166 45.5 -29.499s23.167 -27 30.5 -44s11 -35.167 11 -54.5c0 -3.33301 -0.166992 -6.16602 -0.5 -8.49902s-0.5 -4.83301 -0.5 -7.5zM302.999 605.997c0 17.333 -6 32.333 -18 45
s-26.667 19 -44 19h-26l-21 -245h34c17.333 2.66699 32.333 10.5 45 23.5s19.667 27.833 21 44.5l9 108v5zM292.999 295.997c0 16.667 -5.5 31.166 -16.5 43.499s-24.833 18.5 -41.5 18.5h-47l-26 -292h43c18 0 34.5 6.83301 49.5 20.5s23.167 29.834 24.5 48.501l14 155v6z
" />
    <glyph glyph-name="C" unicode="C" horiz-adv-x="418" 
d="M400 670l-155 -0.000976562c-12 0 -22.667 -5.5 -32 -16.5s-14.666 -25.167 -15.999 -42.5l-41 -469c0 -2.66699 -0.166992 -5 -0.5 -7s-0.5 -4 -0.5 -6c0 -19.333 5.5 -34.666 16.5 -45.999s26.5 -17 46.5 -17c21.333 0 40.333 7.16699 57 21.5s26 32.5 28 54.5h67
c-1.33301 -19.333 -7.33301 -37.5 -18 -54.5s-24 -32 -40 -45s-33.833 -23.333 -53.5 -31s-39.167 -11.5 -58.5 -11.5c-60.667 0 -105.5 12.167 -134.5 36.5s-43.5 55.5 -43.5 93.5c0 2 0.166992 4 0.5 6s0.5 4 0.5 6l39 452c2 21.333 7.66699 40.833 17 58.5
s21.666 32.667 36.999 45s33 22 53 29s41.333 10.5 64 10.5h173z" />
    <glyph glyph-name="D" unicode="D" horiz-adv-x="476" 
d="M416 155c-2 -21.333 -7.83203 -41.335 -17.499 -60.002s-22 -35 -37 -49s-32.333 -25.167 -52 -33.5s-40.167 -12.5 -61.5 -12.5h-223l59 670h-39l6 67h261c19.333 0 37.666 -3.66699 54.999 -11s32.5 -17.166 45.5 -29.499s23.167 -27 30.5 -44s11 -35.167 11 -54.5
c0 -3.33301 -0.166992 -6.16602 -0.5 -8.49902s-0.5 -4.83301 -0.5 -7.5zM322.001 607.998c0 17.333 -5.99902 31.999 -17.999 43.999s-27 18 -45 18h-42l-53 -604h42c18 0 34.667 6.83301 50 20.5s23.666 29.834 24.999 48.501l41 466v7z" />
    <glyph glyph-name="E" unicode="E" horiz-adv-x="420" 
d="M405 670l-135 0.000976562c-19.333 0 -36.333 -6.83301 -51 -20.5s-22.667 -29.834 -24 -48.501l-17 -199h167l-5 -67h-168l-18 -200c0 -1.33301 -0.166992 -2.5 -0.5 -3.5s-0.5 -2.16699 -0.5 -3.5c0 -17.333 6 -32 18 -44s27.333 -18 46 -18h135l-6 -66h-182
c-20 0 -38.5 3.5 -55.5 10.5s-32 16.833 -45 29.5s-23.167 27.334 -30.5 44.001s-11 35 -11 55v7.5c0 2.33301 0.333008 5.16602 1 8.49902l37 427c2 21.333 7.83301 41.333 17.5 60s22.334 35 38.001 49s33.167 25.167 52.5 33.5s39.666 12.5 60.999 12.5h182z" />
    <glyph glyph-name="F" unicode="F" horiz-adv-x="407" 
d="M426 670h-211l-24 -268h146l-6 -67h-146l-29 -335h-134l65 737h344z" />
    <glyph glyph-name="G" unicode="G" horiz-adv-x="498" 
d="M479 670l-238 -0.00390625c-12 0 -22.5 -5.5 -31.5 -16.5s-14.167 -25.167 -15.5 -42.5l-41 -469c-0.666992 -3.33301 -1 -7.66602 -1 -12.999c0 -20 5.5 -35.5 16.5 -46.5s26.167 -16.5 45.5 -16.5c21.333 0 40.333 7.16699 57 21.5s26 32.5 28 54.5l23 260h134
l-42 -478c-2 -19.333 -8.5 -37.666 -19.5 -54.999s-25 -32.5 -42 -45.5s-36.5 -23.333 -58.5 -31s-44.667 -11.5 -68 -11.5h-135l6 67h109c19.333 0 36 7.33301 50 22s22 32.667 24 54l9 98c-23.333 -14.667 -49.333 -22 -78 -22c-28 0 -53.833 2.66699 -77.5 8
s-44 13.333 -61 24s-30.333 24.167 -40 40.5s-14.5 35.5 -14.5 57.5c0 2 0.166992 4 0.5 6s0.5 4 0.5 6l39 452c2 20.667 7.5 39.834 16.5 57.501s21.167 32.834 36.5 45.501s33 22.5 53 29.5s42 10.5 66 10.5h255z" />
    <glyph glyph-name="H" unicode="H" horiz-adv-x="508" 
d="M428 98c0 -20.667 11 -31.001 33 -31.001l-6 -67h-57c-31.333 0 -56.5 7.83301 -75.5 23.5s-28.5 38.834 -28.5 69.501c0 2 0.166992 4 0.5 6s0.5 4 0.5 6l20 230h-127l-29 -335h-134l59 670h-38l6 67h171l-29 -335h126l29 335h134z" />
    <glyph glyph-name="I" unicode="I" horiz-adv-x="228" 
d="M149 0h-134l64 737h134z" />
    <glyph glyph-name="J" unicode="J" horiz-adv-x="262" 
d="M173 -76c-2 -20.667 -7.66797 -39.667 -17.001 -57s-21.666 -32.333 -36.999 -45s-33 -22.667 -53 -30s-41.667 -11 -65 -11h-151l6 67h109c45.333 0 70 25.333 74 76l71 813h134z" />
    <glyph glyph-name="K" unicode="K" horiz-adv-x="504" 
d="M279 423l47.001 -0.000976562c31.333 0 56.666 -7.66699 75.999 -23s29 -36 29 -62c0 -3.33301 -0.166992 -6.5 -0.5 -9.5s-0.833008 -6.16699 -1.5 -9.5l-18 -221c0 -20 10 -30.333 30 -31l-6 -67h-55c-31.333 0 -56.5 7.83301 -75.5 23.5s-28.5 38.834 -28.5 69.501
c0 2 0.166992 3.83301 0.5 5.5s0.5 3.5 0.5 5.5l18 220c0 21.333 -11.333 32 -34 32h-71l-31 -356h-134l59 670h-39l6 67h172l-24 -281l184 281h101z" />
    <glyph glyph-name="L" unicode="L" horiz-adv-x="347" 
d="M337 0l-210 -0.000976562c-31.333 0 -56.5 7.83301 -75.5 23.5s-28.5 38.834 -28.5 69.501c0 2 0.166992 3.83301 0.5 5.5s0.5 3.5 0.5 5.5l49 566h-37l6 67h170l-54 -639c0 -20.667 11.333 -31 34 -31h150z" />
    <glyph glyph-name="M" unicode="M" horiz-adv-x="738" 
d="M672 98c0 -20 9.99902 -30.3281 29.999 -30.9951l-6 -67h-55c-31.333 0 -56.5 7.66699 -75.5 23s-28.5 38.666 -28.5 69.999c0 2 0.166992 3.83301 0.5 5.5s0.5 3.5 0.5 5.5l41 483c0 3.33301 0.166992 6.16602 0.5 8.49902s0.5 5.16602 0.5 8.49902
c0 40.667 -17.333 61 -52 61h-58l-59 -665h-134l52 587c0 3.33301 0.166992 6.16602 0.5 8.49902s0.5 4.83301 0.5 7.5c0 41.333 -18 62 -54 62h-58l-58 -665h-134l59 670h-39l6 67h482c26 0 50 -3.33301 72 -10s40.833 -16.334 56.5 -29.001s27.834 -27.667 36.501 -45
s13 -37 13 -59v-15z" />
    <glyph glyph-name="N" unicode="N" horiz-adv-x="486" 
d="M419 98c0 -19.333 9.66699 -29.6719 29 -31.0049l-6 -67h-54c-32 0 -57.5 8.16699 -76.5 24.5s-28.5 38.5 -28.5 66.5v6.5c0 2.33301 0.333008 4.5 1 6.5l42 475c0 2.66699 0.166992 5.16699 0.5 7.5s0.5 4.5 0.5 6.5c0 22.667 -4.83301 40.334 -14.5 53.001
s-22.167 19 -37.5 19h-58l-58 -665h-134l58 670h-40l6 67h232c26 0 50 -3.33301 72 -10s41 -16.167 57 -28.5s28.5 -27.166 37.5 -44.499s13.5 -36.666 13.5 -57.999c0 -3.33301 -0.166992 -6.16602 -0.5 -8.49902s-0.5 -5.16602 -0.5 -8.49902z" />
    <glyph glyph-name="O" unicode="O" horiz-adv-x="487" 
d="M426 155c-2 -22.667 -8.33203 -43.5 -18.999 -62.5s-24.5 -35.333 -41.5 -49s-36.833 -24.334 -59.5 -32.001s-47 -11.5 -73 -11.5h-44c-24 0 -46.333 3.5 -67 10.5s-38.334 16.667 -53.001 29s-26.167 27 -34.5 44s-12.5 35.833 -12.5 56.5
c0 6.66699 0.333008 11.667 1 15l37 427c2 22 8.33301 42.5 19 61.5s24.5 35.5 41.5 49.5s37 24.833 60 32.5s47.5 11.5 73.5 11.5h43c24.667 0 47.167 -3.5 67.5 -10.5s38 -16.667 53 -29s26.667 -27.166 35 -44.499s12.5 -36 12.5 -56
c0 -2.66699 -0.166992 -5.16699 -0.5 -7.5s-0.5 -4.83301 -0.5 -7.5zM332.001 606c0 17.333 -6 32.335 -18 45.002s-26.667 19 -44 19c-18.667 0 -35.5 -6.83301 -50.5 -20.5s-23.167 -29.834 -24.5 -48.501l-41 -466c0 -1.33301 -0.166992 -2.5 -0.5 -3.5
s-0.5 -2.16699 -0.5 -3.5c0 -17.333 6 -32 18 -44s27.333 -18 46 -18c19.333 0 36.333 6.66699 51 20s22.667 29.666 24 48.999l40 466v5z" />
    <glyph glyph-name="P" unicode="P" horiz-adv-x="461" 
d="M443 462c-2 -21.333 -7.83203 -41.333 -17.499 -60s-22.167 -35 -37.5 -49s-32.833 -25 -52.5 -33s-39.834 -12 -60.501 -12h-90l-26 -308h-134l59 670h-39l6 67h261c20 0 38.5 -3.66699 55.5 -11s31.833 -17.5 44.5 -30.5s22.667 -28 30 -45s11 -35.5 11 -55.5v-13z
M322.001 608c0 17.333 -5.99902 31.999 -17.999 43.999s-27 18 -45 18h-42l-26 -296h42c18 0 34.667 6.83301 50 20.5s23.666 29.834 24.999 48.501l14 158v7z" />
    <glyph glyph-name="Q" unicode="Q" horiz-adv-x="479" 
d="M422 155c-3.33301 -38 -18.334 -71 -45.001 -99s-62 -45.667 -106 -53l-7 -66c0 -17.333 6 -32 18 -44s27.333 -18 46 -18h17l-6 -66h-64c-19.333 0 -37.666 3.5 -54.999 10.5s-32.5 16.667 -45.5 29s-23.167 26.833 -30.5 43.5s-11 35 -11 55v4.5
c0 1.66699 0.166992 4.5 0.5 8.5s0.833008 9.5 1.5 16.5s1.66699 16.5 3 28.5c-38 8 -67.5 24.167 -88.5 48.5s-31.5 53.166 -31.5 86.499c0 6.66699 0.333008 11.667 1 15l37 427c2 22 8.33301 42.5 19 61.5s24.5 35.5 41.5 49.5s37 24.833 60 32.5s47.5 11.5 73.5 11.5h43
c24.667 0 47.167 -3.5 67.5 -10.5s38 -16.667 53 -29s26.667 -27.166 35 -44.499s12.5 -36 12.5 -56c0 -2.66699 -0.166992 -5.16699 -0.5 -7.5s-0.5 -4.83301 -0.5 -7.5zM327.999 606c0 17.333 -6 32.335 -18 45.002s-26.667 19 -44 19
c-18.667 0 -35.5 -6.83301 -50.5 -20.5s-23.167 -29.834 -24.5 -48.501l-41 -466c0 -1.33301 -0.166992 -2.5 -0.5 -3.5s-0.5 -2.16699 -0.5 -3.5c0 -17.333 6 -32 18 -44s27.333 -18 46 -18c19.333 0 36.333 6.66699 51 20s22.667 29.666 24 48.999l40 466v5z" />
    <glyph glyph-name="R" unicode="R" horiz-adv-x="479" 
d="M397 402c21.333 -16 32 -40 32 -72v-4c0 -1.33301 -0.166992 -3.16602 -0.5 -5.49902s-0.5 -4.83301 -0.5 -7.5l-18 -217c0 -19.333 11 -29 33 -29l-6 -67h-57c-69.333 0 -104 30.667 -104 92c0 5.33301 0.333008 9.33301 1 12l17 216c0 24 -11 36 -33 36h-72l-31 -356
h-133l58 670h-39l6 66h241c50.667 0 90.667 -11.333 120 -34s44 -54 44 -94c0 -102.667 -19.333 -171.334 -58 -206.001zM322 623c0 13.333 -4 24.5 -12 33.5s-19.333 13.5 -34 13.5h-59l-22 -247h68c28 0 43.667 16.667 47 50z" />
    <glyph glyph-name="S" unicode="S" horiz-adv-x="380" 
d="M338 670h-64c-21.333 0 -39 -2.16699 -53 -6.5s-25 -10.333 -33 -18s-13.667 -16.167 -17 -25.5s-5 -19 -5 -29c0 -26 10 -52 30 -78l123 -160c30 -39.333 45 -84.333 45 -135c0 -31.333 -6 -60.333 -18 -87s-28.833 -49.667 -50.5 -69s-48 -34.5 -79 -45.5
s-65.5 -16.5 -103.5 -16.5h-99l7 67h86c40 0 70.5 9.16699 91.5 27.5s31.5 41.833 31.5 70.5s-11 58.667 -33 90l-138 191c-19.333 27.333 -29 58 -29 92c0 27.333 5.5 53 16.5 77s26.5 45 46.5 63s43.833 32.333 71.5 43s58.167 16 91.5 16h88z" />
    <glyph glyph-name="T" unicode="T" horiz-adv-x="355" 
d="M343 670h-96l-58 -670h-134l59 670h-96l6 66h325z" />
    <glyph glyph-name="U" unicode="U" horiz-adv-x="491" 
d="M412 112l-0.000976562 -9.99902c0 -23.333 14 -35 42 -35l-6 -67h-59c-36 0 -64.667 9.66699 -86 29c-35.333 -19.333 -73.666 -29 -114.999 -29c-22.667 0 -44 3.16699 -64 9.5s-37.333 15.166 -52 26.499s-26.167 25 -34.5 41s-12.5 34 -12.5 54l46 539h-36l6 66h169
l-51 -597c0 -44.667 18.333 -67 55 -67c18 0 33.333 8 46 24s19.667 34 21 54l50 587h135z" />
    <glyph glyph-name="V" unicode="V" horiz-adv-x="479" 
d="M417 242c-2.66699 -32.667 -11.501 -63.668 -26.501 -93.001s-34.167 -55.166 -57.5 -77.499s-50.166 -40 -80.499 -53s-61.833 -19.5 -94.5 -19.5h-134l58 671h-35l6 67h170l-59 -671c14 0 27.5 2.66699 40.5 8s24.5 12.5 34.5 21.5s18.333 19.5 25 31.5
s10.667 25 12 39l50 571h134z" />
    <glyph glyph-name="W" unicode="W" horiz-adv-x="740" 
d="M655 67h53l-5 -67h-498c-26 -0 -50 3.33301 -72 10s-40.833 16.167 -56.5 28.5s-28 27.166 -37 44.499s-13.5 36.666 -13.5 57.999v8c0 2.66699 0.333008 5.66699 1 9l44 512h-38l6 67h172l-51 -588c-0.666992 -3.33301 -1 -6.16602 -1 -8.49902v-7.5
c0 -40.667 17.667 -61 53 -61h58l58 665h134l-51 -588c-0.666992 -3.33301 -1 -6.16602 -1 -8.49902v-7.5c0 -40.667 17.667 -61 53 -61h58l58 665h134z" />
    <glyph glyph-name="X" unicode="X" horiz-adv-x="518" 
d="M473 498c-5.33301 -54 -31.332 -95.3281 -77.999 -123.995c38 -26.667 57 -62.667 57 -108c0 -2.66699 -0.166992 -5.33398 -0.5 -8.00098s-0.5 -5.33398 -0.5 -8.00098l-13 -152c0 -20 9 -30.333 27 -31l-6 -67h-50c-32.667 0 -58.334 8 -77.001 24s-28 38.333 -28 67
c0 5.33301 0.333008 9.66602 1 12.999l15 165v7c0 17.333 -6 32 -18 44s-27 18 -45 18c-18.667 0 -35.5 -6.83301 -50.5 -20.5s-23.167 -29.834 -24.5 -48.501l-24 -269h-133l22 250c5.33301 54 31.333 95.333 78 124c-38 26 -57 62 -57 108v7.5
c0 2.33301 0.333008 5.16602 1 8.49902l15 172h-39l6 67h172l-23 -259c0 -1.33301 -0.166992 -2.5 -0.5 -3.5s-0.5 -2.16699 -0.5 -3.5c0 -17.333 6 -31.833 18 -43.5s27.333 -17.5 46 -17.5c19.333 0 36.333 6.66699 51 20s22.667 29.333 24 48l22 259h134z" />
    <glyph glyph-name="Y" unicode="Y" horiz-adv-x="475" 
d="M442 507c-3.33301 -36.667 -17.832 -68.667 -43.499 -96s-59.5 -45.333 -101.5 -54l-31 -357h-133l31 356c-40 7.33301 -71 23.166 -93 47.499s-33 53.833 -33 88.5c0 6.66699 0.333008 11.667 1 15l14 163h-37l6 67h170l-22 -255
c0 -17.333 6.16699 -32.166 18.5 -44.499s27.166 -18.5 44.499 -18.5c18.667 0 35.5 6.66699 50.5 20s23.167 29.333 24.5 48l21 250h134z" />
    <glyph glyph-name="Z" unicode="Z" horiz-adv-x="517" 
d="M187 67h262l-6 -67h-432l315 670h-202l6 66h373z" />
    <glyph glyph-name="bracketleft" unicode="[" horiz-adv-x="321" 
d="M308 670h-80l-72 -823h80l-8 -67h-211l84 957h213z" />
    <glyph glyph-name="backslash" unicode="\" horiz-adv-x="422" 
d="M327 -203l-324 940h92l324 -940h-92z" />
    <glyph glyph-name="bracketright" unicode="]" horiz-adv-x="321" 
d="M14 -154h80l72 823h-80l8 67h211l-84 -957h-213z" />
    <glyph glyph-name="asciicircum" unicode="^" horiz-adv-x="527" 
d="M90 170l-78 32l211 504h80l212 -504l-78 -32l-174 413z" />
    <glyph glyph-name="underscore" unicode="_" horiz-adv-x="558" 
d="M29 -72v50h500v-50h-500z" />
    <glyph glyph-name="grave" unicode="`" horiz-adv-x="225" 
d="M188 534l-181 84l28 61l182 -85z" />
    <glyph glyph-name="a" unicode="a" horiz-adv-x="494" 
d="M460 0l-47.001 -0.000976562c-46.667 0 -80.667 13.667 -102 41c-29.333 -27.333 -63.666 -41 -102.999 -41h-21c-22 0 -43 3.16699 -63 9.5s-37.5 15.166 -52.5 26.499s-26.833 24.833 -35.5 40.5s-13 33.167 -13 52.5c0 5.33301 0.333008 9.66602 1 12.999l19 224
c2 20.667 8.33301 39.667 19 57s24.667 32.333 42 45s36.833 22.5 58.5 29.5s44.5 10.5 68.5 10.5h231l-34 -396c0 -1.33301 -0.166992 -2.66602 -0.5 -3.99902s-0.5 -2.66602 -0.5 -3.99902c0 -23.333 13 -35.666 39 -36.999zM225.999 440.999
c-28 0 -43.667 -16.668 -47 -50.001l-22 -257c0 -2 -0.166992 -4 -0.5 -6s-0.5 -3.66699 -0.5 -5c0 -37.333 19.333 -56 58 -56c20.667 0 39 7.33301 55 22s25 32.334 27 53.001l26 299h-96z" />
    <glyph glyph-name="b" unicode="b" horiz-adv-x="514" 
d="M479 142c-2 -21.333 -8.33496 -40.667 -19.002 -58s-24.834 -32.333 -42.501 -45s-38.167 -22.334 -61.5 -29.001s-48.333 -10 -75 -10c-45.333 0 -80.666 13.667 -105.999 41c-27.333 -27.333 -63.666 -41 -108.999 -41h-49l6 67c28 0.666992 43.667 15.667 47 45
l55 625h185l-5 -67h-51l-14 -162h96c22 0 43 -3.16699 63 -9.5s37.333 -15.166 52 -26.499s26.334 -25 35.001 -41s13 -33.333 13 -52v-13zM367.998 399.999c0 27.333 -12.666 41 -37.999 41h-96l-27 -299v-7c0 -19.333 6.66699 -35.5 20 -48.5s29.666 -19.5 48.999 -19.5
c42 0 65 22.333 69 67l23 257v9z" />
    <glyph glyph-name="c" unicode="c" horiz-adv-x="390" 
d="M366 441h-142c-12.667 0 -23.334 -6.16699 -32.001 -18.5s-13.667 -25.5 -15 -39.5l-23 -263c0 -14.667 5.66699 -27.167 17 -37.5s25 -15.5 41 -15.5c20.667 0 39 7.33301 55 22s25 32.334 27 53.001h67c-1.33301 -19.333 -6.66602 -37.5 -15.999 -54.5s-21 -32 -35 -45
s-30 -23.333 -48 -31s-36.667 -11.5 -56 -11.5h-21c-22.667 0 -44 3.16699 -64 9.5s-37.333 15.166 -52 26.499s-26.167 25 -34.5 41s-12.5 34 -12.5 54l20 235c2 20.667 8.33301 39.667 19 57s24.5 32.333 41.5 45s36.5 22.5 58.5 29.5s45 10.5 69 10.5h142z" />
    <glyph glyph-name="d" unicode="d" horiz-adv-x="496" 
d="M415 112c0 -1.33301 -0.167969 -2.66699 -0.500977 -4s-0.5 -2.66602 -0.5 -3.99902c0 -24.667 14.333 -37 43 -37l-6 -67h-50c-45.333 0 -79.666 13.667 -102.999 41c-29.333 -27.333 -67 -41 -113 -41c-24.667 0 -47.5 3 -68.5 9s-39.333 14.5 -55 25.5
s-28 24.5 -37 40.5s-13.5 34 -13.5 54c0 5.33301 0.333008 9.66602 1 12.999l19 224c2 20.667 8.33301 39.667 19 57s24.667 32.333 42 45s36.833 22.5 58.5 29.5s44.5 10.5 68.5 10.5h96l15 162h-38l6 67h172zM212.999 440.999c-27.333 0 -42.667 -16.668 -46 -50.001
l-22 -257c0 -2 -0.166992 -4 -0.5 -6s-0.5 -3.66699 -0.5 -5c0 -37.333 19 -56 57 -56c20.667 0 39 7.33301 55 22s25 32.334 27 53.001l27 299h-97z" />
    <glyph glyph-name="e" unicode="e" horiz-adv-x="397" 
d="M311 366l-0.00292969 7.00098c0 19.333 -6.83301 35.5 -20.5 48.5s-29.5 19.5 -47.5 19.5c-11.333 0 -21.666 -2.5 -30.999 -7.5s-17.166 -11.667 -23.499 -20s-11.166 -17.833 -14.499 -28.5s-5 -22 -5 -34c0 -42.667 15.667 -64 47 -64h124l-6 -66h-123
c-18 0 -32.5 -8.5 -43.5 -25.5s-16.5 -36.5 -16.5 -58.5c0 -19.333 5 -36 15 -50s25 -21 45 -21c18.667 0 36.167 6.83301 52.5 20.5s25.5 32.167 27.5 55.5h67c-4 -43.333 -22 -77.833 -54 -103.5s-72.333 -38.5 -121 -38.5c-20.667 0 -40.834 3.33301 -60.501 10
s-37 16 -52 28s-27.167 26 -36.5 42s-14 33.333 -14 52c0 51.333 23 92 69 122c-33.333 31.333 -50 65.333 -50 102c0 21.333 5.16699 41.333 15.5 60s24.333 34.834 42 48.501s37.834 24.334 60.501 32.001s46 11.5 70 11.5c46 0 82.833 -11.333 110.5 -34
s41.5 -53.334 41.5 -92.001c0 -2.66699 -0.166992 -5.33398 -0.5 -8.00098s-0.5 -5.33398 -0.5 -8.00098h-67z" />
    <glyph glyph-name="f" unicode="f" horiz-adv-x="410" 
d="M399 670l-76.002 -0.00195312c-11.333 0 -21.666 -5.66699 -30.999 -17s-14.666 -25.333 -15.999 -42l-9 -103h73l-6 -67h-73l-45 -517c-2 -20 -8 -38.667 -18 -56s-23 -32.5 -39 -45.5s-34.5 -23.167 -55.5 -30.5s-43.5 -11 -67.5 -11h-76l6 67h68
c28 0 43.667 19.667 47 59l46 534h-63l6 67h63l8 86c2 20.667 7.5 39.834 16.5 57.501s21 32.834 36 45.501s32.5 22.5 52.5 29.5s42 10.5 66 10.5h93z" />
    <glyph glyph-name="g" unicode="g" horiz-adv-x="432" 
d="M408 441l-56 0.00195312c5.33301 -12 8 -25 8 -39v-11l-15 -172c-2.66699 -36.667 -22 -66.334 -58 -89.001c48 -33.333 72 -76.333 72 -129c0 -3.33301 -0.166992 -6.33301 -0.5 -9s-0.5 -5.66699 -0.5 -9h43l-6 -67h-43l-3 -38
c-1.33301 -17.333 -6.66602 -33.166 -15.999 -47.499s-21.166 -26.666 -35.499 -36.999s-31 -18.5 -50 -24.5s-38.833 -9 -59.5 -9h-66c-20 0 -38.5 2.66699 -55.5 8s-32 12.666 -45 21.999s-23.167 20.666 -30.5 33.999s-11 28 -11 44c0 1.33301 0.166992 3 0.5 5
s0.5 3.66699 0.5 5l9 105h235v9c0 12.667 -2.16699 25.5 -6.5 38.5s-10 24.833 -17 35.5s-15 19.167 -24 25.5s-18.5 9.5 -28.5 9.5c-18.667 0 -36.5 2.66699 -53.5 8s-31.833 12.666 -44.5 21.999s-22.667 20.666 -30 33.999s-11 28 -11 44
c0 1.33301 0.166992 2.83301 0.5 4.5s0.5 3.5 0.5 5.5l15 172c1.33301 16.667 6.66602 32.167 15.999 46.5s21.166 26.833 35.499 37.5s31 18.834 50 24.501s38.833 8.5 59.5 8.5h227zM227 399.002c0 14 -3.00195 24.667 -9.00195 32s-12.667 11 -20 11
c-11.333 0 -20.166 -4.5 -26.499 -13.5s-10.166 -21.5 -11.499 -37.5l-15 -172c0 -2 -0.166992 -4 -0.5 -6s-0.5 -3.66699 -0.5 -5c0 -27.333 10 -41 30 -41c22 0 34.333 17.333 37 52l16 172v8zM117.998 -83.998l-3.00098 -45c0 -16 4.33301 -28.5 13 -37.5
s19.334 -13.5 32.001 -13.5c13.333 0 25.333 5.16699 36 15.5s17 24.5 19 42.5l4 38h-101z" />
    <glyph glyph-name="h" unicode="h" horiz-adv-x="472" 
d="M453 -2h-52.001c-32.667 0 -59.167 8.16699 -79.5 24.5s-30.5 38.5 -30.5 66.5c0 1.33301 0.166992 3 0.5 5s0.5 4 0.5 6l22 262v14c0 41.333 -16 62 -48 62h-54l-38 -438h-134l59 670h-39l6 67h172l-20 -229h54c54 0 96.833 -12 128.5 -36s47.5 -57.333 47.5 -100
c0 -3.33301 -0.166992 -6.33301 -0.5 -9s-0.5 -5.66699 -0.5 -9l-21 -254v-7c0 -10.667 1.83301 -18 5.5 -22s12.834 -6 27.501 -6z" />
    <glyph glyph-name="i" unicode="i" horiz-adv-x="226" 
d="M204 669c0 -18.667 -6.66699 -34.832 -20 -48.499s-29.333 -20.5 -48 -20.5s-34.667 6.66699 -48 20s-20 29.666 -20 48.999c0 18.667 6.66699 34.667 20 48s29.333 20 48 20s34.667 -6.66699 48 -20s20 -29.333 20 -48zM192 0.00195312h-20c-46 0 -82.333 10 -109 30
s-40 47.667 -40 83c0 5.33301 0.333008 9.33301 1 12l28 316h-38l6 67h171l-33 -383c0 -1.33301 -0.166992 -2.83301 -0.5 -4.5s-0.5 -3.16699 -0.5 -4.5c0 -28.667 13.667 -45 41 -49z" />
    <glyph glyph-name="j" unicode="j" horiz-adv-x="275" 
d="M259 669c0 -18.667 -6.66895 -34.834 -20.002 -48.501s-29.666 -20.5 -48.999 -20.5c-18.667 0 -34.667 6.83301 -48 20.5s-20 29.834 -20 48.501s6.66699 34.667 20 48s29.333 20 48 20s34.834 -6.66699 48.501 -20s20.5 -29.333 20.5 -48zM195.998 -76
c-2 -19.333 -8.33301 -37.667 -19 -55s-24.667 -32.5 -42 -45.5s-37 -23.333 -59 -31s-45 -11.5 -69 -11.5h-67l6 67h67c27.333 0 43 19.667 47 59l47 534h-36l6 67h170z" />
    <glyph glyph-name="k" unicode="k" horiz-adv-x="488" 
d="M297 327c38 -9.33301 67.332 -25.833 87.999 -49.5s31 -52.5 31 -86.5v-12l-5 -75c0 -24 11.333 -36.333 34 -37l-5 -67h-46c-37.333 0 -66.333 7.5 -87 22.5s-31 36.167 -31 63.5l6 101c0 22 -4.66699 40.667 -14 56s-23.666 23 -42.999 23
c-14.667 0 -29.667 -5.33301 -45 -16l-22 -250h-133l58 670h-38l6 67h172l-34 -386l158 157h133z" />
    <glyph glyph-name="l" unicode="l" horiz-adv-x="249" 
d="M175 125c0 -1.33301 -0.166992 -3 -0.5 -5s-0.5 -3.66699 -0.5 -5c0 -29.333 14 -45.333 42 -48l-5 -67h-22c-46 0 -82.333 10 -109 30s-40 47.667 -40 83c0 5.33301 0.333008 9.33301 1 12l48 545h-36l6 67h169z" />
    <glyph glyph-name="m" unicode="m" horiz-adv-x="725" 
d="M694 0h-61.999c-32.667 0 -59.334 8 -80.001 24s-31 38.333 -31 67c0 1.33301 0.166992 3 0.5 5s0.5 4 0.5 6l24 283c0 14.667 -4.33301 27.667 -13 39s-20.667 17 -36 17h-54l-39 -441h-134l33 385c0 14.667 -4.33301 27.667 -13 39s-20.667 17 -36 17h-54l-39 -441
h-133l38 441h-35l6 67h466c55.333 0 98.666 -11.167 129.999 -33.5s47 -54.5 47 -96.5c0 -2.66699 -0.166992 -5.16699 -0.5 -7.5s-0.5 -4.83301 -0.5 -7.5l-22 -253c-0.666992 -2.66699 -1 -6.33398 -1 -11.001c0 -6 0.333008 -11.167 1 -15.5s2.5 -7.66602 5.5 -9.99902
s7.33301 -4 13 -5s13.834 -1.5 24.501 -1.5z" />
    <glyph glyph-name="n" unicode="n" horiz-adv-x="476" 
d="M447 0l-57 -0.000976562c-34 0 -61 8.16699 -81 24.5s-30 38.5 -30 66.5c0 1.33301 0.166992 3 0.5 5s0.5 4 0.5 6l24 282c0 16.667 -4.83301 30.334 -14.5 41.001s-21.167 16 -34.5 16h-54l-39 -441h-134l39 441h-38l6 67h226c55.333 0 98.5 -11.167 129.5 -33.5
s46.5 -54.5 46.5 -96.5c0 -2.66699 -0.166992 -5.16699 -0.5 -7.5s-0.5 -4.83301 -0.5 -7.5l-21 -253v-9c0 -13.333 1.83301 -22.333 5.5 -27s14.5 -7 32.5 -7z" />
    <glyph glyph-name="o" unicode="o" horiz-adv-x="439" 
d="M396 142c-2 -19.333 -8.33398 -37.666 -19.001 -54.999s-24.5 -32.5 -41.5 -45.5s-36.5 -23.167 -58.5 -30.5s-45 -11 -69 -11h-20c-22.667 0 -44 3.16699 -64 9.5s-37.5 15.166 -52.5 26.499s-26.833 24.833 -35.5 40.5s-13 33.167 -13 52.5
c0 5.33301 0.333008 9.66602 1 12.999l20 224c2 20 8.16699 38.667 18.5 56s24 32.333 41 45s36.5 22.667 58.5 30s45.333 11 70 11h21c22 0 43 -3.16699 63 -9.5s37.333 -15.166 52 -26.499s26.334 -25 35.001 -41s13 -33.333 13 -52v-13zM281.999 377
c0 20.667 -4.33301 36.334 -13 47.001s-19.667 16 -33 16c-16 0 -29.333 -7 -40 -21s-17 -31.667 -19 -53l-19 -224c0 -2 -0.166992 -3.83301 -0.5 -5.5s-0.5 -3.5 -0.5 -5.5c0 -19.333 4.5 -34.833 13.5 -46.5s20.167 -17.5 33.5 -17.5c14 0 26.833 6.16699 38.5 18.5
s18.5 31.166 20.5 56.499l19 224v11z" />
    <glyph glyph-name="p" unicode="p" horiz-adv-x="459" 
d="M429 142c-2 -20.667 -8.50098 -39.668 -19.501 -57.001s-25 -32.333 -42 -45s-36.333 -22.5 -58 -29.5s-44.5 -10.5 -68.5 -10.5h-21c-18 0 -32 1.33301 -42 4l-19 -223h-134l58 660h-38l5 67h235c22.667 0 43.834 -3.16699 63.501 -9.5s37 -15.166 52 -26.499
s26.833 -24.833 35.5 -40.5s13 -33.167 13 -52.5v-13zM315.999 391.999c0 32.667 -15 49 -45 49h-54l-27 -299c0 -2 -0.166992 -3.83301 -0.5 -5.5s-0.5 -3.5 -0.5 -5.5c0 -20 4.5 -35.667 13.5 -47s20.167 -17 33.5 -17c14.667 0 27.667 6.5 39 19.5s18 31.5 20 55.5
l21 241v9z" />
    <glyph glyph-name="q" unicode="q" horiz-adv-x="474" 
d="M451 441l-37.999 0.00195312l-58 -660h-133l19 223c-10 -2.66699 -24 -4 -42 -4h-21c-22.667 0 -44 3.16699 -64 9.5s-37.333 15.166 -52 26.499s-26.334 24.833 -35.001 40.5s-13 33.167 -13 52.5c0 5.33301 0.333008 9.66602 1 12.999l19 224
c2 20.667 8.33301 39.667 19 57s24.667 32.333 42 45s36.833 22.5 58.5 29.5s44.5 10.5 68.5 10.5h235zM217.001 441.002c-28 0 -43.667 -16.666 -47 -49.999l-22 -249c0 -2 -0.166992 -3.83301 -0.5 -5.5s-0.5 -3.5 -0.5 -5.5c0 -20 4.5 -35.667 13.5 -47
s20.167 -17 33.5 -17c14 0 26.833 6.66699 38.5 20s18.5 31.666 20.5 54.999l26 299h-62z" />
    <glyph glyph-name="r" unicode="r" horiz-adv-x="387" 
d="M368 369h-73.002l5 66c-15.333 -6 -29.666 -14.333 -42.999 -25s-25 -23 -35 -37s-18.167 -29.167 -24.5 -45.5s-10.166 -32.833 -11.499 -49.5l-24 -278h-134l39 441h-38l6 67h171l-3 -43c34.667 28.667 79 43 133 43h45z" />
    <glyph glyph-name="s" unicode="s" horiz-adv-x="373" 
d="M353 143c0 -21.333 -4.50098 -40.668 -13.501 -58.001s-21.333 -32.333 -37 -45s-34.334 -22.5 -56.001 -29.5s-45.167 -10.5 -70.5 -10.5h-159l6 67h107c41.333 0 62 19.667 62 59c0 22 -7.33301 41.333 -22 58l-80 91c-26 28.667 -39 61 -39 97
c0 20.667 4.33301 39.334 13 56.001s20.834 31 36.501 43s33.834 21.167 54.501 27.5s43 9.5 67 9.5h110l-6 -67h-79c-33.333 0 -50 -10 -50 -30c0 -10.667 4.33301 -21.334 13 -32.001l98 -121c30 -37.333 45 -75.666 45 -114.999z" />
    <glyph glyph-name="t" unicode="t" horiz-adv-x="277" 
d="M259 441l-57 0.000976562l-28 -317c0 -1.33301 -0.166992 -2.83301 -0.5 -4.5s-0.5 -3.16699 -0.5 -4.5c0 -28.667 14 -44.334 42 -47.001l-6 -68h-47c-38 0 -68 9.66699 -90 29s-33 46.333 -33 81c0 2.66699 0.166992 5 0.5 7s0.5 4.33301 0.5 7l28 317h-53l6 67h53
l10 118h134l-11 -118h58z" />
    <glyph glyph-name="u" unicode="u" horiz-adv-x="465" 
d="M431 0l-238.999 -0.000976562c-48 0 -86.5 11.833 -115.5 35.5s-43.5 56.834 -43.5 99.501v9.5c0 3 0.333008 6.16699 1 9.5l25 287h-35l6 67h168l-31 -371v-8c0 -17.333 4.16699 -32 12.5 -44s20.166 -18 35.499 -18h48l39 441h134l-38 -441h39z" />
    <glyph glyph-name="v" unicode="v" horiz-adv-x="463" 
d="M421 242c-2.66699 -32.667 -11.501 -63.668 -26.501 -93.001s-34.167 -55.166 -57.5 -77.499s-50.166 -40 -80.499 -53s-61.833 -19.5 -94.5 -19.5h-134l38 442h-35l6 67h170l-39 -442c14 0 27.5 2.66699 40.5 8s24.5 12.5 34.5 21.5s18.333 19.5 25 31.5
s10.667 25 12 39l30 342h134z" />
    <glyph glyph-name="w" unicode="w" horiz-adv-x="730" 
d="M697 0h-482c-56 0 -99.5 11.167 -130.5 33.5s-46.5 54.5 -46.5 96.5c0 6.66699 0.333008 11.667 1 15l26 296h-39l5 67h175l-34 -385c0 -16 4.83301 -29.333 14.5 -40s21.167 -16 34.5 -16h55l38 441h134l-33 -385c0 -16 4.83301 -29.333 14.5 -40s21.167 -16 34.5 -16
h54l39 441h134l-39 -441h51z" />
    <glyph glyph-name="x" unicode="x" horiz-adv-x="520" 
d="M490 441h-26.0029l-5 -55c-2 -23.333 -9.66699 -45.833 -23 -67.5s-31.666 -41.167 -54.999 -58.5c18 -12 31.833 -29.167 41.5 -51.5s14.5 -43.166 14.5 -62.499v-12l-6 -67h34l-6 -67h-168l12 134c0 3.33301 0.166992 6.16602 0.5 8.49902s0.5 4.83301 0.5 7.5
c0 23.333 -4.33301 41.666 -13 54.999s-19.667 20 -33 20c-14 0 -26.833 -8 -38.5 -24s-18.834 -38.333 -21.501 -67l-11 -134h-163l5 67h30l6 67c2 23.333 9.66699 46.333 23 69s31.333 41.667 54 57c-20 18 -34.333 35.5 -43 52.5s-13 37.167 -13 60.5
c0 2 0.166992 4 0.5 6s0.5 4.33301 0.5 7l4 55h-31l6 67h165l-11 -122c-0.666992 -3.33301 -1 -6.16602 -1 -8.49902v-7.5c0 -23.333 4.33301 -41.5 13 -54.5s19.334 -19.5 32.001 -19.5c14.667 0 27.834 8 39.501 24s18.834 38 21.501 66l11 122h160z" />
    <glyph glyph-name="y" unicode="y" horiz-adv-x="449" 
d="M378 -76c-2 -19.333 -8.33008 -37.667 -18.9971 -55s-24.667 -32.5 -42 -45.5s-37 -23.333 -59 -31s-45 -11.5 -69 -11.5h-135l6 67h127c33.333 0 51.666 19.667 54.999 59l8 93h-44c-25.333 -0 -48.833 3.33301 -70.5 10s-40.334 16 -56.001 28
s-27.834 26.5 -36.501 43.5s-13 36.167 -13 57.5c0 6.66699 0.333008 11.667 1 15l25 287h-36l6 67h170l-33 -379v-9c0 -35.333 16.333 -53 49 -53h44l39 441h134z" />
    <glyph glyph-name="z" unicode="z" horiz-adv-x="527" 
d="M226 67h229l-6 -67h-431l283 441h-227l6 67h429z" />
    <glyph glyph-name="braceleft" unicode="{" horiz-adv-x="358" 
d="M343 670h-47.001c-11.333 0 -21.666 -5.5 -30.999 -16.5s-14.666 -25.167 -15.999 -42.5l-19 -219c-4.66699 -54.667 -32 -99 -82 -133c40 -30.667 60 -69.334 60 -116.001c0 -2.66699 -0.166992 -5.33398 -0.5 -8.00098s-0.5 -5.33398 -0.5 -8.00098l-20 -222v-8
c0 -15.333 3.5 -27.666 10.5 -36.999s15.833 -14 26.5 -14h47l-6 -67h-63c-22 0 -42.167 3.16699 -60.5 9.5s-34 15 -47 26s-23 24.333 -30 40s-10.5 32.834 -10.5 51.501v8c0 2.66699 0.333008 5.33398 1 8.00098l22 244v7c0 18 -6.33301 33.333 -19 46
s-28.334 19 -47.001 19l3 40c10 0 19.5 2 28.5 6s17.167 9.16699 24.5 15.5s13.333 13.833 18 22.5s7.33398 18 8.00098 28l21 244c2 21.333 7.66699 40.833 17 58.5s21.666 32.667 36.999 45s33 22 53 29s41.333 10.5 64 10.5h64z" />
    <glyph glyph-name="bar" unicode="|" horiz-adv-x="146" 
d="M29 -252v1002h85v-1002h-85z" />
    <glyph glyph-name="braceright" unicode="}" horiz-adv-x="357" 
d="M15 -154l47.002 0.00292969c11.333 0 21.666 5.5 30.999 16.5s14.666 25.167 15.999 42.5l19 219c4.66699 54.667 32 99 82 133c-40 30 -60 68.667 -60 116v7.5c0 2.33301 0.333008 5.16602 1 8.49902l20 222v8c0 15.333 -3.5 27.666 -10.5 36.999s-15.833 14 -26.5 14
h-47l6 67h63c44 0 79.667 -11.833 107 -35.5s41 -54.5 41 -92.5c0 -2.66699 -0.166992 -5.16699 -0.5 -7.5s-0.5 -4.83301 -0.5 -7.5l-22 -244v-7c0 -18 6.33301 -33.333 19 -46s28.334 -19 47.001 -19l-3 -40c-10 0 -19.667 -2 -29 -6s-17.5 -9.33301 -24.5 -16
s-12.833 -14.167 -17.5 -22.5s-7.33398 -17.5 -8.00098 -27.5l-21 -244c-2 -22 -7.83301 -41.667 -17.5 -59s-22 -32.333 -37 -45s-32.5 -22.334 -52.5 -29.001s-41.333 -10 -64 -10h-64z" />
    <glyph glyph-name="asciitilde" unicode="~" horiz-adv-x="728" 
d="M713 435c-3.33301 -22 -10.8301 -43.001 -22.4971 -63.001s-26.5 -37.833 -44.5 -53.5s-38.333 -28 -61 -37s-46.334 -13.5 -71.001 -13.5c-30.667 0 -59.667 7.66699 -87 23l-167 92c-18 10 -37.333 15 -58 15c-26 0 -48.333 -7.66699 -67 -23
s-30.334 -39.333 -35.001 -72l-84 10c2.66699 26.667 9.5 50.5 20.5 71.5s24.667 38.833 41 53.5s35.166 25.834 56.499 33.501s44 11.5 68 11.5c35.333 0 68.666 -8.66699 99.999 -26l167 -92c14.667 -8 30 -12 46 -12c14 0 27.5 2.83301 40.5 8.5s24.833 13 35.5 22
s19.334 19 26.001 30s10.667 21.5 12 31.5l84 -10v0z" />
    <glyph glyph-name="nonbreakingspace" unicode="&#xa0;" horiz-adv-x="200" 
 />
    <glyph glyph-name="exclamdown" unicode="&#xa1;" horiz-adv-x="220" 
d="M82 273c0.666992 2.66699 0.999023 5.16699 0.999023 7.5v6.5c0 19.333 -10.333 29 -31 29l6 71c43.333 0 73.833 -8.33301 91.5 -25s26.834 -46.667 27.501 -90l-17 -403h39l-6 -71h-179zM59.999 470c0 18 6.33301 33.333 19 46s28 19 46 19s33.333 -6.33301 46 -19
s19 -28 19 -46s-6.33301 -33.333 -19 -46s-28 -19 -46 -19s-33.333 6.33301 -46 19s-19 28 -19 46z" />
    <glyph glyph-name="cent" unicode="&#xa2;" horiz-adv-x="370" 
d="M355 555l-87.002 0.000976562l-32 -366c28.667 15.333 44.334 37.666 47.001 66.999h67c-1.33301 -16 -5.33301 -31.5 -12 -46.5s-15.334 -28.667 -26.001 -41s-23 -22.833 -37 -31.5s-29 -15 -45 -19l-10 -118h-67l10 114c-22 1.33301 -42.333 5.5 -61 12.5
s-34.667 16.333 -48 28s-23.833 25.167 -31.5 40.5s-11.5 32 -11.5 50l20 235c2 20 7.83301 38.333 17.5 55s22.334 31.334 38.001 44.001s33.834 22.667 54.501 30s42.667 11.666 66 12.999l10 115h67l-10 -115h87zM200.998 553.001
c-21.333 -9.33301 -33 -28.001 -35 -56.001l-23 -262c0 -10 2 -18.667 6 -26s10.667 -13.666 20 -18.999z" />
    <glyph glyph-name="sterling" unicode="&#xa3;" horiz-adv-x="495" 
d="M415 594c0 2 0.166992 3.83203 0.5 5.49902s0.5 3.5 0.5 5.5c0 20 -6.83301 36.167 -20.5 48.5s-30.834 18.5 -51.501 18.5c-23.333 0 -42.833 -7.33301 -58.5 -22s-24.5 -33.334 -26.5 -56.001l-19 -217h102l-5 -67h-103l-14 -168c-2 -26.667 -12.667 -51.667 -32 -75
h214l-6 -67h-382l6 67h17c28 0 43.667 16.667 47 50l17 193h-59l5 67h60l19 217c2 20.667 8.33301 39.834 19 57.501s24.5 32.834 41.5 45.501s36.5 22.5 58.5 29.5s45 10.5 69 10.5h38c18 0 35 -3.33301 51 -10s29.833 -16 41.5 -28s20.834 -26 27.501 -42s10 -33 10 -51
v-12h-67z" />
    <glyph glyph-name="currency" unicode="&#xa4;" horiz-adv-x="480" 
d="M403 594l-0.000976562 6.99805c0 21.333 -7 38 -21 50s-30.667 18 -50 18c-22.667 0 -42 -6.66699 -58 -20s-25 -31.666 -27 -54.999l-12 -146h172l-43 -67h-135l-2 -26h121l-43 -66h-84l-15 -164v-8c0 -14.667 3.5 -26.667 10.5 -36s15.833 -14 26.5 -14h88l-6 -67h-88
c-22 0 -43 3.16699 -63 9.5s-37.5 15.166 -52.5 26.499s-26.833 24.833 -35.5 40.5s-13 33.167 -13 52.5v6.5c0 2.33301 0.333008 4.5 1 6.5l13 147h-73l42 66h37l2 26h-73l43 67h36l11 130c2 24 8.33301 45.833 19 65.5s24.5 36.334 41.5 50.001s36.5 24.334 58.5 32.001
s45.667 11.5 71 11.5h37c18 0 35 -3.33301 51 -10s29.833 -16 41.5 -28s20.834 -26 27.501 -42s10 -33 10 -51v-12h-66z" />
    <glyph glyph-name="yen" unicode="&#xa5;" horiz-adv-x="515" 
d="M495 394h-89c-6 -5.33301 -12.333 -10.166 -19 -14.499s-13.667 -8.16602 -21 -11.499h127l-6 -67h-168l-26 -301h-134l26 301h-171l6 67h131c-6.66699 3.33301 -13 7.16602 -19 11.499s-11.667 9.16602 -17 14.499h-93l6 67h51c-2 10 -3 19.333 -3 28
c0 2.66699 0.166992 5 0.5 7s0.5 4.33301 0.5 7l15 167h-41l5 67h176l-21 -234c-0.666992 -3.33301 -1 -8.33301 -1 -15c0 -20.667 4.83301 -38 14.5 -52s22.167 -21 37.5 -21c16 0 30.333 7.5 43 22.5s20.334 36.5 23.001 64.5l21 235h133l-21 -235
c-0.666992 -14 -3.33398 -27.667 -8.00098 -41h48z" />
    <glyph glyph-name="brokenbar" unicode="&#xa6;" horiz-adv-x="143" 
d="M29 269v480h85v-480h-85zM29 -251v480h85v-480h-85z" />
    <glyph glyph-name="section" unicode="&#xa7;" horiz-adv-x="1297" 
d="M1269 701v-290h-85v204h-50v86h135zM979 343c-2.66699 0 -4.83301 -1 -6.5 -3s-2.5 -4 -2.5 -6c0 -6 3 -9 9 -9h171v-41h-171c-6 0 -9 -3 -9 -9c0 -5.33301 3 -8 9 -8h171v-42h-171c-13.333 0 -25 4.83301 -35 14.5s-15 21.5 -15 35.5c0 10 3.33301 20 10 30
c-6.66699 8 -10 17.667 -10 29c0 13.333 5 24.833 15 34.5s21.667 14.5 35 14.5h171v-40h-171zM368.001 325l0.000976562 -41h-179v-59h-41v109c0 13.333 4.83301 24.833 14.5 34.5s21.5 14.5 35.5 14.5h170v-40h-170c-2.66699 0 -4.83398 -1 -6.50098 -3s-2.5 -4 -2.5 -6
v-9h179zM407.002 383l232.001 0.000976562v-55c0 -16 -5.33301 -30 -16 -42s-24 -18.667 -40 -20l38 -41h-56l-38 41h-59v41h109c5.33301 0 10.166 2.16699 14.499 6.5s6.5 9.16602 6.5 14.499v14h-150v-117h-41v158zM724.003 343.001
c-2.66699 0 -4.83301 -1.00098 -6.5 -3.00098s-2.5 -4 -2.5 -6c0 -6 3 -9 9 -9h171v-41h-171c-6 0 -9 -3 -9 -9c0 -5.33301 3 -8 9 -8h171v-42h-171c-14 0 -25.833 4.83301 -35.5 14.5s-14.5 21.5 -14.5 35.5c0 10.667 3 20.667 9 30c-6 6.66699 -9 16.334 -9 29.001
c0 13.333 4.83301 24.833 14.5 34.5s21.5 14.5 35.5 14.5h171v-40h-171zM1016 198v-41h-115v-76h49v-41h-91v117h-70v41h227zM1189 81c14.667 0 25.667 6 33 18h-177v20c0 22 7.83301 40.667 23.5 56s34.167 23 55.5 23h145v-41h-145c-14 0 -24.667 -6 -32 -18h177v-20
c0 -22 -7.83301 -40.667 -23.5 -56s-34.5 -23 -56.5 -23h-144v41h144zM250.004 139v-40h-180v-59h-41v109c0 13.333 4.83301 24.833 14.5 34.5s21.5 14.5 35.5 14.5h171v-41h-171c-6 0 -9 -2.66699 -9 -8v-10h180zM754.004 40h-60.999c-4.66699 18 -11.5 34 -20.5 48
s-21.167 27 -36.5 39c-20 15.333 -41.667 24.666 -65 27.999v-115h-41v158h23c19.333 0 38.333 -3.5 57 -10.5s35.667 -16.167 51 -27.5c21.333 -17.333 38.666 -37.666 51.999 -60.999v99h41v-158zM493.005 198v-73c0 -23.333 -8.33301 -43.333 -25 -60
s-36.667 -25 -60 -25h-134v72c0 24 8.33301 44.333 25 61s36.667 25 60 25h134zM359.005 156c-12.667 0 -23.333 -4.16699 -32 -12.5s-13 -18.833 -13 -31.5v-31h94c12 0 22.333 4.16699 31 12.5s13 18.833 13 31.5v31h-93zM164.006 701v-290h-86v204h-49v86h135z
M1075.01 701v-134c0 -21.333 -4.16699 -41.5 -12.5 -60.5s-19.5 -35.5 -33.5 -49.5s-30.5 -25.167 -49.5 -33.5s-39.167 -12.5 -60.5 -12.5h-240v134c0 21.333 4 41.5 12 60.5s19 35.5 33 49.5s30.5 25.167 49.5 33.5s39.167 12.5 60.5 12.5h241zM834.006 615
c-19.333 0 -36 -6.83301 -50 -20.5s-21 -30.167 -21 -49.5v-49h156c19.333 0 35.833 7 49.5 21s20.5 30.667 20.5 50v48h-155zM620.006 701v-134c0 -21.333 -4.16699 -41.5 -12.5 -60.5s-19.5 -35.5 -33.5 -49.5s-30.5 -25.167 -49.5 -33.5s-39.167 -12.5 -60.5 -12.5h-241
v134c0 21.333 4.16699 41.5 12.5 60.5s19.5 35.5 33.5 49.5s30.333 25.167 49 33.5s38.667 12.5 60 12.5h242zM378.006 615c-19.333 0 -36 -6.83301 -50 -20.5s-21 -30.167 -21 -49.5v-49h157c19.333 0 35.833 7 49.5 21s20.5 30.667 20.5 50v48h-156z" />
    <glyph glyph-name="dieresis" unicode="&#xa8;" horiz-adv-x="224" 
d="M127 534v67h67v-67h-67zM29 534v67h67v-67h-67z" />
    <glyph glyph-name="copyright" unicode="&#xa9;" horiz-adv-x="806" 
d="M786 367c0 -52 -10.167 -101.168 -30.5 -147.501s-48 -86.833 -83 -121.5s-75.667 -62.167 -122 -82.5s-95.5 -30.5 -147.5 -30.5s-101.333 10 -148 30s-87.334 47.333 -122.001 82s-62.167 75.167 -82.5 121.5s-30.5 95.833 -30.5 148.5c0 52 10.167 101.333 30.5 148
s47.833 87.334 82.5 122.001s75.334 62.167 122.001 82.5s96 30.5 148 30.5s101.167 -10.167 147.5 -30.5s87 -48 122 -83s62.667 -75.667 83 -122s30.5 -95.5 30.5 -147.5zM719 366.999c0 43.333 -8.33301 84.166 -25 122.499s-39.334 71.833 -68.001 100.5
s-62.167 51.334 -100.5 68.001s-79.166 25 -122.499 25c-42.667 0 -83.167 -8.33301 -121.5 -25s-71.833 -39.334 -100.5 -68.001s-51.5 -62.167 -68.5 -100.5s-25.5 -79.166 -25.5 -122.499s8.33301 -84 25 -122s39.5 -71.5 68.5 -100.5s62.5 -51.833 100.5 -68.5
s78.667 -25 122 -25s84.166 8.5 122.499 25.5s71.833 39.833 100.5 68.5s51.334 62.167 68.001 100.5s25 78.833 25 121.5zM524 209.999c0 -28 -9.50098 -51.6689 -28.501 -71.002s-42.5 -29 -70.5 -29c-18 0 -35.667 1.83301 -53 5.5s-32.666 9.5 -45.999 17.5
s-24 18.333 -32 31s-12 28 -12 46v315c0 30 10.5 54 31.5 72s47.5 27 79.5 27h120v-47h-109c-19.333 0 -29 -13.333 -29 -40v-327c0 -17.333 4.33301 -30.666 13 -39.999s19.334 -14 32.001 -14c15.333 0 28.666 4.83301 39.999 14.5s17 22.834 17 39.501h47z" />
    <glyph glyph-name="ordfeminine" unicode="&#xaa;" horiz-adv-x="317" 
d="M285 424l-27.998 0.000976562c-28 0 -48.333 8.33301 -61 25c-16.667 -16.667 -37.334 -25 -62.001 -25h-12c-26.667 0 -49.834 6.83301 -69.501 20.5s-29.5 32.167 -29.5 55.5c0 1.33301 0.166992 2.83301 0.5 4.5s0.5 3.16699 0.5 4.5l11 135
c0.666992 12 4.33398 23.333 11.001 34s15.167 19.667 25.5 27s22.166 13.166 35.499 17.499s27 6.5 41 6.5h139l-21 -238c0 -8.66699 1.5 -15.167 4.5 -19.5s9.16699 -6.83301 18.5 -7.5zM145.002 689.001c-16.667 0 -26 -10.002 -28 -30.002l-13 -155
c0 -1.33301 -0.166992 -2.66602 -0.5 -3.99902s-0.5 -2.66602 -0.5 -3.99902c0 -21.333 11.667 -32 35 -32c11.333 0 22 4.5 32 13.5s15.667 19.5 17 31.5l16 180h-58z" />
    <glyph glyph-name="guillemotleft" unicode="&#xab;" horiz-adv-x="303" 
d="M197 249l-82 119l82 120h81l-82 -120l82 -119h-81zM97 249l-82 119l82 120h81l-82 -120l82 -119h-81z" />
    <glyph glyph-name="logicalnot" unicode="&#xac;" horiz-adv-x="504" 
d="M390 202v109h-386v85h471v-194h-85z" />
    <glyph glyph-name="registered" unicode="&#xae;" horiz-adv-x="404" 
d="M384 555c0 -24.667 -4.66895 -47.998 -14.002 -69.998s-22.333 -41.333 -39 -58s-36 -29.834 -58 -39.501s-45.667 -14.5 -71 -14.5s-49 4.83301 -71 14.5s-41.167 22.667 -57.5 39s-29.333 35.5 -39 57.5s-14.5 45.667 -14.5 71s4.83301 49 14.5 71
s22.834 41.333 39.501 58s36 29.667 58 39s45.333 14 70 14s48 -4.83301 70 -14.5s41.333 -22.834 58 -39.501s29.834 -36 39.501 -58s14.5 -45.333 14.5 -70zM338.998 555.002c0 18 -3.66895 35.332 -11.002 51.999s-17.333 31.167 -30 43.5s-27.334 22.166 -44.001 29.499
s-34 11 -52 11c-18.667 0 -36.167 -3.66699 -52.5 -11s-30.666 -17.166 -42.999 -29.499s-22.166 -26.666 -29.499 -42.999s-11 -33.833 -11 -52.5s3.5 -36.334 10.5 -53.001s16.667 -31.167 29 -43.5s26.833 -22.166 43.5 -29.499s34.334 -11 53.001 -11
s36.167 3.66699 52.5 11s30.833 17.166 43.5 29.499s22.667 26.833 30 43.5s11 34.334 11 53.001zM258.996 454.001c-22 0 -35.333 9.33301 -40 28l-23 67v-95h-38v190h-17v19h74c33.333 0 50 -13.333 50 -40v-26c0 -19.333 -10.333 -32 -31 -38l23 -74
c2.66699 -8 8 -12 16 -12v-19h-14zM226.996 633.001c0 7.33301 -4 11 -12 11h-19v-69h19c8 0 12 5 12 15v43z" />
    <glyph glyph-name="macron" unicode="&#xaf;" horiz-adv-x="189" 
d="M29 534v55h129v-55h-129z" />
    <glyph glyph-name="degree" unicode="&#xb0;" horiz-adv-x="195" 
d="M175 659c0 -21.333 -7.66699 -39.666 -23 -54.999s-33.666 -23 -54.999 -23s-39.5 7.66699 -54.5 23s-22.5 33.666 -22.5 54.999s7.5 39.5 22.5 54.5s33.167 22.5 54.5 22.5s39.666 -7.5 54.999 -22.5s23 -33.167 23 -54.5zM140 659c0 11.333 -4.33301 21.166 -13 29.499
s-18.667 12.5 -30 12.5s-21.166 -4.16699 -29.499 -12.5s-12.5 -18.166 -12.5 -29.499s4.16699 -21.333 12.5 -30s18.166 -13 29.499 -13s21.333 4.33301 30 13s13 18.667 13 30z" />
    <glyph glyph-name="plusminus" unicode="&#xb1;" horiz-adv-x="581" 
d="M11 0v85h559v-85h-559zM333 143h-85v196h-237v85h237v198h85v-198h237v-85h-237v-196z" />
    <glyph glyph-name="twosuperior" unicode="&#xb2;" horiz-adv-x="266" 
d="M246 671c0 -32.667 -14.667 -64.667 -44 -96l-89 -94h106l-4 -40h-196l3 40l126 129c17.333 17.333 26 36 26 56c0 26.667 -12.333 40 -37 40c-15.333 0 -27.5 -4 -36.5 -12s-14.167 -19 -15.5 -33l-1 -14h-40l1 14c2 28 13.167 49.167 33.5 63.5s44.5 21.5 72.5 21.5
c63.333 0 95 -25 95 -75z" />
    <glyph glyph-name="threesuperior" unicode="&#xb3;" horiz-adv-x="266" 
d="M165 598c41.333 -12 61.999 -36.334 61.999 -73.001v-8l-8 -97c-1.33301 -11.333 -5.16602 -22.166 -11.499 -32.499s-14.666 -19.5 -24.999 -27.5s-22 -14.333 -35 -19s-26.833 -7 -41.5 -7h-13c-22.667 0 -41.334 7.66699 -56.001 23s-22 34 -22 56v7h40
c0 -12.667 3.66699 -23.5 11 -32.5s17.666 -13.5 30.999 -13.5c24.667 0 38.334 15.333 41.001 46l10 118c0 16 -7.33301 24 -22 24h-64l83 143h-96l3 40h198z" />
    <glyph glyph-name="acute" unicode="&#xb4;" horiz-adv-x="225" 
d="M37 534l-29 60l182 85l28 -61z" />
    <glyph glyph-name="mu" unicode="&#xb5;" horiz-adv-x="503" 
d="M486 0l-76 0.00195312c-39.333 0 -70.666 9.33301 -93.999 28c-28.667 -18.667 -59.667 -28 -93 -28c-18.667 0 -36 2 -52 6l-11 -130h-134l49 565h-35l6 66h168l-30 -364c0 -22.667 5 -40.834 15 -54.501s23.333 -20.5 40 -20.5c12.667 0 26.667 4.66699 42 14l37 425
h133l-34 -405c0 -8 0.666992 -14.167 2 -18.5s4.66602 -7.83301 9.99902 -10.5s12.833 -4.33398 22.5 -5.00098s23.167 -1 40.5 -1z" />
    <glyph glyph-name="mu" unicode="&#x3bc;" horiz-adv-x="503" 
d="M486 0l-76 0.00195312c-39.333 0 -70.666 9.33301 -93.999 28c-28.667 -18.667 -59.667 -28 -93 -28c-18.667 0 -36 2 -52 6l-11 -130h-134l49 565h-35l6 66h168l-30 -364c0 -22.667 5 -40.834 15 -54.501s23.333 -20.5 40 -20.5c12.667 0 26.667 4.66699 42 14l37 425
h133l-34 -405c0 -8 0.666992 -14.167 2 -18.5s4.66602 -7.83301 9.99902 -10.5s12.833 -4.33398 22.5 -5.00098s23.167 -1 40.5 -1z" />
    <glyph glyph-name="paragraph" unicode="&#xb6;" horiz-adv-x="480" 
d="M408 670l0.00195312 -791.999h-66v792h-35v-792h-66v432h-18c-32.667 0 -62.334 5.33301 -89.001 16s-49.334 25.5 -68.001 44.5s-33 41.5 -43 67.5s-15 54.667 -15 86s5.16699 60.166 15.5 86.499s24.833 48.833 43.5 67.5s41.167 33.167 67.5 43.5
s55.833 15.5 88.5 15.5h236v-67h-51z" />
    <glyph glyph-name="periodcentered" unicode="&#xb7;" horiz-adv-x="164" 
d="M143 300c0 -16.667 -6 -31 -18 -43s-26.667 -18 -44 -18c-16.667 0 -31 6 -43 18s-18 26.333 -18 43c0 17.333 5.83301 32 17.5 44s26.167 18 43.5 18s32 -6 44 -18s18 -26.667 18 -44z" />
    <glyph glyph-name="cedilla" unicode="&#xb8;" horiz-adv-x="223" 
d="M205 -128c0 -25.333 -8.5 -46.333 -25.5 -63s-38.167 -25 -63.5 -25h-102v66h102c14.667 0 22 7.33301 22 22s-7.33301 22 -22 22h-75l56 132h73l-29 -68c19.333 -4.66699 34.833 -15.167 46.5 -31.5s17.5 -34.5 17.5 -54.5z" />
    <glyph glyph-name="onesuperior" unicode="&#xb9;" horiz-adv-x="193" 
d="M165 444h-146l3 40h33l20 225h-34l4 40h114l-23 -265h33z" />
    <glyph glyph-name="ordmasculine" unicode="&#xba;" horiz-adv-x="281" 
d="M246 528c-1.33301 -12 -5.16895 -23.166 -11.502 -33.499s-14.5 -19.333 -24.5 -27s-21.667 -13.667 -35 -18s-27.333 -6.5 -42 -6.5h-12c-27.333 0 -50.666 7 -69.999 21s-29 32.333 -29 55c0 1.33301 0.166992 2.83301 0.5 4.5s0.5 3.16699 0.5 4.5l12 135
c0.666992 12 4.33398 23.333 11.001 34s15 19.667 25 27s21.5 13.166 34.5 17.499s26.833 6.5 41.5 6.5h13c26.667 0 49.667 -7.33301 69 -22s29 -33.667 29 -57v-6zM176.997 673.001c0 22.667 -9.00098 34 -27.001 34c-22 0 -34 -14.667 -36 -44l-11 -135
c0 -2 -0.166992 -3.83301 -0.5 -5.5s-0.5 -3.16699 -0.5 -4.5c0 -23.333 9.66699 -35 29 -35c10.667 0 18.834 3.5 24.501 10.5s9.16699 18.5 10.5 34.5l11 135v10z" />
    <glyph glyph-name="guillemotright" unicode="&#xbb;" horiz-adv-x="281" 
d="M197 249l-82 119l82 120h81l-82 -120l82 -119h-81zM97 249l-82 119l82 120h81l-82 -120l82 -119h-81z" />
    <glyph glyph-name="onequarter" unicode="&#xbc;" horiz-adv-x="556" 
d="M102 0h-92l438 737h91zM223 395h-164l4 45h37l22 250h-38l4 45h127l-25 -295h37zM480 1h-51l-11 -118h-89l10 118h-181l204 340h96l-25 -295h51zM277 46h66l11 128z" />
    <glyph glyph-name="onehalf" unicode="&#xbd;" horiz-adv-x="567" 
d="M110 0h-92l438 737h91zM229 393h-164l4 45h37l22 250h-38l4 45h127l-25 -295h37zM530 259c0 -36.667 -16.333 -72.333 -49 -107l-99 -104h117l-4 -45h-219l4 44l141 144c19.333 20.667 29 41 29 61c0 30.667 -13.333 46 -40 46c-14.667 0 -27.667 -4.5 -39 -13.5
s-18 -21.167 -20 -36.5l-2 -15h-44l1 15c2 30 14.167 53.333 36.5 70s49.5 25 81.5 25s57.667 -7 77 -21s29 -35 29 -63z" />
    <glyph glyph-name="threequarters" unicode="&#xbe;" horiz-adv-x="605" 
d="M151 0h-92l438 737h91zM178 566c20 -5.33301 36.4961 -15.334 49.4961 -30.001s19.5 -32 19.5 -52v-8l-10 -109c-1.33301 -13.333 -5.66602 -25.666 -12.999 -36.999s-16.666 -21.333 -27.999 -30s-24.166 -15.5 -38.499 -20.5s-29.5 -7.5 -45.5 -7.5h-15
c-25.333 0 -46.166 8.5 -62.499 25.5s-24.5 37.833 -24.5 62.5v7h45v-5c0 -13.333 4.5 -24.333 13.5 -33s19.833 -13 32.5 -13c28 0 43.667 17 47 51l11 132c0 18 -8.33301 27 -25 27h-71l92 159h-107l4 45h220zM514.996 1.99902h-51l-11 -118h-89l10 118h-181l204 340h96
l-25 -295h51zM311.996 46.999h66l11 128z" />
    <glyph glyph-name="questiondown" unicode="&#xbf;" horiz-adv-x="404" 
d="M5 -28c0 65.333 35.334 123.332 106.001 173.999c10 5.33301 23 12.833 39 22.5l56 34.5c16 10 28.667 18.5 38 25.5s16.333 13.667 21 20s7.66699 12.833 9 19.5s2.66602 15 3.99902 25l8 85h72l-12 -128c-1.33301 -16 -3.83301 -30.5 -7.5 -43.5
s-8.66699 -25.167 -15 -36.5s-14.833 -22.166 -25.5 -32.499s-23.667 -20.833 -39 -31.5c-33.333 -23.333 -56.833 -45.5 -70.5 -66.5s-20.5 -47.5 -20.5 -79.5c0 -24.667 7.83301 -45.5 23.5 -62.5s36.167 -25.5 61.5 -25.5h97l-6 -71h-115c-32 0 -61.667 4.16699 -89 12.5
s-51 20 -71 35s-35.667 33 -47 54s-17 44.167 -17 69.5zM257.001 472.999c0 18 6.33301 33.333 19 46s28 19 46 19s33.333 -6.33301 46 -19s19 -28 19 -46s-6.33301 -33.333 -19 -46s-28 -19 -46 -19s-33.333 6.33301 -46 19s-19 28 -19 46z" />
    <glyph glyph-name="Agrave" unicode="&#xc0;" 
d="M418 98c0 -19.333 9.6709 -29.6641 29.0039 -30.9971l-6 -67h-53c-32.667 0 -58.334 8 -77.001 24s-28 38.333 -28 67c0 5.33301 0.333008 9.66602 1 12.999l15 170h-121l-24 -274h-133l51 582c2 24 8.66699 45.5 20 64.5s26.333 35.167 45 48.5s40 23.666 64 30.999
s50 11 78 11c25.333 0 49.166 -3.16699 71.499 -9.5s41.666 -15.5 57.999 -27.5s29.166 -26.667 38.499 -44s14 -36.666 14 -57.999c0 -2.66699 -0.166992 -5.33398 -0.5 -8.00098s-0.5 -5.33398 -0.5 -8.00098zM328.004 610.002c0 17.333 -4.83398 31.666 -14.501 42.999
s-23.167 17 -40.5 17c-18 0 -33.167 -6.66699 -45.5 -20s-19.166 -29.666 -20.499 -48.999l-23 -260h121l23 260v9zM350.003 763.002l-181 84l28 61l182 -85z" />
    <glyph glyph-name="Aacute" unicode="&#xc1;" 
d="M418 98c0 -19.333 9.6709 -29.6641 29.0039 -30.9971l-6 -67h-53c-32.667 0 -58.334 8 -77.001 24s-28 38.333 -28 67c0 5.33301 0.333008 9.66602 1 12.999l15 170h-121l-24 -274h-133l51 582c2 24 8.66699 45.5 20 64.5s26.333 35.167 45 48.5s40 23.666 64 30.999
s50 11 78 11c25.333 0 49.166 -3.16699 71.499 -9.5s41.666 -15.5 57.999 -27.5s29.166 -26.667 38.499 -44s14 -36.666 14 -57.999c0 -2.66699 -0.166992 -5.33398 -0.5 -8.00098s-0.5 -5.33398 -0.5 -8.00098zM328.004 610.002c0 17.333 -4.83398 31.666 -14.501 42.999
s-23.167 17 -40.5 17c-18 0 -33.167 -6.66699 -45.5 -20s-19.166 -29.666 -20.499 -48.999l-23 -260h121l23 260v9zM229.003 763.002l-29 60l182 85l28 -61z" />
    <glyph glyph-name="Acircumflex" unicode="&#xc2;" 
d="M418 98c0 -19.333 9.6709 -29.6641 29.0039 -30.9971l-6 -67h-53c-32.667 0 -58.334 8 -77.001 24s-28 38.333 -28 67c0 5.33301 0.333008 9.66602 1 12.999l15 170h-121l-24 -274h-133l51 582c2 24 8.66699 45.5 20 64.5s26.333 35.167 45 48.5s40 23.666 64 30.999
s50 11 78 11c25.333 0 49.166 -3.16699 71.499 -9.5s41.666 -15.5 57.999 -27.5s29.166 -26.667 38.499 -44s14 -36.666 14 -57.999c0 -2.66699 -0.166992 -5.33398 -0.5 -8.00098s-0.5 -5.33398 -0.5 -8.00098zM328.004 610.002c0 17.333 -4.83398 31.666 -14.501 42.999
s-23.167 17 -40.5 17c-18 0 -33.167 -6.66699 -45.5 -20s-19.166 -29.666 -20.499 -48.999l-23 -260h121l23 260v9zM384.003 752.002l-92 67l-93 -67l-39 54l132 96l131 -96z" />
    <glyph glyph-name="Atilde" unicode="&#xc3;" 
d="M418 98c0 -19.333 9.6709 -29.6641 29.0039 -30.9971l-6 -67h-53c-32.667 0 -58.334 8 -77.001 24s-28 38.333 -28 67c0 5.33301 0.333008 9.66602 1 12.999l15 170h-121l-24 -274h-133l51 582c2 24 8.66699 45.5 20 64.5s26.333 35.167 45 48.5s40 23.666 64 30.999
s50 11 78 11c25.333 0 49.166 -3.16699 71.499 -9.5s41.666 -15.5 57.999 -27.5s29.166 -26.667 38.499 -44s14 -36.666 14 -57.999c0 -2.66699 -0.166992 -5.33398 -0.5 -8.00098s-0.5 -5.33398 -0.5 -8.00098zM328.004 610.002c0 17.333 -4.83398 31.666 -14.501 42.999
s-23.167 17 -40.5 17c-18 0 -33.167 -6.66699 -45.5 -20s-19.166 -29.666 -20.499 -48.999l-23 -260h121l23 260v9zM420.003 832.002c-19.333 -42 -52.665 -63 -99.998 -63c-16.667 0 -31.667 3.33301 -45 10l-21 10c-4.66699 2.66699 -10.334 4 -17.001 4
c-18.667 0 -32 -8.33301 -40 -25l-60 28c19.333 41.333 52.333 62 99 62c15.333 0 30.666 -3 45.999 -9l21 -9c5.33301 -2.66699 11.333 -4 18 -4c18 0 30.667 8 38 24l61 -28v0z" />
    <glyph glyph-name="Adieresis" unicode="&#xc4;" 
d="M418 98c0 -19.333 9.6709 -29.6641 29.0039 -30.9971l-6 -67h-53c-32.667 0 -58.334 8 -77.001 24s-28 38.333 -28 67c0 5.33301 0.333008 9.66602 1 12.999l15 170h-121l-24 -274h-133l51 582c2 24 8.66699 45.5 20 64.5s26.333 35.167 45 48.5s40 23.666 64 30.999
s50 11 78 11c25.333 0 49.166 -3.16699 71.499 -9.5s41.666 -15.5 57.999 -27.5s29.166 -26.667 38.499 -44s14 -36.666 14 -57.999c0 -2.66699 -0.166992 -5.33398 -0.5 -8.00098s-0.5 -5.33398 -0.5 -8.00098zM328.004 610.002c0 17.333 -4.83398 31.666 -14.501 42.999
s-23.167 17 -40.5 17c-18 0 -33.167 -6.66699 -45.5 -20s-19.166 -29.666 -20.499 -48.999l-23 -260h121l23 260v9zM296.003 763.002v67h67v-67h-67zM198.003 763.002v67h67v-67h-67z" />
    <glyph glyph-name="Aring" unicode="&#xc5;" 
d="M418 98c0 -19.333 9.6709 -29.6641 29.0039 -30.9971l-6 -67h-53c-32.667 0 -58.334 8 -77.001 24s-28 38.333 -28 67c0 5.33301 0.333008 9.66602 1 12.999l15 170h-121l-24 -274h-133l51 582c2 24 8.66699 45.5 20 64.5s26.333 35.167 45 48.5s40 23.666 64 30.999
s50 11 78 11c25.333 0 49.166 -3.16699 71.499 -9.5s41.666 -15.5 57.999 -27.5s29.166 -26.667 38.499 -44s14 -36.666 14 -57.999c0 -2.66699 -0.166992 -5.33398 -0.5 -8.00098s-0.5 -5.33398 -0.5 -8.00098zM328.004 610.002c0 17.333 -4.83398 31.666 -14.501 42.999
s-23.167 17 -40.5 17c-18 0 -33.167 -6.66699 -45.5 -20s-19.166 -29.666 -20.499 -48.999l-23 -260h121l23 260v9zM392.003 862.002c0 -26.667 -9.33301 -49.334 -28 -68.001s-41.334 -28 -68.001 -28c-13.333 0 -25.666 2.5 -36.999 7.5s-21.5 11.833 -30.5 20.5
s-16 18.834 -21 30.501s-7.5 24.167 -7.5 37.5s2.5 25.833 7.5 37.5s12 21.834 21 30.501s19.167 15.5 30.5 20.5s23.666 7.5 36.999 7.5c26.667 0 49.334 -9.33301 68.001 -28s28 -41.334 28 -68.001zM351.003 862.002c0 14.667 -5.33301 27.334 -16 38.001
s-23.667 16 -39 16c-14.667 0 -27.334 -5.33301 -38.001 -16s-16 -23.334 -16 -38.001s5.33301 -27.334 16 -38.001s23.334 -16 38.001 -16c15.333 0 28.333 5.33301 39 16s16 23.334 16 38.001z" />
    <glyph glyph-name="AE" unicode="&#xc6;" horiz-adv-x="697" 
d="M677 670h-211l-24 -272h146l-6 -63h-145l-24 -268h211l-6 -67h-344l29 335h-117l-29 -335h-134l51 578c2 24 8.5 45.667 19.5 65s25.667 36 44 50s39.5 24.833 63.5 32.5s50 11.5 78 11.5h403zM324 579c0 2.66699 0.166992 5.16699 0.5 7.5s0.5 4.5 0.5 6.5
c0 23.333 -5 41.333 -15 54s-22.333 19 -37 19c-18 0 -33 -8.66699 -45 -26s-19 -38 -21 -62l-15 -180h116z" />
    <glyph glyph-name="Ccedilla" unicode="&#xc7;" horiz-adv-x="418" 
d="M400 670l-155 -0.000976562c-12 0 -22.667 -5.5 -32 -16.5s-14.666 -25.167 -15.999 -42.5l-41 -469c0 -2.66699 -0.166992 -5 -0.5 -7s-0.5 -4 -0.5 -6c0 -19.333 5.5 -34.666 16.5 -45.999s26.5 -17 46.5 -17c21.333 0 40.333 7.16699 57 21.5s26 32.5 28 54.5h67
c-1.33301 -19.333 -7.33301 -37.5 -18 -54.5s-24 -32 -40 -45s-33.833 -23.333 -53.5 -31s-39.167 -11.5 -58.5 -11.5c-60.667 0 -105.5 12.167 -134.5 36.5s-43.5 55.5 -43.5 93.5c0 2 0.166992 4 0.5 6s0.5 4 0.5 6l39 452c2 21.333 7.66699 40.833 17 58.5
s21.666 32.667 36.999 45s33 22 53 29s41.333 10.5 64 10.5h173zM252 -128.001c0 -25.333 -8.5 -46.333 -25.5 -63s-38.167 -25 -63.5 -25h-102v66h102c14.667 0 22 7.33301 22 22s-7.33301 22 -22 22h-75l56 132h73l-29 -68c19.333 -4.66699 34.833 -15.167 46.5 -31.5
s17.5 -34.5 17.5 -54.5z" />
    <glyph glyph-name="Egrave" unicode="&#xc8;" horiz-adv-x="420" 
d="M405 670l-135 0.000976562c-19.333 0 -36.333 -6.83301 -51 -20.5s-22.667 -29.834 -24 -48.501l-17 -199h167l-5 -67h-168l-18 -200c0 -1.33301 -0.166992 -2.5 -0.5 -3.5s-0.5 -2.16699 -0.5 -3.5c0 -17.333 6 -32 18 -44s27.333 -18 46 -18h135l-6 -66h-182
c-20 0 -38.5 3.5 -55.5 10.5s-32 16.833 -45 29.5s-23.167 27.334 -30.5 44.001s-11 35 -11 55v7.5c0 2.33301 0.333008 5.16602 1 8.49902l37 427c2 21.333 7.83301 41.333 17.5 60s22.334 35 38.001 49s33.167 25.167 52.5 33.5s39.666 12.5 60.999 12.5h182zM340 763.001
l-181 84l28 61l182 -85z" />
    <glyph glyph-name="Eacute" unicode="&#xc9;" horiz-adv-x="420" 
d="M405 670l-135 0.000976562c-19.333 0 -36.333 -6.83301 -51 -20.5s-22.667 -29.834 -24 -48.501l-17 -199h167l-5 -67h-168l-18 -200c0 -1.33301 -0.166992 -2.5 -0.5 -3.5s-0.5 -2.16699 -0.5 -3.5c0 -17.333 6 -32 18 -44s27.333 -18 46 -18h135l-6 -66h-182
c-20 0 -38.5 3.5 -55.5 10.5s-32 16.833 -45 29.5s-23.167 27.334 -30.5 44.001s-11 35 -11 55v7.5c0 2.33301 0.333008 5.16602 1 8.49902l37 427c2 21.333 7.83301 41.333 17.5 60s22.334 35 38.001 49s33.167 25.167 52.5 33.5s39.666 12.5 60.999 12.5h182zM197 763.001
l-29 60l182 85l28 -61z" />
    <glyph glyph-name="Ecircumflex" unicode="&#xca;" horiz-adv-x="420" 
d="M405 670l-135 0.000976562c-19.333 0 -36.333 -6.83301 -51 -20.5s-22.667 -29.834 -24 -48.501l-17 -199h167l-5 -67h-168l-18 -200c0 -1.33301 -0.166992 -2.5 -0.5 -3.5s-0.5 -2.16699 -0.5 -3.5c0 -17.333 6 -32 18 -44s27.333 -18 46 -18h135l-6 -66h-182
c-20 0 -38.5 3.5 -55.5 10.5s-32 16.833 -45 29.5s-23.167 27.334 -30.5 44.001s-11 35 -11 55v7.5c0 2.33301 0.333008 5.16602 1 8.49902l37 427c2 21.333 7.83301 41.333 17.5 60s22.334 35 38.001 49s33.167 25.167 52.5 33.5s39.666 12.5 60.999 12.5h182zM362 752.001
l-92 67l-93 -67l-39 54l132 96l131 -96z" />
    <glyph glyph-name="Edieresis" unicode="&#xcb;" horiz-adv-x="420" 
d="M405 670l-135 0.000976562c-19.333 0 -36.333 -6.83301 -51 -20.5s-22.667 -29.834 -24 -48.501l-17 -199h167l-5 -67h-168l-18 -200c0 -1.33301 -0.166992 -2.5 -0.5 -3.5s-0.5 -2.16699 -0.5 -3.5c0 -17.333 6 -32 18 -44s27.333 -18 46 -18h135l-6 -66h-182
c-20 0 -38.5 3.5 -55.5 10.5s-32 16.833 -45 29.5s-23.167 27.334 -30.5 44.001s-11 35 -11 55v7.5c0 2.33301 0.333008 5.16602 1 8.49902l37 427c2 21.333 7.83301 41.333 17.5 60s22.334 35 38.001 49s33.167 25.167 52.5 33.5s39.666 12.5 60.999 12.5h182zM299 763.001
v67h67v-67h-67zM201 763.001v67h67v-67h-67z" />
    <glyph glyph-name="Igrave" unicode="&#xcc;" horiz-adv-x="228" 
d="M149 0h-134l64 737h134zM190 763l-181 84l28 61l182 -85z" />
    <glyph glyph-name="Iacute" unicode="&#xcd;" horiz-adv-x="228" 
d="M149 0h-134l64 737h134zM107 763l-29 60l182 85l28 -61z" />
    <glyph glyph-name="Icircumflex" unicode="&#xce;" horiz-adv-x="228" 
d="M149 0h-134l64 737h134zM245 752l-92 67l-93 -67l-39 54l132 96l131 -96z" />
    <glyph glyph-name="Idieresis" unicode="&#xcf;" horiz-adv-x="228" 
d="M149 0h-134l64 737h134zM165 763v67h67v-67h-67zM67 763v67h67v-67h-67z" />
    <glyph glyph-name="Eth" unicode="&#xd0;" horiz-adv-x="484" 
d="M421 142c-2 -20.667 -7.33398 -39.667 -16.001 -57s-20.167 -32.333 -34.5 -45s-31.166 -22.5 -50.499 -29.5s-40 -10.5 -62 -10.5h-227l30 335h-37l5 63h37l24 272h-40l5 67h268c18 0 35.167 -3.5 51.5 -10.5s31 -16.5 44 -28.5s23.333 -26 31 -42s11.5 -33 11.5 -51
v-11zM326.999 598c0 8 -1.66797 16.166 -5.00098 24.499s-7.66602 16 -12.999 23s-11.833 12.833 -19.5 17.5s-15.5 7 -23.5 7h-42l-24 -272h58l-6 -63h-58l-23 -268h43c19.333 0 36 7.33301 50 22s22 32.334 24 53.001l39 452v4z" />
    <glyph glyph-name="Ntilde" unicode="&#xd1;" horiz-adv-x="486" 
d="M419 98c0 -19.333 9.66699 -29.6719 29 -31.0049l-6 -67h-54c-32 0 -57.5 8.16699 -76.5 24.5s-28.5 38.5 -28.5 66.5v6.5c0 2.33301 0.333008 4.5 1 6.5l42 475c0 2.66699 0.166992 5.16699 0.5 7.5s0.5 4.5 0.5 6.5c0 22.667 -4.83301 40.334 -14.5 53.001
s-22.167 19 -37.5 19h-58l-58 -665h-134l58 670h-40l6 67h232c26 0 50 -3.33301 72 -10s41 -16.167 57 -28.5s28.5 -27.166 37.5 -44.499s13.5 -36.666 13.5 -57.999c0 -3.33301 -0.166992 -6.16602 -0.5 -8.49902s-0.5 -5.16602 -0.5 -8.49902zM409 831.994
c-19.333 -42 -52.665 -63 -99.998 -63c-16.667 0 -31.667 3.33301 -45 10l-21 10c-4.66699 2.66699 -10.334 4 -17.001 4c-18.667 0 -32 -8.33301 -40 -25l-60 28c19.333 41.333 52.333 62 99 62c15.333 0 30.666 -3 45.999 -9l21 -9c5.33301 -2.66699 11.333 -4 18 -4
c18 0 30.667 8 38 24l61 -28v0z" />
    <glyph glyph-name="Ograve" unicode="&#xd2;" horiz-adv-x="487" 
d="M426 155c-2 -22.667 -8.33203 -43.5 -18.999 -62.5s-24.5 -35.333 -41.5 -49s-36.833 -24.334 -59.5 -32.001s-47 -11.5 -73 -11.5h-44c-24 0 -46.333 3.5 -67 10.5s-38.334 16.667 -53.001 29s-26.167 27 -34.5 44s-12.5 35.833 -12.5 56.5
c0 6.66699 0.333008 11.667 1 15l37 427c2 22 8.33301 42.5 19 61.5s24.5 35.5 41.5 49.5s37 24.833 60 32.5s47.5 11.5 73.5 11.5h43c24.667 0 47.167 -3.5 67.5 -10.5s38 -16.667 53 -29s26.667 -27.166 35 -44.499s12.5 -36 12.5 -56
c0 -2.66699 -0.166992 -5.16699 -0.5 -7.5s-0.5 -4.83301 -0.5 -7.5zM332.001 606c0 17.333 -6 32.335 -18 45.002s-26.667 19 -44 19c-18.667 0 -35.5 -6.83301 -50.5 -20.5s-23.167 -29.834 -24.5 -48.501l-41 -466c0 -1.33301 -0.166992 -2.5 -0.5 -3.5
s-0.5 -2.16699 -0.5 -3.5c0 -17.333 6 -32 18 -44s27.333 -18 46 -18c19.333 0 36.333 6.66699 51 20s22.667 29.666 24 48.999l40 466v5zM344.001 763.002l-181 84l28 61l182 -85z" />
    <glyph glyph-name="Oacute" unicode="&#xd3;" horiz-adv-x="487" 
d="M426 155c-2 -22.667 -8.33203 -43.5 -18.999 -62.5s-24.5 -35.333 -41.5 -49s-36.833 -24.334 -59.5 -32.001s-47 -11.5 -73 -11.5h-44c-24 0 -46.333 3.5 -67 10.5s-38.334 16.667 -53.001 29s-26.167 27 -34.5 44s-12.5 35.833 -12.5 56.5
c0 6.66699 0.333008 11.667 1 15l37 427c2 22 8.33301 42.5 19 61.5s24.5 35.5 41.5 49.5s37 24.833 60 32.5s47.5 11.5 73.5 11.5h43c24.667 0 47.167 -3.5 67.5 -10.5s38 -16.667 53 -29s26.667 -27.166 35 -44.499s12.5 -36 12.5 -56
c0 -2.66699 -0.166992 -5.16699 -0.5 -7.5s-0.5 -4.83301 -0.5 -7.5zM332.001 606c0 17.333 -6 32.335 -18 45.002s-26.667 19 -44 19c-18.667 0 -35.5 -6.83301 -50.5 -20.5s-23.167 -29.834 -24.5 -48.501l-41 -466c0 -1.33301 -0.166992 -2.5 -0.5 -3.5
s-0.5 -2.16699 -0.5 -3.5c0 -17.333 6 -32 18 -44s27.333 -18 46 -18c19.333 0 36.333 6.66699 51 20s22.667 29.666 24 48.999l40 466v5zM218.001 763.002l-29 60l182 85l28 -61z" />
    <glyph glyph-name="Ocircumflex" unicode="&#xd4;" horiz-adv-x="487" 
d="M426 155c-2 -22.667 -8.33203 -43.5 -18.999 -62.5s-24.5 -35.333 -41.5 -49s-36.833 -24.334 -59.5 -32.001s-47 -11.5 -73 -11.5h-44c-24 0 -46.333 3.5 -67 10.5s-38.334 16.667 -53.001 29s-26.167 27 -34.5 44s-12.5 35.833 -12.5 56.5
c0 6.66699 0.333008 11.667 1 15l37 427c2 22 8.33301 42.5 19 61.5s24.5 35.5 41.5 49.5s37 24.833 60 32.5s47.5 11.5 73.5 11.5h43c24.667 0 47.167 -3.5 67.5 -10.5s38 -16.667 53 -29s26.667 -27.166 35 -44.499s12.5 -36 12.5 -56
c0 -2.66699 -0.166992 -5.16699 -0.5 -7.5s-0.5 -4.83301 -0.5 -7.5zM332.001 606c0 17.333 -6 32.335 -18 45.002s-26.667 19 -44 19c-18.667 0 -35.5 -6.83301 -50.5 -20.5s-23.167 -29.834 -24.5 -48.501l-41 -466c0 -1.33301 -0.166992 -2.5 -0.5 -3.5
s-0.5 -2.16699 -0.5 -3.5c0 -17.333 6 -32 18 -44s27.333 -18 46 -18c19.333 0 36.333 6.66699 51 20s22.667 29.666 24 48.999l40 466v5zM376.001 752.002l-92 67l-93 -67l-39 54l132 96l131 -96z" />
    <glyph glyph-name="Otilde" unicode="&#xd5;" horiz-adv-x="487" 
d="M426 155c-2 -22.667 -8.33203 -43.5 -18.999 -62.5s-24.5 -35.333 -41.5 -49s-36.833 -24.334 -59.5 -32.001s-47 -11.5 -73 -11.5h-44c-24 0 -46.333 3.5 -67 10.5s-38.334 16.667 -53.001 29s-26.167 27 -34.5 44s-12.5 35.833 -12.5 56.5
c0 6.66699 0.333008 11.667 1 15l37 427c2 22 8.33301 42.5 19 61.5s24.5 35.5 41.5 49.5s37 24.833 60 32.5s47.5 11.5 73.5 11.5h43c24.667 0 47.167 -3.5 67.5 -10.5s38 -16.667 53 -29s26.667 -27.166 35 -44.499s12.5 -36 12.5 -56
c0 -2.66699 -0.166992 -5.16699 -0.5 -7.5s-0.5 -4.83301 -0.5 -7.5zM332.001 606c0 17.333 -6 32.335 -18 45.002s-26.667 19 -44 19c-18.667 0 -35.5 -6.83301 -50.5 -20.5s-23.167 -29.834 -24.5 -48.501l-41 -466c0 -1.33301 -0.166992 -2.5 -0.5 -3.5
s-0.5 -2.16699 -0.5 -3.5c0 -17.333 6 -32 18 -44s27.333 -18 46 -18c19.333 0 36.333 6.66699 51 20s22.667 29.666 24 48.999l40 466v5zM418.001 832.002c-19.333 -42 -52.665 -63 -99.998 -63c-16.667 0 -31.667 3.33301 -45 10l-21 10
c-4.66699 2.66699 -10.334 4 -17.001 4c-18.667 0 -32 -8.33301 -40 -25l-60 28c19.333 41.333 52.333 62 99 62c15.333 0 30.666 -3 45.999 -9l21 -9c5.33301 -2.66699 11.333 -4 18 -4c18 0 30.667 8 38 24l61 -28v0z" />
    <glyph glyph-name="Odieresis" unicode="&#xd6;" horiz-adv-x="487" 
d="M426 155c-2 -22.667 -8.33203 -43.5 -18.999 -62.5s-24.5 -35.333 -41.5 -49s-36.833 -24.334 -59.5 -32.001s-47 -11.5 -73 -11.5h-44c-24 0 -46.333 3.5 -67 10.5s-38.334 16.667 -53.001 29s-26.167 27 -34.5 44s-12.5 35.833 -12.5 56.5
c0 6.66699 0.333008 11.667 1 15l37 427c2 22 8.33301 42.5 19 61.5s24.5 35.5 41.5 49.5s37 24.833 60 32.5s47.5 11.5 73.5 11.5h43c24.667 0 47.167 -3.5 67.5 -10.5s38 -16.667 53 -29s26.667 -27.166 35 -44.499s12.5 -36 12.5 -56
c0 -2.66699 -0.166992 -5.16699 -0.5 -7.5s-0.5 -4.83301 -0.5 -7.5zM332.001 606c0 17.333 -6 32.335 -18 45.002s-26.667 19 -44 19c-18.667 0 -35.5 -6.83301 -50.5 -20.5s-23.167 -29.834 -24.5 -48.501l-41 -466c0 -1.33301 -0.166992 -2.5 -0.5 -3.5
s-0.5 -2.16699 -0.5 -3.5c0 -17.333 6 -32 18 -44s27.333 -18 46 -18c19.333 0 36.333 6.66699 51 20s22.667 29.666 24 48.999l40 466v5zM295.001 763.002v67h67v-67h-67zM197.001 763.002v67h67v-67h-67z" />
    <glyph glyph-name="multiply" unicode="&#xd7;" horiz-adv-x="567" 
d="M482 537l60 -60l-199 -199l199 -199l-60 -60l-198 199l-199 -199l-60 60l198 199l-75.5 76.5l-122.5 122.5l60 60l198 -199z" />
    <glyph glyph-name="Oslash" unicode="&#xd8;" horiz-adv-x="507" 
d="M450 669c12.667 -20 19.001 -40.668 19.001 -62.001c0 -2 -0.166992 -4.16699 -0.5 -6.5s-0.5 -4.5 -0.5 -6.5l-40 -452c-2 -19.333 -8.16699 -37.666 -18.5 -54.999s-24 -32.5 -41 -45.5s-36.5 -23.167 -58.5 -30.5s-45.333 -11 -70 -11h-38
c-34.667 0 -66.667 7.66699 -96 23l-13 -23h-73l36 68c-12 16.667 -18 36.667 -18 60c0 6 0.333008 10.667 1 14l40 452c2 20.667 8.16699 39.667 18.5 57s24 32.333 41 45s36.5 22.667 58.5 30s45.333 11 70 11h37c35.333 0 67.666 -8 96.999 -24l13 24h73z
M334.001 593.999c0.666992 2.66699 1 5.16602 1 7.49902v6.5c0 18.667 -5.16699 33.834 -15.5 45.501s-23.5 17.5 -39.5 17.5c-16.667 0 -31.667 -6.66699 -45 -20s-21 -32.333 -23 -57l-24 -280zM173.001 141.998c-0.666992 -2 -1.00195 -4.16699 -1.00195 -6.5v-6.5
c0 -16 5 -30.667 15 -44s23.333 -20 40 -20s31.334 6.16699 44.001 18.5s20.334 31.833 23.001 58.5l25 281z" />
    <glyph glyph-name="Ugrave" unicode="&#xd9;" horiz-adv-x="491" 
d="M412 112l-0.000976562 -9.99902c0 -23.333 14 -35 42 -35l-6 -67h-59c-36 0 -64.667 9.66699 -86 29c-35.333 -19.333 -73.666 -29 -114.999 -29c-22.667 0 -44 3.16699 -64 9.5s-37.333 15.166 -52 26.499s-26.167 25 -34.5 41s-12.5 34 -12.5 54l46 539h-36l6 66h169
l-51 -597c0 -44.667 18.333 -67 55 -67c18 0 33.333 8 46 24s19.667 34 21 54l50 587h135zM320.999 763.001l-181 84l28 61l182 -85z" />
    <glyph glyph-name="Uacute" unicode="&#xda;" horiz-adv-x="491" 
d="M412 112l-0.000976562 -9.99902c0 -23.333 14 -35 42 -35l-6 -67h-59c-36 0 -64.667 9.66699 -86 29c-35.333 -19.333 -73.666 -29 -114.999 -29c-22.667 0 -44 3.16699 -64 9.5s-37.333 15.166 -52 26.499s-26.167 25 -34.5 41s-12.5 34 -12.5 54l46 539h-36l6 66h169
l-51 -597c0 -44.667 18.333 -67 55 -67c18 0 33.333 8 46 24s19.667 34 21 54l50 587h135zM200.999 763.001l-29 60l182 85l28 -61z" />
    <glyph glyph-name="Ucircumflex" unicode="&#xdb;" horiz-adv-x="491" 
d="M412 112l-0.000976562 -9.99902c0 -23.333 14 -35 42 -35l-6 -67h-59c-36 0 -64.667 9.66699 -86 29c-35.333 -19.333 -73.666 -29 -114.999 -29c-22.667 0 -44 3.16699 -64 9.5s-37.333 15.166 -52 26.499s-26.167 25 -34.5 41s-12.5 34 -12.5 54l46 539h-36l6 66h169
l-51 -597c0 -44.667 18.333 -67 55 -67c18 0 33.333 8 46 24s19.667 34 21 54l50 587h135zM373.999 752.001l-92 67l-93 -67l-39 54l132 96l131 -96z" />
    <glyph glyph-name="Udieresis" unicode="&#xdc;" horiz-adv-x="491" 
d="M412 112l-0.000976562 -9.99902c0 -23.333 14 -35 42 -35l-6 -67h-59c-36 0 -64.667 9.66699 -86 29c-35.333 -19.333 -73.666 -29 -114.999 -29c-22.667 0 -44 3.16699 -64 9.5s-37.333 15.166 -52 26.499s-26.167 25 -34.5 41s-12.5 34 -12.5 54l46 539h-36l6 66h169
l-51 -597c0 -44.667 18.333 -67 55 -67c18 0 33.333 8 46 24s19.667 34 21 54l50 587h135zM289.999 763.001v67h67v-67h-67zM191.999 763.001v67h67v-67h-67z" />
    <glyph glyph-name="Yacute" unicode="&#xdd;" horiz-adv-x="475" 
d="M442 507c-3.33301 -36.667 -17.832 -68.667 -43.499 -96s-59.5 -45.333 -101.5 -54l-31 -357h-133l31 356c-40 7.33301 -71 23.166 -93 47.499s-33 53.833 -33 88.5c0 6.66699 0.333008 11.667 1 15l14 163h-37l6 67h170l-22 -255
c0 -17.333 6.16699 -32.166 18.5 -44.499s27.166 -18.5 44.499 -18.5c18.667 0 35.5 6.66699 50.5 20s23.167 29.333 24.5 48l21 250h134zM200.001 763l-29 60l182 85l28 -61z" />
    <glyph glyph-name="Thorn" unicode="&#xde;" horiz-adv-x="458" 
d="M434 414c-3.33301 -32.667 -12.501 -63.667 -27.501 -93s-34.167 -55 -57.5 -77s-50.166 -39.5 -80.499 -52.5s-61.833 -19.5 -94.5 -19.5l-15 -172h-134l59 670h-39l6 67h173l-11 -116h239zM207.999 554l-28 -313.999c14 1.33301 27.5 5 40.5 11s24.667 13.5 35 22.5
s18.833 19.167 25.5 30.5s10.667 22.666 12 33.999l19 216h-104z" />
    <glyph glyph-name="germandbls" unicode="&#xdf;" horiz-adv-x="665" 
d="M650 125c-5.33301 -22 -12.9971 -41.002 -22.9971 -57.002s-23.333 -29 -40 -39s-37 -17.333 -61 -22s-52.667 -7 -86 -7h-114l6 67h108c21.333 0 38.333 7.33301 51 22s19 32.667 19 54c0 24 -8.33301 43 -25 57l-84 70c-26 20.667 -39 48.334 -39 83.001
c0 37.333 14.333 74.333 43 111l40 51c15.333 19.333 23 42.333 23 69c0 23.333 -6.16699 43.5 -18.5 60.5s-28.5 25.5 -48.5 25.5s-37.333 -9.33301 -52 -28s-23.334 -43.667 -26.001 -75l-56 -643c-4 -46 -23.167 -81.333 -57.5 -106s-77.833 -37 -130.5 -37h-68l6 67h51
c39.333 0 60.666 19.667 63.999 59l46 534h-46l5 67h47l5 59c2 23.333 9.33301 45.333 22 66s29 38.667 49 54s42.667 27.5 68 36.5s51.666 13.5 78.999 13.5c55.333 0 100 -12.5 134 -37.5s51 -61.167 51 -108.5c0 -27.333 -7.33301 -50.833 -22 -70.5s-40 -38.5 -76 -56.5
c-18 -9.33301 -27 -23.666 -27 -42.999c0 -15.333 6 -28.333 18 -39l118 -106c34.667 -30.667 52 -67.667 52 -111c0 -12 -1.66699 -25.333 -5 -40z" />
    <glyph glyph-name="agrave" unicode="&#xe0;" horiz-adv-x="494" 
d="M460 0l-47.001 -0.000976562c-46.667 0 -80.667 13.667 -102 41c-29.333 -27.333 -63.666 -41 -102.999 -41h-21c-22 0 -43 3.16699 -63 9.5s-37.5 15.166 -52.5 26.499s-26.833 24.833 -35.5 40.5s-13 33.167 -13 52.5c0 5.33301 0.333008 9.66602 1 12.999l19 224
c2 20.667 8.33301 39.667 19 57s24.667 32.333 42 45s36.833 22.5 58.5 29.5s44.5 10.5 68.5 10.5h231l-34 -396c0 -1.33301 -0.166992 -2.66602 -0.5 -3.99902s-0.5 -2.66602 -0.5 -3.99902c0 -23.333 13 -35.666 39 -36.999zM225.999 440.999
c-28 0 -43.667 -16.668 -47 -50.001l-22 -257c0 -2 -0.166992 -4 -0.5 -6s-0.5 -3.66699 -0.5 -5c0 -37.333 19.333 -56 58 -56c20.667 0 39 7.33301 55 22s25 32.334 27 53.001l26 299h-96zM354.999 533.998l-181 84l28 61l182 -85z" />
    <glyph glyph-name="aacute" unicode="&#xe1;" horiz-adv-x="494" 
d="M460 0l-47.001 -0.000976562c-46.667 0 -80.667 13.667 -102 41c-29.333 -27.333 -63.666 -41 -102.999 -41h-21c-22 0 -43 3.16699 -63 9.5s-37.5 15.166 -52.5 26.499s-26.833 24.833 -35.5 40.5s-13 33.167 -13 52.5c0 5.33301 0.333008 9.66602 1 12.999l19 224
c2 20.667 8.33301 39.667 19 57s24.667 32.333 42 45s36.833 22.5 58.5 29.5s44.5 10.5 68.5 10.5h231l-34 -396c0 -1.33301 -0.166992 -2.66602 -0.5 -3.99902s-0.5 -2.66602 -0.5 -3.99902c0 -23.333 13 -35.666 39 -36.999zM225.999 440.999
c-28 0 -43.667 -16.668 -47 -50.001l-22 -257c0 -2 -0.166992 -4 -0.5 -6s-0.5 -3.66699 -0.5 -5c0 -37.333 19.333 -56 58 -56c20.667 0 39 7.33301 55 22s25 32.334 27 53.001l26 299h-96zM229.999 533.998l-29 60l182 85l28 -61z" />
    <glyph glyph-name="acircumflex" unicode="&#xe2;" horiz-adv-x="494" 
d="M460 0l-47.001 -0.000976562c-46.667 0 -80.667 13.667 -102 41c-29.333 -27.333 -63.666 -41 -102.999 -41h-21c-22 0 -43 3.16699 -63 9.5s-37.5 15.166 -52.5 26.499s-26.833 24.833 -35.5 40.5s-13 33.167 -13 52.5c0 5.33301 0.333008 9.66602 1 12.999l19 224
c2 20.667 8.33301 39.667 19 57s24.667 32.333 42 45s36.833 22.5 58.5 29.5s44.5 10.5 68.5 10.5h231l-34 -396c0 -1.33301 -0.166992 -2.66602 -0.5 -3.99902s-0.5 -2.66602 -0.5 -3.99902c0 -23.333 13 -35.666 39 -36.999zM225.999 440.999
c-28 0 -43.667 -16.668 -47 -50.001l-22 -257c0 -2 -0.166992 -4 -0.5 -6s-0.5 -3.66699 -0.5 -5c0 -37.333 19.333 -56 58 -56c20.667 0 39 7.33301 55 22s25 32.334 27 53.001l26 299h-96zM372.999 522.998l-92 67l-93 -67l-39 54l132 96l131 -96z" />
    <glyph glyph-name="atilde" unicode="&#xe3;" horiz-adv-x="494" 
d="M460 0l-47.001 -0.000976562c-46.667 0 -80.667 13.667 -102 41c-29.333 -27.333 -63.666 -41 -102.999 -41h-21c-22 0 -43 3.16699 -63 9.5s-37.5 15.166 -52.5 26.499s-26.833 24.833 -35.5 40.5s-13 33.167 -13 52.5c0 5.33301 0.333008 9.66602 1 12.999l19 224
c2 20.667 8.33301 39.667 19 57s24.667 32.333 42 45s36.833 22.5 58.5 29.5s44.5 10.5 68.5 10.5h231l-34 -396c0 -1.33301 -0.166992 -2.66602 -0.5 -3.99902s-0.5 -2.66602 -0.5 -3.99902c0 -23.333 13 -35.666 39 -36.999zM225.999 440.999
c-28 0 -43.667 -16.668 -47 -50.001l-22 -257c0 -2 -0.166992 -4 -0.5 -6s-0.5 -3.66699 -0.5 -5c0 -37.333 19.333 -56 58 -56c20.667 0 39 7.33301 55 22s25 32.334 27 53.001l26 299h-96zM419.999 602.998c-19.333 -42 -52.665 -63 -99.998 -63
c-16.667 0 -31.667 3.33301 -45 10l-21 10c-4.66699 2.66699 -10.334 4 -17.001 4c-18.667 0 -32 -8.33301 -40 -25l-60 28c19.333 41.333 52.333 62 99 62c15.333 0 30.666 -3 45.999 -9l21 -9c5.33301 -2.66699 11.333 -4 18 -4c18 0 30.667 8 38 24l61 -28v0z" />
    <glyph glyph-name="adieresis" unicode="&#xe4;" horiz-adv-x="494" 
d="M460 0l-47.001 -0.000976562c-46.667 0 -80.667 13.667 -102 41c-29.333 -27.333 -63.666 -41 -102.999 -41h-21c-22 0 -43 3.16699 -63 9.5s-37.5 15.166 -52.5 26.499s-26.833 24.833 -35.5 40.5s-13 33.167 -13 52.5c0 5.33301 0.333008 9.66602 1 12.999l19 224
c2 20.667 8.33301 39.667 19 57s24.667 32.333 42 45s36.833 22.5 58.5 29.5s44.5 10.5 68.5 10.5h231l-34 -396c0 -1.33301 -0.166992 -2.66602 -0.5 -3.99902s-0.5 -2.66602 -0.5 -3.99902c0 -23.333 13 -35.666 39 -36.999zM225.999 440.999
c-28 0 -43.667 -16.668 -47 -50.001l-22 -257c0 -2 -0.166992 -4 -0.5 -6s-0.5 -3.66699 -0.5 -5c0 -37.333 19.333 -56 58 -56c20.667 0 39 7.33301 55 22s25 32.334 27 53.001l26 299h-96zM287.999 533.998v67h67v-67h-67zM189.999 533.998v67h67v-67h-67z" />
    <glyph glyph-name="aring" unicode="&#xe5;" horiz-adv-x="494" 
d="M460 0l-47.001 -0.000976562c-46.667 0 -80.667 13.667 -102 41c-29.333 -27.333 -63.666 -41 -102.999 -41h-21c-22 0 -43 3.16699 -63 9.5s-37.5 15.166 -52.5 26.499s-26.833 24.833 -35.5 40.5s-13 33.167 -13 52.5c0 5.33301 0.333008 9.66602 1 12.999l19 224
c2 20.667 8.33301 39.667 19 57s24.667 32.333 42 45s36.833 22.5 58.5 29.5s44.5 10.5 68.5 10.5h231l-34 -396c0 -1.33301 -0.166992 -2.66602 -0.5 -3.99902s-0.5 -2.66602 -0.5 -3.99902c0 -23.333 13 -35.666 39 -36.999zM225.999 440.999
c-28 0 -43.667 -16.668 -47 -50.001l-22 -257c0 -2 -0.166992 -4 -0.5 -6s-0.5 -3.66699 -0.5 -5c0 -37.333 19.333 -56 58 -56c20.667 0 39 7.33301 55 22s25 32.334 27 53.001l26 299h-96zM388.999 632.998c0 -26.667 -9.33301 -49.334 -28 -68.001
s-41.334 -28 -68.001 -28c-13.333 0 -25.666 2.5 -36.999 7.5s-21.5 11.833 -30.5 20.5s-16 18.834 -21 30.501s-7.5 24.167 -7.5 37.5s2.5 25.833 7.5 37.5s12 21.834 21 30.501s19.167 15.5 30.5 20.5s23.666 7.5 36.999 7.5c26.667 0 49.334 -9.33301 68.001 -28
s28 -41.334 28 -68.001zM347.999 632.998c0 14.667 -5.33301 27.334 -16 38.001s-23.667 16 -39 16c-14.667 0 -27.334 -5.33301 -38.001 -16s-16 -23.334 -16 -38.001s5.33301 -27.334 16 -38.001s23.334 -16 38.001 -16c15.333 0 28.333 5.33301 39 16
s16 23.334 16 38.001z" />
    <glyph glyph-name="ae" unicode="&#xe6;" horiz-adv-x="674" 
d="M585 366l-0.00292969 5.99902c0 19.333 -6.66699 35.666 -20 48.999s-30 20 -50 20c-42 0 -65 -25 -69 -75l-6 -79h173l-6 -66h-173c-2.66699 -28 -4.5 -49.5 -5.5 -64.5s-1.5 -23.5 -1.5 -25.5c0 -43.333 19.333 -65 58 -65c20.667 0 38.667 7.33301 54 22
s24 32.667 26 54h67c-1.33301 -19.333 -6.66602 -37.5 -15.999 -54.5s-21 -32 -35 -45s-30 -23.333 -48 -31s-36.667 -11.5 -56 -11.5h-21c-62.667 0 -109.334 20 -140.001 60c-33.333 -40 -77.666 -60 -132.999 -60c-23.333 0 -45 3.33301 -65 10
s-37.333 16.334 -52 29.001s-26.167 27.834 -34.5 45.501s-12.5 37.5 -12.5 59.5c0 19.333 5.5 37.5 16.5 54.5s25.333 32 43 45s37.834 23.333 60.501 31s45.667 11.5 69 11.5h98c2.66699 28.667 4.5 50.5 5.5 65.5s1.5 23.167 1.5 24.5c0 43.333 -18.333 65 -55 65
c-21.333 0 -40.166 -7.33301 -56.499 -22s-25.166 -32.334 -26.499 -53.001h-67c1.33301 19.333 6.5 37.5 15.5 54.5s20.5 32 34.5 45s30 23.333 48 31s36.667 11.5 56 11.5h21c39.333 0 74.666 -9.66699 105.999 -29c35.333 19.333 79.666 29 132.999 29
c18 0 34.833 -3.5 50.5 -10.5s29.334 -16.333 41.001 -28s21 -25.167 28 -40.5s10.5 -31.666 10.5 -48.999c0 -6 -0.333008 -10.667 -1 -14h-66zM226.997 218.999c-11.333 0 -21.5 -2.50098 -30.5 -7.50098s-16.667 -11.667 -23 -20s-11.333 -17.833 -15 -28.5
s-5.5 -21.667 -5.5 -33c0 -42 18.667 -63 56 -63c20.667 0 39 7.33301 55 22s25 32.334 27 53.001l7 77h-71z" />
    <glyph glyph-name="ccedilla" unicode="&#xe7;" horiz-adv-x="390" 
d="M366 441h-142c-12.667 0 -23.334 -6.16699 -32.001 -18.5s-13.667 -25.5 -15 -39.5l-23 -263c0 -14.667 5.66699 -27.167 17 -37.5s25 -15.5 41 -15.5c20.667 0 39 7.33301 55 22s25 32.334 27 53.001h67c-1.33301 -19.333 -6.66602 -37.5 -15.999 -54.5s-21 -32 -35 -45
s-30 -23.333 -48 -31s-36.667 -11.5 -56 -11.5h-21c-22.667 0 -44 3.16699 -64 9.5s-37.333 15.166 -52 26.499s-26.167 25 -34.5 41s-12.5 34 -12.5 54l20 235c2 20.667 8.33301 39.667 19 57s24.5 32.333 41.5 45s36.5 22.5 58.5 29.5s45 10.5 69 10.5h142zM264 -128
c0 -25.333 -8.5 -46.333 -25.5 -63s-38.167 -25 -63.5 -25h-102v66h102c14.667 0 22 7.33301 22 22s-7.33301 22 -22 22h-75l56 132h73l-29 -68c19.333 -4.66699 34.833 -15.167 46.5 -31.5s17.5 -34.5 17.5 -54.5z" />
    <glyph glyph-name="egrave" unicode="&#xe8;" horiz-adv-x="397" 
d="M311 366l-0.00292969 7.00098c0 19.333 -6.83301 35.5 -20.5 48.5s-29.5 19.5 -47.5 19.5c-11.333 0 -21.666 -2.5 -30.999 -7.5s-17.166 -11.667 -23.499 -20s-11.166 -17.833 -14.499 -28.5s-5 -22 -5 -34c0 -42.667 15.667 -64 47 -64h124l-6 -66h-123
c-18 0 -32.5 -8.5 -43.5 -25.5s-16.5 -36.5 -16.5 -58.5c0 -19.333 5 -36 15 -50s25 -21 45 -21c18.667 0 36.167 6.83301 52.5 20.5s25.5 32.167 27.5 55.5h67c-4 -43.333 -22 -77.833 -54 -103.5s-72.333 -38.5 -121 -38.5c-20.667 0 -40.834 3.33301 -60.501 10
s-37 16 -52 28s-27.167 26 -36.5 42s-14 33.333 -14 52c0 51.333 23 92 69 122c-33.333 31.333 -50 65.333 -50 102c0 21.333 5.16699 41.333 15.5 60s24.333 34.834 42 48.501s37.834 24.334 60.501 32.001s46 11.5 70 11.5c46 0 82.833 -11.333 110.5 -34
s41.5 -53.334 41.5 -92.001c0 -2.66699 -0.166992 -5.33398 -0.5 -8.00098s-0.5 -5.33398 -0.5 -8.00098h-67zM297.997 534.001l-181 84l28 61l182 -85z" />
    <glyph glyph-name="eacute" unicode="&#xe9;" horiz-adv-x="397" 
d="M311 366l-0.00292969 7.00098c0 19.333 -6.83301 35.5 -20.5 48.5s-29.5 19.5 -47.5 19.5c-11.333 0 -21.666 -2.5 -30.999 -7.5s-17.166 -11.667 -23.499 -20s-11.166 -17.833 -14.499 -28.5s-5 -22 -5 -34c0 -42.667 15.667 -64 47 -64h124l-6 -66h-123
c-18 0 -32.5 -8.5 -43.5 -25.5s-16.5 -36.5 -16.5 -58.5c0 -19.333 5 -36 15 -50s25 -21 45 -21c18.667 0 36.167 6.83301 52.5 20.5s25.5 32.167 27.5 55.5h67c-4 -43.333 -22 -77.833 -54 -103.5s-72.333 -38.5 -121 -38.5c-20.667 0 -40.834 3.33301 -60.501 10
s-37 16 -52 28s-27.167 26 -36.5 42s-14 33.333 -14 52c0 51.333 23 92 69 122c-33.333 31.333 -50 65.333 -50 102c0 21.333 5.16699 41.333 15.5 60s24.333 34.834 42 48.501s37.834 24.334 60.501 32.001s46 11.5 70 11.5c46 0 82.833 -11.333 110.5 -34
s41.5 -53.334 41.5 -92.001c0 -2.66699 -0.166992 -5.33398 -0.5 -8.00098s-0.5 -5.33398 -0.5 -8.00098h-67zM184.997 534.001l-29 60l182 85l28 -61z" />
    <glyph glyph-name="ecircumflex" unicode="&#xea;" horiz-adv-x="397" 
d="M311 366l-0.00292969 7.00098c0 19.333 -6.83301 35.5 -20.5 48.5s-29.5 19.5 -47.5 19.5c-11.333 0 -21.666 -2.5 -30.999 -7.5s-17.166 -11.667 -23.499 -20s-11.166 -17.833 -14.499 -28.5s-5 -22 -5 -34c0 -42.667 15.667 -64 47 -64h124l-6 -66h-123
c-18 0 -32.5 -8.5 -43.5 -25.5s-16.5 -36.5 -16.5 -58.5c0 -19.333 5 -36 15 -50s25 -21 45 -21c18.667 0 36.167 6.83301 52.5 20.5s25.5 32.167 27.5 55.5h67c-4 -43.333 -22 -77.833 -54 -103.5s-72.333 -38.5 -121 -38.5c-20.667 0 -40.834 3.33301 -60.501 10
s-37 16 -52 28s-27.167 26 -36.5 42s-14 33.333 -14 52c0 51.333 23 92 69 122c-33.333 31.333 -50 65.333 -50 102c0 21.333 5.16699 41.333 15.5 60s24.333 34.834 42 48.501s37.834 24.334 60.501 32.001s46 11.5 70 11.5c46 0 82.833 -11.333 110.5 -34
s41.5 -53.334 41.5 -92.001c0 -2.66699 -0.166992 -5.33398 -0.5 -8.00098s-0.5 -5.33398 -0.5 -8.00098h-67zM325.997 523.001l-92 67l-93 -67l-39 54l132 96l131 -96z" />
    <glyph glyph-name="edieresis" unicode="&#xeb;" horiz-adv-x="397" 
d="M311 366l-0.00292969 7.00098c0 19.333 -6.83301 35.5 -20.5 48.5s-29.5 19.5 -47.5 19.5c-11.333 0 -21.666 -2.5 -30.999 -7.5s-17.166 -11.667 -23.499 -20s-11.166 -17.833 -14.499 -28.5s-5 -22 -5 -34c0 -42.667 15.667 -64 47 -64h124l-6 -66h-123
c-18 0 -32.5 -8.5 -43.5 -25.5s-16.5 -36.5 -16.5 -58.5c0 -19.333 5 -36 15 -50s25 -21 45 -21c18.667 0 36.167 6.83301 52.5 20.5s25.5 32.167 27.5 55.5h67c-4 -43.333 -22 -77.833 -54 -103.5s-72.333 -38.5 -121 -38.5c-20.667 0 -40.834 3.33301 -60.501 10
s-37 16 -52 28s-27.167 26 -36.5 42s-14 33.333 -14 52c0 51.333 23 92 69 122c-33.333 31.333 -50 65.333 -50 102c0 21.333 5.16699 41.333 15.5 60s24.333 34.834 42 48.501s37.834 24.334 60.501 32.001s46 11.5 70 11.5c46 0 82.833 -11.333 110.5 -34
s41.5 -53.334 41.5 -92.001c0 -2.66699 -0.166992 -5.33398 -0.5 -8.00098s-0.5 -5.33398 -0.5 -8.00098h-67zM247.997 534.001v67h67v-67h-67zM149.997 534.001v67h67v-67h-67z" />
    <glyph glyph-name="igrave" unicode="&#xec;" horiz-adv-x="229" 
d="M198 0h-20c-46 0 -82.333 10 -109 30s-40 47.667 -40 83c0 5.33301 0.333008 9.33301 1 12l28 316h-38l6 67h171l-33 -383c0 -1.33301 -0.166992 -2.83301 -0.5 -4.5s-0.5 -3.16699 -0.5 -4.5c0 -28.667 13.667 -45 41 -49zM190 534l-181 84l28 61l182 -85z" />
    <glyph glyph-name="iacute" unicode="&#xed;" horiz-adv-x="229" 
d="M198 0h-20c-46 0 -82.333 10 -109 30s-40 47.667 -40 83c0 5.33301 0.333008 9.33301 1 12l28 316h-38l6 67h171l-33 -383c0 -1.33301 -0.166992 -2.83301 -0.5 -4.5s-0.5 -3.16699 -0.5 -4.5c0 -28.667 13.667 -45 41 -49zM56 534l-29 60l182 85l28 -61z" />
    <glyph glyph-name="icircumflex" unicode="&#xee;" horiz-adv-x="229" 
d="M198 0h-20c-46 0 -82.333 10 -109 30s-40 47.667 -40 83c0 5.33301 0.333008 9.33301 1 12l28 316h-38l6 67h171l-33 -383c0 -1.33301 -0.166992 -2.83301 -0.5 -4.5s-0.5 -3.16699 -0.5 -4.5c0 -28.667 13.667 -45 41 -49zM208 523l-92 67l-93 -67l-39 54l132 96
l131 -96z" />
    <glyph glyph-name="idieresis" unicode="&#xef;" horiz-adv-x="229" 
d="M198 0h-20c-46 0 -82.333 10 -109 30s-40 47.667 -40 83c0 5.33301 0.333008 9.33301 1 12l28 316h-38l6 67h171l-33 -383c0 -1.33301 -0.166992 -2.83301 -0.5 -4.5s-0.5 -3.16699 -0.5 -4.5c0 -28.667 13.667 -45 41 -49zM139 534v67h67v-67h-67zM41 534v67h67v-67h-67
z" />
    <glyph glyph-name="eth" unicode="&#xf0;" horiz-adv-x="488" 
d="M419 653c6 -18 9.00098 -35.332 9.00098 -51.999v-7l-39 -452c-3.33301 -36 -19.333 -66.333 -48 -91c-35.333 -34 -82.333 -51 -141 -51h-20c-22.667 0 -44 3.16699 -64 9.5s-37.5 15.166 -52.5 26.499s-26.833 24.833 -35.5 40.5s-13 33.167 -13 52.5
c0 2 0.166992 4 0.5 6s0.5 4.33301 0.5 7l20 224c2 20.667 8.33301 39.667 19 57s24.5 32.333 41.5 45s36.5 22.5 58.5 29.5s45 10.5 69 10.5h21c16.667 0 30.667 -1.33301 42 -4l7 80l-67 -37l-29 58l82 45c-11.333 13.333 -21.333 20 -30 20h-67l6 67h76
c43.333 0 80.666 -11 111.999 -33l66 36l29 -57zM274.001 377.001c0 20 -4.33301 35.666 -13 46.999s-19.667 17 -33 17c-14 0 -26.667 -6.66699 -38 -20s-18 -31.666 -20 -54.999l-20 -224c0 -2.66699 -0.166992 -5 -0.5 -7s-0.5 -4 -0.5 -6
c0 -19.333 4.5 -34.333 13.5 -45s20.167 -16 33.5 -16c14 0 26.833 6.5 38.5 19.5s18.5 31.167 20.5 54.5l19 224v11z" />
    <glyph glyph-name="ntilde" unicode="&#xf1;" horiz-adv-x="476" 
d="M447 0l-57 -0.000976562c-34 0 -61 8.16699 -81 24.5s-30 38.5 -30 66.5c0 1.33301 0.166992 3 0.5 5s0.5 4 0.5 6l24 282c0 16.667 -4.83301 30.334 -14.5 41.001s-21.167 16 -34.5 16h-54l-39 -441h-134l39 441h-38l6 67h226c55.333 0 98.5 -11.167 129.5 -33.5
s46.5 -54.5 46.5 -96.5c0 -2.66699 -0.166992 -5.16699 -0.5 -7.5s-0.5 -4.83301 -0.5 -7.5l-21 -253v-9c0 -13.333 1.83301 -22.333 5.5 -27s14.5 -7 32.5 -7zM398 602.999c-19.333 -42 -52.665 -63 -99.998 -63c-16.667 0 -31.667 3.33301 -45 10l-21 10
c-4.66699 2.66699 -10.334 4 -17.001 4c-18.667 0 -32 -8.33301 -40 -25l-60 28c19.333 41.333 52.333 62 99 62c15.333 0 30.666 -3 45.999 -9l21 -9c5.33301 -2.66699 11.333 -4 18 -4c18 0 30.667 8 38 24l61 -28v0z" />
    <glyph glyph-name="ograve" unicode="&#xf2;" horiz-adv-x="439" 
d="M396 142c-2 -19.333 -8.33398 -37.666 -19.001 -54.999s-24.5 -32.5 -41.5 -45.5s-36.5 -23.167 -58.5 -30.5s-45 -11 -69 -11h-20c-22.667 0 -44 3.16699 -64 9.5s-37.5 15.166 -52.5 26.499s-26.833 24.833 -35.5 40.5s-13 33.167 -13 52.5
c0 5.33301 0.333008 9.66602 1 12.999l20 224c2 20 8.16699 38.667 18.5 56s24 32.333 41 45s36.5 22.667 58.5 30s45.333 11 70 11h21c22 0 43 -3.16699 63 -9.5s37.333 -15.166 52 -26.499s26.334 -25 35.001 -41s13 -33.333 13 -52v-13zM281.999 377
c0 20.667 -4.33301 36.334 -13 47.001s-19.667 16 -33 16c-16 0 -29.333 -7 -40 -21s-17 -31.667 -19 -53l-19 -224c0 -2 -0.166992 -3.83301 -0.5 -5.5s-0.5 -3.5 -0.5 -5.5c0 -19.333 4.5 -34.833 13.5 -46.5s20.167 -17.5 33.5 -17.5c14 0 26.833 6.16699 38.5 18.5
s18.5 31.166 20.5 56.499l19 224v11zM306.999 534l-181 84l28 61l182 -85z" />
    <glyph glyph-name="oacute" unicode="&#xf3;" horiz-adv-x="439" 
d="M396 142c-2 -19.333 -8.33398 -37.666 -19.001 -54.999s-24.5 -32.5 -41.5 -45.5s-36.5 -23.167 -58.5 -30.5s-45 -11 -69 -11h-20c-22.667 0 -44 3.16699 -64 9.5s-37.5 15.166 -52.5 26.499s-26.833 24.833 -35.5 40.5s-13 33.167 -13 52.5
c0 5.33301 0.333008 9.66602 1 12.999l20 224c2 20 8.16699 38.667 18.5 56s24 32.333 41 45s36.5 22.667 58.5 30s45.333 11 70 11h21c22 0 43 -3.16699 63 -9.5s37.333 -15.166 52 -26.499s26.334 -25 35.001 -41s13 -33.333 13 -52v-13zM281.999 377
c0 20.667 -4.33301 36.334 -13 47.001s-19.667 16 -33 16c-16 0 -29.333 -7 -40 -21s-17 -31.667 -19 -53l-19 -224c0 -2 -0.166992 -3.83301 -0.5 -5.5s-0.5 -3.5 -0.5 -5.5c0 -19.333 4.5 -34.833 13.5 -46.5s20.167 -17.5 33.5 -17.5c14 0 26.833 6.16699 38.5 18.5
s18.5 31.166 20.5 56.499l19 224v11zM183.999 534l-29 60l182 85l28 -61z" />
    <glyph glyph-name="ocircumflex" unicode="&#xf4;" horiz-adv-x="439" 
d="M396 142c-2 -19.333 -8.33398 -37.666 -19.001 -54.999s-24.5 -32.5 -41.5 -45.5s-36.5 -23.167 -58.5 -30.5s-45 -11 -69 -11h-20c-22.667 0 -44 3.16699 -64 9.5s-37.5 15.166 -52.5 26.499s-26.833 24.833 -35.5 40.5s-13 33.167 -13 52.5
c0 5.33301 0.333008 9.66602 1 12.999l20 224c2 20 8.16699 38.667 18.5 56s24 32.333 41 45s36.5 22.667 58.5 30s45.333 11 70 11h21c22 0 43 -3.16699 63 -9.5s37.333 -15.166 52 -26.499s26.334 -25 35.001 -41s13 -33.333 13 -52v-13zM281.999 377
c0 20.667 -4.33301 36.334 -13 47.001s-19.667 16 -33 16c-16 0 -29.333 -7 -40 -21s-17 -31.667 -19 -53l-19 -224c0 -2 -0.166992 -3.83301 -0.5 -5.5s-0.5 -3.5 -0.5 -5.5c0 -19.333 4.5 -34.833 13.5 -46.5s20.167 -17.5 33.5 -17.5c14 0 26.833 6.16699 38.5 18.5
s18.5 31.166 20.5 56.499l19 224v11zM346.999 523l-92 67l-93 -67l-39 54l132 96l131 -96z" />
    <glyph glyph-name="otilde" unicode="&#xf5;" horiz-adv-x="439" 
d="M396 142c-2 -19.333 -8.33398 -37.666 -19.001 -54.999s-24.5 -32.5 -41.5 -45.5s-36.5 -23.167 -58.5 -30.5s-45 -11 -69 -11h-20c-22.667 0 -44 3.16699 -64 9.5s-37.5 15.166 -52.5 26.499s-26.833 24.833 -35.5 40.5s-13 33.167 -13 52.5
c0 5.33301 0.333008 9.66602 1 12.999l20 224c2 20 8.16699 38.667 18.5 56s24 32.333 41 45s36.5 22.667 58.5 30s45.333 11 70 11h21c22 0 43 -3.16699 63 -9.5s37.333 -15.166 52 -26.499s26.334 -25 35.001 -41s13 -33.333 13 -52v-13zM281.999 377
c0 20.667 -4.33301 36.334 -13 47.001s-19.667 16 -33 16c-16 0 -29.333 -7 -40 -21s-17 -31.667 -19 -53l-19 -224c0 -2 -0.166992 -3.83301 -0.5 -5.5s-0.5 -3.5 -0.5 -5.5c0 -19.333 4.5 -34.833 13.5 -46.5s20.167 -17.5 33.5 -17.5c14 0 26.833 6.16699 38.5 18.5
s18.5 31.166 20.5 56.499l19 224v11zM391.999 603c-19.333 -42 -52.665 -63 -99.998 -63c-16.667 0 -31.667 3.33301 -45 10l-21 10c-4.66699 2.66699 -10.334 4 -17.001 4c-18.667 0 -32 -8.33301 -40 -25l-60 28c19.333 41.333 52.333 62 99 62
c15.333 0 30.666 -3 45.999 -9l21 -9c5.33301 -2.66699 11.333 -4 18 -4c18 0 30.667 8 38 24l61 -28v0z" />
    <glyph glyph-name="odieresis" unicode="&#xf6;" horiz-adv-x="439" 
d="M396 142c-2 -19.333 -8.33398 -37.666 -19.001 -54.999s-24.5 -32.5 -41.5 -45.5s-36.5 -23.167 -58.5 -30.5s-45 -11 -69 -11h-20c-22.667 0 -44 3.16699 -64 9.5s-37.5 15.166 -52.5 26.499s-26.833 24.833 -35.5 40.5s-13 33.167 -13 52.5
c0 5.33301 0.333008 9.66602 1 12.999l20 224c2 20 8.16699 38.667 18.5 56s24 32.333 41 45s36.5 22.667 58.5 30s45.333 11 70 11h21c22 0 43 -3.16699 63 -9.5s37.333 -15.166 52 -26.499s26.334 -25 35.001 -41s13 -33.333 13 -52v-13zM281.999 377
c0 20.667 -4.33301 36.334 -13 47.001s-19.667 16 -33 16c-16 0 -29.333 -7 -40 -21s-17 -31.667 -19 -53l-19 -224c0 -2 -0.166992 -3.83301 -0.5 -5.5s-0.5 -3.5 -0.5 -5.5c0 -19.333 4.5 -34.833 13.5 -46.5s20.167 -17.5 33.5 -17.5c14 0 26.833 6.16699 38.5 18.5
s18.5 31.166 20.5 56.499l19 224v11zM259.999 534v67h67v-67h-67zM161.999 534v67h67v-67h-67z" />
    <glyph glyph-name="divide" unicode="&#xf7;" horiz-adv-x="569" 
d="M349 456c0 -18 -6.33301 -33.333 -19 -46s-28 -19 -46 -19c-17.333 0 -32.5 6.33301 -45.5 19s-19.5 28 -19.5 46c0 17.333 6.5 32.5 19.5 45.5s28.167 19.5 45.5 19.5c18 0 33.333 -6.5 46 -19.5s19 -28.167 19 -45.5zM5 235v85h559v-85h-559zM349 101
c0 -18 -6.33301 -33.333 -19 -46s-28 -19 -46 -19c-17.333 0 -32.5 6.33301 -45.5 19s-19.5 28 -19.5 46s6.5 33.333 19.5 46s28.167 19 45.5 19c18 0 33.333 -6.33301 46 -19s19 -28 19 -46z" />
    <glyph glyph-name="oslash" unicode="&#xf8;" horiz-adv-x="475" 
d="M412 446c14.667 -20 22 -42 22 -66c0 -2.66699 -0.166992 -5 -0.5 -7s-0.5 -4.33301 -0.5 -7l-19 -224c-2 -19.333 -8.5 -37.5 -19.5 -54.5s-25 -32 -42 -45s-36.5 -23.333 -58.5 -31s-44.667 -11.5 -68 -11.5h-21c-33.333 0 -64 7 -92 21l-15 -21h-78l43 62
c-14.667 18.667 -22 40.667 -22 66c0 6 0.333008 10.667 1 14l19 224c2 20.667 8.33301 39.667 19 57s24.667 32.333 42 45s36.833 22.5 58.5 29.5s44.5 10.5 68.5 10.5h21c34 0 64.667 -7 92 -21l15 21h78zM298 396c-5.33301 29.333 -20 44 -44 44
c-16 0 -29.333 -7 -40 -21s-17 -31.667 -19 -53l-12 -133zM177 112c3.33301 -14 8.66797 -25.001 16.001 -33.001s16.666 -12 27.999 -12c14 0 26.667 6.33301 38 19s18.333 31.334 21 56.001l12 133z" />
    <glyph glyph-name="ugrave" unicode="&#xf9;" horiz-adv-x="465" 
d="M431 0l-238.999 -0.000976562c-48 0 -86.5 11.833 -115.5 35.5s-43.5 56.834 -43.5 99.501v9.5c0 3 0.333008 6.16699 1 9.5l25 287h-35l6 67h168l-31 -371v-8c0 -17.333 4.16699 -32 12.5 -44s20.166 -18 35.499 -18h48l39 441h134l-38 -441h39zM308.001 533.999
l-181 84l28 61l182 -85z" />
    <glyph glyph-name="uacute" unicode="&#xfa;" horiz-adv-x="465" 
d="M431 0l-238.999 -0.000976562c-48 0 -86.5 11.833 -115.5 35.5s-43.5 56.834 -43.5 99.501v9.5c0 3 0.333008 6.16699 1 9.5l25 287h-35l6 67h168l-31 -371v-8c0 -17.333 4.16699 -32 12.5 -44s20.166 -18 35.499 -18h48l39 441h134l-38 -441h39zM185.001 533.999l-29 60
l182 85l28 -61z" />
    <glyph glyph-name="ucircumflex" unicode="&#xfb;" horiz-adv-x="465" 
d="M431 0l-238.999 -0.000976562c-48 0 -86.5 11.833 -115.5 35.5s-43.5 56.834 -43.5 99.501v9.5c0 3 0.333008 6.16699 1 9.5l25 287h-35l6 67h168l-31 -371v-8c0 -17.333 4.16699 -32 12.5 -44s20.166 -18 35.499 -18h48l39 441h134l-38 -441h39zM353.001 522.999l-92 67
l-93 -67l-39 54l132 96l131 -96z" />
    <glyph glyph-name="udieresis" unicode="&#xfc;" horiz-adv-x="465" 
d="M431 0l-238.999 -0.000976562c-48 0 -86.5 11.833 -115.5 35.5s-43.5 56.834 -43.5 99.501v9.5c0 3 0.333008 6.16699 1 9.5l25 287h-35l6 67h168l-31 -371v-8c0 -17.333 4.16699 -32 12.5 -44s20.166 -18 35.499 -18h48l39 441h134l-38 -441h39zM282.001 533.999v67h67
v-67h-67zM184.001 533.999v67h67v-67h-67z" />
    <glyph glyph-name="yacute" unicode="&#xfd;" horiz-adv-x="449" 
d="M378 -76c-2 -19.333 -8.33008 -37.667 -18.9971 -55s-24.667 -32.5 -42 -45.5s-37 -23.333 -59 -31s-45 -11.5 -69 -11.5h-135l6 67h127c33.333 0 51.666 19.667 54.999 59l8 93h-44c-25.333 -0 -48.833 3.33301 -70.5 10s-40.334 16 -56.001 28
s-27.834 26.5 -36.501 43.5s-13 36.167 -13 57.5c0 6.66699 0.333008 11.667 1 15l25 287h-36l6 67h170l-33 -379v-9c0 -35.333 16.333 -53 49 -53h44l39 441h134zM184.003 533.999l-29 60l182 85l28 -61z" />
    <glyph glyph-name="thorn" unicode="&#xfe;" horiz-adv-x="463" 
d="M426 142c-2 -20.667 -8.33301 -39.667 -19 -57s-24.5 -32.333 -41.5 -45s-36.667 -22.5 -59 -29.5s-45.5 -10.5 -69.5 -10.5h-62l-19 -219h-134l78 889h-40l6 67h173l-20 -229h239zM213 442l-32 -374.999h52c14 0 26.833 6.66699 38.5 20s18.5 31.666 20.5 54.999l26 300
h-105z" />
    <glyph glyph-name="ydieresis" unicode="&#xff;" horiz-adv-x="449" 
d="M378 -76c-2 -19.333 -8.33008 -37.667 -18.9971 -55s-24.667 -32.5 -42 -45.5s-37 -23.333 -59 -31s-45 -11.5 -69 -11.5h-135l6 67h127c33.333 0 51.666 19.667 54.999 59l8 93h-44c-25.333 -0 -48.833 3.33301 -70.5 10s-40.334 16 -56.001 28
s-27.834 26.5 -36.501 43.5s-13 36.167 -13 57.5c0 6.66699 0.333008 11.667 1 15l25 287h-36l6 67h170l-33 -379v-9c0 -35.333 16.333 -53 49 -53h44l39 441h134zM268.003 533.999v67h67v-67h-67zM170.003 533.999v67h67v-67h-67z" />
    <glyph glyph-name="dotlessi" unicode="&#x131;" horiz-adv-x="229" 
d="M198 0h-20c-46 0 -82.333 10 -109 30s-40 47.667 -40 83c0 5.33301 0.333008 9.33301 1 12l28 316h-38l6 67h171l-33 -383c0 -1.33301 -0.166992 -2.83301 -0.5 -4.5s-0.5 -3.16699 -0.5 -4.5c0 -28.667 13.667 -45 41 -49z" />
    <glyph glyph-name="Lslash" unicode="&#x141;" horiz-adv-x="377" 
d="M364 0l-209 0.000976562c-31.333 0 -56.5 7.66699 -75.5 23s-28.5 38.666 -28.5 69.999c0 2 0.166992 3.83301 0.5 5.5s0.5 3.5 0.5 5.5l17 199l-52 -27l7 79l52 27l25 288h-37l5 67h171l-24 -281l52 27l-6 -79l-53 -27l-24 -279c0 -20.667 11.333 -31 34 -31h151z" />
    <glyph glyph-name="lslash" unicode="&#x142;" horiz-adv-x="261" 
d="M239 403l-47 -24.001l-22 -254c0 -1.33301 -0.166992 -2.83301 -0.5 -4.5s-0.5 -3.16699 -0.5 -4.5c0 -29.333 14.333 -45.666 43 -48.999l-6 -67h-22c-46 0 -82.333 10 -109 30s-40 47.667 -40 83c0 5.33301 0.333008 9.33301 1 12l16 181l-36 -19l7 79l36 19l25 285
h-35l5 67h169l-24 -279l47 24z" />
    <glyph glyph-name="OE" unicode="&#x152;" horiz-adv-x="691" 
d="M672 670h-210.999l-24 -268h146l-6 -67h-145l-24 -268h211l-6 -67h-424c-22.667 0 -44 3.16699 -64 9.5s-37.333 15.166 -52 26.499s-26.334 24.833 -35.001 40.5s-13 33.167 -13 52.5c0 5.33301 0.333008 9.66602 1 12.999l39 452c2 20.667 8.33301 39.834 19 57.501
s24.5 32.834 41.5 45.501s36.5 22.5 58.5 29.5s45 10.5 69 10.5h424zM321.001 606c0 18.667 -4.83301 34.167 -14.5 46.5s-23.167 18.5 -40.5 18.5c-18 0 -33.167 -7 -45.5 -21s-19.5 -32.667 -21.5 -56l-40 -452c0 -1.33301 -0.166992 -2.83301 -0.5 -4.5
s-0.5 -3.16699 -0.5 -4.5c0 -19.333 5.33301 -35.5 16 -48.5s23.667 -19.5 39 -19.5c16.667 0 31.667 6 45 18s21 30.667 23 56l40 458v9z" />
    <glyph glyph-name="oe" unicode="&#x153;" horiz-adv-x="645" 
d="M556 366l-0.000976562 5.99707c0 20 -6.83301 36.5 -20.5 49.5s-30.167 19.5 -49.5 19.5c-18.667 0 -34.167 -6.66699 -46.5 -20s-19.5 -31.666 -21.5 -54.999l-7 -79h174l-6 -66h-174l-6 -79c0 -2 -0.166992 -3.83301 -0.5 -5.5s-0.5 -3.16699 -0.5 -4.5
c0 -21.333 5.33301 -37.666 16 -48.999s24.334 -17 41.001 -17c19.333 0 37.333 6.83301 54 20.5s26 32.167 28 55.5h67c-2 -19.333 -7.66699 -37.5 -17 -54.5s-21 -32 -35 -45s-29.833 -23.333 -47.5 -31s-36.167 -11.5 -55.5 -11.5h-21c-41.333 0 -77 10 -107 30
c-34 -20 -71 -30 -111 -30h-20c-23.333 0 -45 3.16699 -65 9.5s-37.5 15.333 -52.5 27s-26.667 25.334 -35 41.001s-12.5 32.834 -12.5 51.501c0 2 0.166992 4 0.5 6s0.5 4.33301 0.5 7l20 224c2 20 8.16699 38.5 18.5 55.5s23.833 32 40.5 45s36 23.167 58 30.5
s45.667 11 71 11h21c39.333 0 74.666 -9.66699 105.999 -29c34.667 19.333 72 29 112 29h20c16.667 0 32.834 -3.66699 48.501 -11s29.5 -17 41.5 -29s21.667 -25.833 29 -41.5s11 -31.834 11 -48.501v-12h-67zM284.999 376.997c0 18.667 -4.33301 33.834 -13 45.501
s-19.667 17.5 -33 17.5c-16.667 0 -30.167 -7 -40.5 -21s-16.5 -31.667 -18.5 -53l-20 -224c0 -2 -0.166992 -3.83301 -0.5 -5.5s-0.5 -3.5 -0.5 -5.5c0 -19.333 4.5 -34.833 13.5 -46.5s20.167 -17.5 33.5 -17.5s26 6.16699 38 18.5s19 31.166 21 56.499l20 224v11z" />
    <glyph glyph-name="Scaron" unicode="&#x160;" horiz-adv-x="380" 
d="M338 670h-64c-21.333 0 -39 -2.16699 -53 -6.5s-25 -10.333 -33 -18s-13.667 -16.167 -17 -25.5s-5 -19 -5 -29c0 -26 10 -52 30 -78l123 -160c30 -39.333 45 -84.333 45 -135c0 -31.333 -6 -60.333 -18 -87s-28.833 -49.667 -50.5 -69s-48 -34.5 -79 -45.5
s-65.5 -16.5 -103.5 -16.5h-99l7 67h86c40 0 70.5 9.16699 91.5 27.5s31.5 41.833 31.5 70.5s-11 58.667 -33 90l-138 191c-19.333 27.333 -29 58 -29 92c0 27.333 5.5 53 16.5 77s26.5 45 46.5 63s43.833 32.333 71.5 43s58.167 16 91.5 16h88zM291 767h-94l-73 122h78
l42 -71l42 71h78z" />
    <glyph glyph-name="scaron" unicode="&#x161;" horiz-adv-x="373" 
d="M353 143c0 -21.333 -4.50098 -40.668 -13.501 -58.001s-21.333 -32.333 -37 -45s-34.334 -22.5 -56.001 -29.5s-45.167 -10.5 -70.5 -10.5h-159l6 67h107c41.333 0 62 19.667 62 59c0 22 -7.33301 41.333 -22 58l-80 91c-26 28.667 -39 61 -39 97
c0 20.667 4.33301 39.334 13 56.001s20.834 31 36.501 43s33.834 21.167 54.501 27.5s43 9.5 67 9.5h110l-6 -67h-79c-33.333 0 -50 -10 -50 -30c0 -10.667 4.33301 -21.334 13 -32.001l98 -121c30 -37.333 45 -75.666 45 -114.999zM272.999 537.998h-94l-73 122h78l42 -71
l42 71h78z" />
    <glyph glyph-name="Ydieresis" unicode="&#x178;" horiz-adv-x="475" 
d="M442 507c-3.33301 -36.667 -17.832 -68.667 -43.499 -96s-59.5 -45.333 -101.5 -54l-31 -357h-133l31 356c-40 7.33301 -71 23.166 -93 47.499s-33 53.833 -33 88.5c0 6.66699 0.333008 11.667 1 15l14 163h-37l6 67h170l-22 -255
c0 -17.333 6.16699 -32.166 18.5 -44.499s27.166 -18.5 44.499 -18.5c18.667 0 35.5 6.66699 50.5 20s23.167 29.333 24.5 48l21 250h134zM280.001 763v67h67v-67h-67zM182.001 763v67h67v-67h-67z" />
    <glyph glyph-name="Zcaron" unicode="&#x17d;" horiz-adv-x="517" 
d="M187 67h262l-6 -67h-432l315 670h-202l6 66h373zM360 767h-94l-73 122h78l42 -71l42 71h78z" />
    <glyph glyph-name="zcaron" unicode="&#x17e;" horiz-adv-x="527" 
d="M226 67h229l-6 -67h-431l283 441h-227l6 67h429zM340 538h-94l-73 122h78l42 -71l42 71h78z" />
    <glyph glyph-name="florin" unicode="&#x192;" horiz-adv-x="816" 
d="M464 440l-0.00292969 -6.50293c0 -2.33301 -0.333008 -4.83301 -1 -7.5c2.66699 0.666992 5.16699 1.16699 7.5 1.5s5.16602 0.5 8.49902 0.5c14 0 28 -3.16699 42 -9.5s22 -16.5 24 -30.5c6.66699 2.66699 14.667 4.66699 24 6s18.333 2 27 2
c21.333 0 40.333 -5.16699 57 -15.5s25 -26.5 25 -48.5c0 -5.33301 -0.833008 -10.333 -2.5 -15s-3.83398 -9.33398 -6.50098 -14.001c-2.66699 -2.66699 -5.66699 -4 -9 -4c-6.66699 0 -10 3 -10 9c0 2.66699 0.666992 4.66699 2 6c4 6 6 12 6 18c0 13.333 -5 24 -15 32
s-22.333 12 -37 12c-16 0 -30.333 -2.16699 -43 -6.5s-23.334 -9.66602 -32.001 -15.999s-15.334 -13.166 -20.001 -20.499s-7 -14 -7 -20c0 -7.33301 2.33301 -14.166 7 -20.499s16 -9.5 34 -9.5c11.333 0 21.333 1.33301 30 4c0.666992 0.666992 1.66699 1 3 1
c6.66699 0 10 -3.66699 10 -11c-1.33301 -11.333 -4.83301 -21.666 -10.5 -30.999s-13.167 -17.666 -22.5 -24.999c-9.33301 -6.66699 -19.5 -12 -30.5 -16s-23.167 -6 -36.5 -6c-15.333 0 -30.166 3 -44.499 9s-26.166 14.667 -35.499 26
c-10 -11.333 -22.167 -20 -36.5 -26s-29.166 -9 -44.499 -9c-13.333 0 -25.5 2 -36.5 6s-21.167 9.33301 -30.5 16c-18.667 14.667 -29.667 33.334 -33 56.001c0 7.33301 3.33301 11 10 11c1.33301 0 2.33301 -0.333008 3 -1c8.66699 -2.66699 19 -4 31 -4
c18.667 0 30.334 3.16699 35.001 9.5s7 13.166 7 20.499c0 6 -2.5 12.5 -7.5 19.5s-12 13.833 -21 20.5s-20 12.167 -33 16.5s-27.5 6.5 -43.5 6.5c-14 0 -26 -4 -36 -12s-15 -18.667 -15 -32c0 -6 2 -12 6 -18c2 -2 3 -4 3 -6c0 -6 -3.33301 -9 -10 -9
c-4 0 -7 1.33301 -9 4c-6.66699 10 -10 19.667 -10 29c0 22 8.33301 38.167 25 48.5s35.667 15.5 57 15.5c8.66699 0 17.667 -0.666992 27 -2s17.666 -3.33301 24.999 -6c2 14 10 24.167 24 30.5s27.333 9.5 40 9.5c3.33301 0 6.33301 -0.166992 9 -0.5
s5.66699 -0.833008 9 -1.5c-0.666992 3.33301 -1 6.33301 -1 9v9c0 8 0.333008 15.833 1 23.5s1.66699 14.167 3 19.5c4 11.333 8 17 12 17c4.66699 0 8.66699 -5.66699 12 -17c1.33301 -5.33301 2.66602 -13.666 3.99902 -24.999l-18 -22h19
c0 -10.667 -1 -19.334 -3 -26.001c12 -8 18 -18.333 18 -31c0 -11.333 -3 -19.833 -9 -25.5s-12.667 -10.167 -20 -13.5s-14.166 -7 -20.499 -11s-9.5 -8.66699 -9.5 -14c0 -6 2.33301 -11.167 7 -15.5s10.334 -7.66602 17.001 -9.99902s13.834 -4.16602 21.501 -5.49902
s14.834 -2 21.501 -2s13.834 0.666992 21.501 2s14.834 3.16602 21.501 5.49902s12.167 5.66602 16.5 9.99902s6.5 9.5 6.5 15.5c0 4.66699 -2.83301 9.16699 -8.5 13.5s-12.5 8.16602 -20.5 11.499c-7.33301 3.33301 -14 7.66602 -20 12.999s-9 14 -9 26
c0 12.667 5.66699 23 17 31c-1.33301 4 -2 8.5 -2 13.5v16.5c0 8 0.333008 15.833 1 23.5s1.66699 14.167 3 19.5c3.33301 11.333 7.33301 17 12 17s8.66699 -5.66699 12 -17c1.33301 -3.33301 2.16602 -7.16602 2.49902 -11.499s0.833008 -8.83301 1.5 -13.5l-18 -22h19z
M479.997 414.997c-14.667 0 -27.334 -3.66602 -38.001 -10.999c-9.33301 -6 -14 -13 -14 -21c0 -8.66699 4.66699 -16 14 -22c9.33301 -6.66699 22 -10 38 -10c16.667 0 29.334 3.33301 38.001 10c9.33301 5.33301 14 12.666 14 21.999c0 8.66699 -4.66699 15.667 -14 21
c-9.33301 7.33301 -22 11 -38 11zM334.997 414.998c-14.667 0 -27.334 -3.66602 -38.001 -10.999c-9.33301 -6 -14 -13 -14 -21c0 -8.66699 4.66699 -16 14 -22c9.33301 -6.66699 22 -10 38 -10c16.667 0 29.334 3.33301 38.001 10c9.33301 5.33301 14 12.666 14 21.999
c0 8.66699 -4.66699 15.667 -14 21c-9.33301 7.33301 -22 11 -38 11zM474.997 286.999c-9.33301 -8 -20.334 -13.5 -33.001 -16.5s-24 -4.5 -34 -4.5c-10.667 0 -22.334 1.5 -35.001 4.5s-23.667 8.5 -33 16.5c-10 -8 -21 -14 -33 -18s-24 -6 -36 -6
c-3.33301 0 -6.83301 0.166992 -10.5 0.5s-7.16699 0.833008 -10.5 1.5c6.66699 -15.333 17.334 -26.833 32.001 -34.5s29.667 -11.5 45 -11.5c14 0 27.667 3.16699 41 9.5s23.666 15.5 30.999 27.5c2 3.33301 5 5 9 5s6.66699 -1.66699 8 -5
c7.33301 -12 17.833 -21.167 31.5 -27.5s27.167 -9.5 40.5 -9.5c15.333 0 30.5 3.83301 45.5 11.5s25.5 19.167 31.5 34.5c-3.33301 -0.666992 -6.66602 -1.16699 -9.99902 -1.5s-6.66602 -0.5 -9.99902 -0.5c-26.667 0 -50 8 -70 24zM331.996 561.999
c-34 -7.33301 -62.5039 -19.1699 -85.5039 -35.5029s-34.5 -40.166 -34.5 -71.499c0 -4.66699 0.333008 -9.33398 1 -14.001s1 -10 1 -16c0 -6.66699 -3.33301 -10 -10 -10c-5.33301 0 -8.33301 3 -9 9c-2 10.667 -3 21 -3 31c0 22.667 4.33301 44.334 13 65.001
s20.667 39 36 55c-12.667 7.33301 -23.667 16.833 -33 28.5s-15.666 25.167 -18.999 40.5c0 6.66699 3.33301 10 10 10c2 0 4 -0.666992 6 -2s3 -3.66602 3 -6.99902c5.33301 -21.333 17.333 -37.666 36 -48.999s38.334 -17 59.001 -17c19.333 0 37.833 5.16699 55.5 15.5
s29.5 25.166 35.5 44.499c1.33301 4 4.66602 6 9.99902 6s8.33301 -2 9 -6c6.66699 -19.333 18.834 -34.166 36.501 -44.499s36.167 -15.5 55.5 -15.5c20.667 0 40.334 5.66699 59.001 17s30.334 27.666 35.001 48.999c0.666992 3.33301 2 5.66602 4 6.99902s4 2 6 2
s4 -0.833008 6 -2.5s3 -5.16699 3 -10.5c-2.66699 -13.333 -8.16699 -25.333 -16.5 -36s-18.166 -19.667 -29.499 -27c16 -16.667 28.5 -35.5 37.5 -56.5s13.5 -43.167 13.5 -66.5c0 -10 -1 -20.333 -3 -31c-1.33301 -6 -4.33301 -9 -9 -9c-6.66699 0 -10 4.33301 -10 13
l2 14c0.666992 4.66699 1 9 1 13c0 32.667 -10 57 -30 73s-45 26.667 -75 32c-18.667 3.33301 -36.667 8.83301 -54 16.5s-31 19.834 -41 36.501c-8 -13.333 -18.333 -24.166 -31 -32.499s-26.334 -14.5 -41.001 -18.5zM706.992 126.995
c-16 -17.333 -35.1689 -30.833 -57.502 -40.5s-45.833 -14.5 -70.5 -14.5c-25.333 -14.667 -53.666 -22 -84.999 -22h-11c-22.667 -11.333 -47.667 -17 -75 -17c-26.667 0 -52 5.66699 -76 17h-11c-31.333 0 -59.666 7.33301 -84.999 22c-24 0 -47.333 4.83301 -70 14.5
s-42 23.167 -58 40.5c-23.333 16.667 -43.666 37 -60.999 61s-26 51 -26 81c0 22.667 5.16699 43.667 15.5 63s23.166 36.666 38.499 51.999c-16.667 31.333 -25 63.666 -25 96.999c0 37.333 9.5 72 28.5 104s44.833 60 77.5 84c32.667 23.333 70.5 41.833 113.5 55.5
s89.167 20.5 138.5 20.5c48.667 0 94.5 -6.83301 137.5 -20.5s80.833 -32.167 113.5 -55.5c32.667 -24 58.5 -52 77.5 -84s28.5 -66.667 28.5 -104c0 -33.333 -8.33301 -65.666 -25 -96.999c16 -15.333 29.167 -32.666 39.5 -51.999s15.5 -40.333 15.5 -63
c0 -30 -8.83301 -57 -26.5 -81s-38.167 -44.333 -61.5 -61zM611.99 94.9951c30.667 6.66699 57.1631 21.3301 79.4961 43.9971s33.5 51 33.5 85c0 28.667 -8.33301 53.667 -25 75c-1.33301 1.33301 -2 3.33301 -2 6c0 6.66699 3 10 9 10c2.66699 0 5.66699 -1.66699 9 -5
c19.333 -24.667 29 -53.334 29 -86.001c0 -14.667 -2 -29 -6 -43c10.667 12.667 19.334 26.167 26.001 40.5s10 30.166 10 47.499c0 21.333 -5.16699 40.833 -15.5 58.5s-23.166 33.5 -38.499 47.5c-0.666992 1.33301 -1.33398 2.5 -2.00098 3.5s-1 2.16699 -1 3.5
c0 0.666992 0.666992 2.33398 2 5.00098c8 14.667 14.333 29.834 19 45.501s7 31.834 7 48.501c0 34 -8.83301 65.667 -26.5 95s-41.834 55 -72.501 77c-30.667 22.667 -66.5 40.5 -107.5 53.5s-84.833 19.5 -131.5 19.5c-47.333 0 -91.5 -6.5 -132.5 -19.5
s-76.833 -30.833 -107.5 -53.5c-30.667 -22 -54.667 -47.667 -72 -77s-26 -61 -26 -95c0 -33.333 8.66699 -64.666 26 -93.999v-4c0 -4 -0.666992 -6.66699 -2 -8c-15.333 -14 -28 -29.833 -38 -47.5s-15 -37.167 -15 -58.5c0 -17.333 3.16699 -33.166 9.5 -47.499
s15.166 -27.833 26.499 -40.5c-2 7.33301 -3.66699 14.5 -5 21.5s-2 14.167 -2 21.5c0 32 10 60.667 30 86c2 3.33301 4.66699 5 8 5c6.66699 0 10 -3.33301 10 -10c0 -2 -1 -4 -3 -6c-16.667 -22.667 -25 -47.667 -25 -75c0 -16.667 3 -32.167 9 -46.5s14.167 -27 24.5 -38
s22.5 -20.333 36.5 -28s28.667 -13.167 44 -16.5c-15.333 13.333 -27.333 29.166 -36 47.499s-13 38.166 -13 59.499c0 34 11 64 33 90c2 3.33301 4.66699 5 8 5c6 0 9 -3.33301 9 -10c0 -0.666992 -0.666992 -3 -2 -7c-9.33301 -11.333 -16.5 -23.5 -21.5 -36.5
s-7.5 -26.833 -7.5 -41.5c0 -17.333 3.33301 -33.5 10 -48.5s15.834 -28.167 27.501 -39.5s25 -20.666 40 -27.999s30.5 -12 46.5 -14c-17.333 13.333 -31.166 29.666 -41.499 48.999s-15.5 40.666 -15.5 63.999c0 7.33301 3.33301 11 10 11s10 -3.66699 10 -11
c0 -19.333 4.16699 -37.166 12.5 -53.499s19.333 -30.333 33 -42s29.334 -20.667 47.001 -27s35.834 -9.5 54.501 -9.5s36.667 3.16699 54 9.5s32.833 15.333 46.5 27s24.667 25.667 33 42s12.5 34.166 12.5 53.499c0 7.33301 3.66699 11 11 11c2 0 4 -1 6 -3
s3 -4.66699 3 -8c0 -23.333 -5.16699 -44.666 -15.5 -63.999s-24.166 -35.666 -41.499 -48.999c16.667 2 32.5 6.66699 47.5 14s28.167 16.666 39.5 27.999s20.333 24.5 27 39.5s10 31.167 10 48.5c0 29.333 -9.33301 55.333 -28 78c-2 2.66699 -3 5 -3 7
c0 6.66699 3.33301 10 10 10c2 0 4.66699 -1.66699 8 -5c22 -26 33 -56 33 -90c0 -21.333 -4.5 -41.166 -13.5 -59.499s-20.833 -34.166 -35.5 -47.499z" />
    <glyph glyph-name="circumflex" unicode="&#x2c6;" horiz-adv-x="291" 
d="M238 523l-92 67l-93 -67l-39 54l132 96l131 -96z" />
    <glyph glyph-name="caron" unicode="&#x2c7;" horiz-adv-x="271" 
d="M183 538h-94l-73 122h78l42 -71l42 71h78z" />
    <glyph glyph-name="breve" unicode="&#x2d8;" horiz-adv-x="255" 
d="M236 646c0 -15.333 -2.83203 -29.5 -8.49902 -42.5s-13.5 -24.5 -23.5 -34.5s-21.667 -17.833 -35 -23.5s-27.333 -8.5 -42 -8.5s-28.5 2.83301 -41.5 8.5s-24.5 13.5 -34.5 23.5s-17.833 21.5 -23.5 34.5s-8.5 27.167 -8.5 42.5h67c0 -11.333 4 -21.166 12 -29.499
s17.667 -12.5 29 -12.5s21.166 4.16699 29.499 12.5s12.5 18.166 12.5 29.499h67v0z" />
    <glyph glyph-name="dotaccent" unicode="&#x2d9;" horiz-adv-x="114" 
d="M93 570c0 -10 -3.5 -18.5 -10.5 -25.5s-15.5 -10.5 -25.5 -10.5s-18.5 3.5 -25.5 10.5s-10.5 15.5 -10.5 25.5s3.5 18.5 10.5 25.5s15.5 10.5 25.5 10.5s18.5 -3.5 25.5 -10.5s10.5 -15.5 10.5 -25.5z" />
    <glyph glyph-name="ring" unicode="&#x2da;" horiz-adv-x="232" 
d="M212 633c0 -26.667 -9.33301 -49.334 -28 -68.001s-41.334 -28 -68.001 -28c-13.333 0 -25.666 2.5 -36.999 7.5s-21.5 11.833 -30.5 20.5s-16 18.834 -21 30.501s-7.5 24.167 -7.5 37.5s2.5 25.833 7.5 37.5s12 21.834 21 30.501s19.167 15.5 30.5 20.5
s23.666 7.5 36.999 7.5c26.667 0 49.334 -9.33301 68.001 -28s28 -41.334 28 -68.001zM171 633c0 14.667 -5.33301 27.334 -16 38.001s-23.667 16 -39 16c-14.667 0 -27.334 -5.33301 -38.001 -16s-16 -23.334 -16 -38.001s5.33301 -27.334 16 -38.001
s23.334 -16 38.001 -16c15.333 0 28.333 5.33301 39 16s16 23.334 16 38.001z" />
    <glyph glyph-name="ogonek" unicode="&#x2db;" horiz-adv-x="181" 
d="M145 -50c-4.66699 2.66699 -10.333 3.99902 -17 3.99902c-12 0 -22 -4.16699 -30 -12.5s-12 -18.166 -12 -29.499c0 -18 7.66699 -30.667 23 -38l-28 -60c-41.333 20 -62 52.667 -62 98c0 17.333 3 32.833 9 46.5s14.167 25.167 24.5 34.5s22 16.333 35 21s26.5 7 40.5 7
c14.667 0 30 -3.66699 46 -11z" />
    <glyph glyph-name="tilde" unicode="&#x2dc;" horiz-adv-x="323" 
d="M303 603c-19.333 -42 -52.665 -63 -99.998 -63c-16.667 0 -31.667 3.33301 -45 10l-21 10c-4.66699 2.66699 -10.334 4 -17.001 4c-18.667 0 -32 -8.33301 -40 -25l-60 28c19.333 41.333 52.333 62 99 62c15.333 0 30.666 -3 45.999 -9l21 -9
c5.33301 -2.66699 11.333 -4 18 -4c18 0 30.667 8 38 24l61 -28v0z" />
    <glyph glyph-name="hungarumlaut" unicode="&#x2dd;" horiz-adv-x="244" 
d="M187 537h-67l36 114h67zM89 537h-67l36 114h67z" />
    <glyph glyph-name="endash" unicode="&#x2013;" horiz-adv-x="532" 
d="M495 320h-467l9 100h467z" />
    <glyph glyph-name="emdash" unicode="&#x2014;" horiz-adv-x="1024" 
d="M986 320h-957l9 100h957z" />
    <glyph glyph-name="quoteleft" unicode="&#x2018;" horiz-adv-x="167" 
d="M12 569c0 24.667 3.50195 46.5 10.502 65.5s16.5 35.667 28.5 50s25.833 26.833 41.5 37.5s32.167 19.667 49.5 27v-40c-19.333 -13.333 -35 -27.666 -47 -42.999s-19.667 -32.333 -23 -51c2.66699 0.666992 6 1 10 1c17.333 0 31.666 -6.33301 42.999 -19
s17 -27.334 17 -44.001c0 -17.333 -6.33301 -31.833 -19 -43.5s-26.667 -17.5 -42 -17.5c-22.667 0 -39.834 7 -51.501 21s-17.5 32.667 -17.5 56z" />
    <glyph glyph-name="quoteright" unicode="&#x2019;" horiz-adv-x="167" 
d="M155 672c0 -24.667 -3.66797 -46.5 -11.001 -65.5s-17 -35.667 -29 -50s-25.833 -26.833 -41.5 -37.5s-31.834 -19.667 -48.501 -27v40c19.333 13.333 35 27.666 47 42.999s19.667 32.333 23 51c-2.66699 -0.666992 -6 -1 -10 -1c-17.333 0 -31.666 6.33301 -42.999 19
s-17 27.334 -17 44.001c0 17.333 6.33301 31.833 19 43.5s26.667 17.5 42 17.5c22.667 0 39.834 -7 51.501 -21s17.5 -32.667 17.5 -56z" />
    <glyph glyph-name="quotesinglbase" unicode="&#x201a;" horiz-adv-x="166" 
d="M154 47c0 -24.667 -3.66797 -46.5 -11.001 -65.5s-17 -35.667 -29 -50s-25.833 -26.833 -41.5 -37.5s-31.834 -19.667 -48.501 -27v40c19.333 13.333 35 27.666 47 42.999s19.667 32.333 23 51c-2.66699 -0.666992 -6 -1 -10 -1c-17.333 0 -31.666 6.33301 -42.999 19
s-17 27.334 -17 44.001c0 17.333 6.33301 31.833 19 43.5s26.667 17.5 42 17.5c22.667 0 39.834 -7 51.501 -21s17.5 -32.667 17.5 -56z" />
    <glyph glyph-name="quotedblleft" unicode="&#x201c;" horiz-adv-x="322" 
d="M165 569c0 24.667 3.50195 46.5 10.502 65.5s16.5 35.667 28.5 50s25.833 26.833 41.5 37.5s32.167 19.667 49.5 27v-40c-19.333 -13.333 -35 -27.666 -47 -42.999s-19.667 -32.333 -23 -51c2.66699 0.666992 6 1 10 1c17.333 0 31.666 -6.33301 42.999 -19
s17 -27.334 17 -44.001c0 -17.333 -6.33301 -31.833 -19 -43.5s-26.667 -17.5 -42 -17.5c-22.667 0 -39.834 7 -51.501 21s-17.5 32.667 -17.5 56zM20.002 569c0 24.667 3.50195 46.5 10.502 65.5s16.5 35.667 28.5 50s25.833 26.833 41.5 37.5s32.167 19.667 49.5 27v-40
c-19.333 -13.333 -35 -27.666 -47 -42.999s-19.667 -32.333 -23 -51c2.66699 0.666992 6 1 10 1c17.333 0 31.666 -6.33301 42.999 -19s17 -27.334 17 -44.001c0 -17.333 -6.33301 -31.833 -19 -43.5s-26.667 -17.5 -42 -17.5c-22.667 0 -39.834 7 -51.501 21
s-17.5 32.667 -17.5 56z" />
    <glyph glyph-name="quotedblright" unicode="&#x201d;" horiz-adv-x="322" 
d="M157 672c0 -24.667 -3.66797 -46.5 -11.001 -65.5s-17 -35.667 -29 -50s-25.833 -26.833 -41.5 -37.5s-31.834 -19.667 -48.501 -27v40c19.333 13.333 35 27.666 47 42.999s19.667 32.333 23 51c-2.66699 -0.666992 -6 -1 -10 -1c-17.333 0 -31.666 6.33301 -42.999 19
s-17 27.334 -17 44.001c0 17.333 6.33301 31.833 19 43.5s26.667 17.5 42 17.5c22.667 0 39.834 -7 51.501 -21s17.5 -32.667 17.5 -56zM301.999 672c0 -24.667 -3.66797 -46.5 -11.001 -65.5s-17 -35.667 -29 -50s-25.833 -26.833 -41.5 -37.5s-31.834 -19.667 -48.501 -27
v40c19.333 13.333 35 27.666 47 42.999s19.667 32.333 23 51c-2.66699 -0.666992 -6 -1 -10 -1c-17.333 0 -31.666 6.33301 -42.999 19s-17 27.334 -17 44.001c0 17.333 6.33301 31.833 19 43.5s26.667 17.5 42 17.5c22.667 0 39.834 -7 51.501 -21s17.5 -32.667 17.5 -56z
" />
    <glyph glyph-name="quotedblbase" unicode="&#x201e;" horiz-adv-x="322" 
d="M157 47c0 -24.667 -3.66797 -46.5 -11.001 -65.5s-17 -35.667 -29 -50s-25.833 -26.833 -41.5 -37.5s-31.834 -19.667 -48.501 -27v40c19.333 13.333 35 27.666 47 42.999s19.667 32.333 23 51c-2.66699 -0.666992 -6 -1 -10 -1c-17.333 0 -31.666 6.33301 -42.999 19
s-17 27.334 -17 44.001c0 17.333 6.33301 31.833 19 43.5s26.667 17.5 42 17.5c22.667 0 39.834 -7 51.501 -21s17.5 -32.667 17.5 -56zM301.999 47c0 -24.667 -3.66797 -46.5 -11.001 -65.5s-17 -35.667 -29 -50s-25.833 -26.833 -41.5 -37.5s-31.834 -19.667 -48.501 -27
v40c19.333 13.333 35 27.666 47 42.999s19.667 32.333 23 51c-2.66699 -0.666992 -6 -1 -10 -1c-17.333 0 -31.666 6.33301 -42.999 19s-17 27.334 -17 44.001c0 17.333 6.33301 31.833 19 43.5s26.667 17.5 42 17.5c22.667 0 39.834 -7 51.501 -21s17.5 -32.667 17.5 -56z
" />
    <glyph glyph-name="dagger" unicode="&#x2020;" horiz-adv-x="317" 
d="M225 474v-552l-67 -84l-66 84v552h-84v67h84v111l66 85l67 -85v-111h84v-67h-84z" />
    <glyph glyph-name="daggerdbl" unicode="&#x2021;" horiz-adv-x="319" 
d="M226 34v-112l-67 -84l-66 84v112h-84v67h84v373h-84v67h84v111l66 85l67 -85v-111h84v-67h-84v-373h84v-67h-84z" />
    <glyph glyph-name="bullet" unicode="&#x2022;" horiz-adv-x="236" 
d="M118 489c28 0 51.333 -9.33301 70 -28s28 -42 28 -70c0 -13.333 -2.66699 -25.833 -8 -37.5s-12.5 -22 -21.5 -31s-19.333 -16 -31 -21s-24.167 -7.5 -37.5 -7.5s-25.833 2.5 -37.5 7.5s-22 12 -31 21s-16.167 19.333 -21.5 31s-8 24.167 -8 37.5
c0 14 2.66699 26.833 8 38.5s12.5 22 21.5 31s19.333 16 31 21s24.167 7.5 37.5 7.5z" />
    <glyph glyph-name="ellipsis" unicode="&#x2026;" horiz-adv-x="455" 
d="M149 57c0 -16.667 -6 -31 -18 -43s-26.667 -18 -44 -18c-16.667 0 -31 6 -43 18s-18 26.333 -18 43c0 17.333 5.83301 32 17.5 44s26.167 18 43.5 18s32 -6 44 -18s18 -26.667 18 -44zM289 57c0 -16.667 -6 -31 -18 -43s-26.667 -18 -44 -18c-16.667 0 -31 6 -43 18
s-18 26.333 -18 43c0 17.333 5.83301 32 17.5 44s26.167 18 43.5 18s32 -6 44 -18s18 -26.667 18 -44zM429 57c0 -16.667 -6 -31 -18 -43s-26.667 -18 -44 -18c-16.667 0 -31 6 -43 18s-18 26.333 -18 43c0 17.333 5.83301 32 17.5 44s26.167 18 43.5 18s32 -6 44 -18
s18 -26.667 18 -44z" />
    <glyph glyph-name="perthousand" unicode="&#x2030;" horiz-adv-x="1318" 
d="M883 142c-2 -19.333 -8.50098 -37.667 -19.501 -55s-25 -32.5 -42 -45.5s-36.5 -23.333 -58.5 -31s-44.667 -11.5 -68 -11.5h-21c-22 0 -43 3.16699 -63 9.5s-37.5 15.166 -52.5 26.499s-26.833 25 -35.5 41s-13 33.667 -13 53c0 2 0.166992 4 0.5 6s0.5 4.33301 0.5 7
l19 223c2 20.667 8.33301 39.667 19 57s24.667 32.333 42 45s36.833 22.5 58.5 29.5s44.5 10.5 68.5 10.5h21c22.667 0 43.834 -3.16699 63.501 -9.5s37 -15.166 52 -26.499s26.833 -24.833 35.5 -40.5s13 -33.167 13 -52.5v-13zM320.999 -0.000976562h-72l356 737h72z
M394.999 370.999c-1.33301 -19.333 -7.49902 -37.5 -18.499 -54.5s-25.167 -32 -42.5 -45s-37 -23.333 -59 -31s-44.667 -11.5 -68 -11.5h-21c-22.667 0 -44 3.16699 -64 9.5s-37.333 15.166 -52 26.499s-26.334 24.833 -35.001 40.5s-13 33.167 -13 52.5
c0 5.33301 0.333008 9.66602 1 12.999l19 223c2 20.667 8.33301 39.834 19 57.501s24.5 32.834 41.5 45.501s36.5 22.5 58.5 29.5s45 10.5 69 10.5h21c22.667 0 44 -3.16699 64 -9.5s37.333 -15.333 52 -27s26.167 -25.5 34.5 -41.5s12.5 -33.333 12.5 -52v-13zM769 375.999
c0 20 -4.33301 35.666 -13 46.999s-19.667 17 -33 17c-14 0 -26.833 -6.66699 -38.5 -20s-18.5 -31.666 -20.5 -54.999l-20 -223c0 -2 -0.166992 -3.83301 -0.5 -5.5s-0.5 -3.5 -0.5 -5.5c0 -20 4.5 -35.833 13.5 -47.5s20.167 -17.5 33.5 -17.5
c14 0 26.833 6.33301 38.5 19s18.5 31.667 20.5 57l20 223v11zM281 604.998c0 20 -4.33301 35.666 -13 46.999s-19.667 17 -33 17c-14 0 -26.833 -6.66699 -38.5 -20s-18.5 -31.666 -20.5 -54.999l-20 -223c0 -2 -0.166992 -3.83301 -0.5 -5.5s-0.5 -3.5 -0.5 -5.5
c0 -20 4.5 -35.833 13.5 -47.5s20.167 -17.5 33.5 -17.5c14 0 26.667 6.33301 38 19s18.333 31.667 21 57l20 223v11zM1283 141.997c-2 -19.333 -8.50098 -37.667 -19.501 -55s-25 -32.5 -42 -45.5s-36.5 -23.333 -58.5 -31s-44.667 -11.5 -68 -11.5h-21
c-22 0 -43 3.16699 -63 9.5s-37.5 15.166 -52.5 26.499s-26.833 25 -35.5 41s-13 33.667 -13 53c0 2 0.166992 4 0.5 6s0.5 4.33301 0.5 7l19 223c2 20.667 8.33301 39.667 19 57s24.667 32.333 42 45s36.833 22.5 58.5 29.5s44.5 10.5 68.5 10.5h21
c22.667 0 43.834 -3.16699 63.501 -9.5s37 -15.166 52 -26.499s26.833 -24.833 35.5 -40.5s13 -33.167 13 -52.5v-13zM1169 375.996c0 20 -4.33301 35.666 -13 46.999s-19.667 17 -33 17c-14 0 -26.833 -6.66699 -38.5 -20s-18.5 -31.666 -20.5 -54.999l-20 -223
c0 -2 -0.166992 -3.83301 -0.5 -5.5s-0.5 -3.5 -0.5 -5.5c0 -20 4.5 -35.833 13.5 -47.5s20.167 -17.5 33.5 -17.5c14 0 26.833 6.33301 38.5 19s18.5 31.667 20.5 57l20 223v11z" />
    <glyph glyph-name="guilsinglleft" unicode="&#x2039;" horiz-adv-x="194" 
d="M91 249l-82 119l82 120h81l-82 -120l82 -119h-81z" />
    <glyph glyph-name="guilsinglright" unicode="&#x203a;" horiz-adv-x="194" 
d="M103 487l82 -119l-82 -120h-81l82 120l-82 119h81z" />
    <glyph glyph-name="Euro" unicode="&#x20ac;" horiz-adv-x="480" 
d="M403 594l-0.000976562 6.99805c0 21.333 -7 38 -21 50s-30.667 18 -50 18c-22.667 0 -42 -6.66699 -58 -20s-25 -31.666 -27 -54.999l-12 -146h172l-43 -67h-135l-2 -26h121l-43 -66h-84l-15 -164v-8c0 -14.667 3.5 -26.667 10.5 -36s15.833 -14 26.5 -14h88l-6 -67h-88
c-22 0 -43 3.16699 -63 9.5s-37.5 15.166 -52.5 26.499s-26.833 24.833 -35.5 40.5s-13 33.167 -13 52.5v6.5c0 2.33301 0.333008 4.5 1 6.5l13 147h-73l42 66h37l2 26h-73l43 67h36l11 130c2 24 8.33301 45.833 19 65.5s24.5 36.334 41.5 50.001s36.5 24.334 58.5 32.001
s45.667 11.5 71 11.5h37c18 0 35 -3.33301 51 -10s29.833 -16 41.5 -28s20.834 -26 27.501 -42s10 -33 10 -51v-12h-66z" />
    <glyph glyph-name="trademark" unicode="&#x2122;" horiz-adv-x="461" 
d="M434 468h-40c-24.667 0 -37 11.333 -37 34c0 8 0.833008 20.5 2.5 37.5l5 53.5l5 53.5c1.66699 17 2.5 29.5 2.5 37.5c0 18 -6.33301 27 -19 27c-14 0 -22 -10.667 -24 -32l-18 -211h-49l18 216v4c0 9.33301 -2 15.5 -6 18.5s-15.333 4.5 -34 4.5l-21 -243h-49l21 244
h-28l2 25h99c18.667 0 33.334 -4.33301 44.001 -13c12.667 8.66699 28.334 13 47.001 13c18 0 33.5 -4.5 46.5 -13.5s19.5 -22.167 19.5 -39.5c0 -7.33301 -0.833008 -19.5 -2.5 -36.5s-3.33398 -35 -5.00098 -54s-3.33398 -37 -5.00098 -54s-2.5 -29.167 -2.5 -36.5
c0 -5.33301 3.66699 -9 11 -11h19zM144 712h-35l-21 -244h-49l21 244h-34l2 25h118z" />
    <glyph glyph-name="minus" unicode="&#x2212;" horiz-adv-x="617" 
d="M29 310v85h559v-85h-559z" />
    <glyph glyph-name="slashmath" unicode="&#x2215;" horiz-adv-x="533" 
d="M94 0h-92l438 737h91z" />
    <glyph glyph-name="fi" unicode="&#xfb01;" horiz-adv-x="612" 
d="M600 669c0 -19.333 -6.66699 -35.668 -20 -49.001s-29.333 -20 -48 -20s-34.667 6.83301 -48 20.5s-20 29.834 -20 48.501s6.66699 34.667 20 48s29.333 20 48 20s34.667 -6.66699 48 -20s20 -29.333 20 -48zM573 -0.00195312h-18.001c-46 0 -82.333 10 -109 30
s-40 47.667 -40 83c0 5.33301 0.333008 9.33301 1 12l28 316h-123l-45 -517c-2 -20 -8 -38.667 -18 -56s-23 -32.5 -39 -45.5s-34.5 -23.167 -55.5 -30.5s-43.5 -11 -67.5 -11h-76l6 67h68c27.333 0 43 19.667 47 59l47 534h-64l6 67h64l7 86
c2 21.333 7.66699 40.833 17 58.5s21.5 32.667 36.5 45s32.5 22 52.5 29s41.667 10.5 65 10.5h68l-6 -67h-34c-39.333 0 -60.666 -19.667 -63.999 -59l-9 -103h256l-33 -383c0 -1.33301 -0.166992 -2.83301 -0.5 -4.5s-0.5 -3.16699 -0.5 -4.5c0 -28.667 13 -45 39 -49z" />
    <glyph glyph-name="fl" unicode="&#xfb02;" horiz-adv-x="616" 
d="M549 125c0 -1.33301 -0.167969 -3 -0.500977 -5s-0.5 -3.66699 -0.5 -5c0 -25.333 11.333 -41 34 -47l-6 -68h-13c-46 0 -82.333 10 -109 30s-40 47.667 -40 83c0 5.33301 0.333008 9.33301 1 12l47 545h-72c-39.333 0 -60.666 -19.667 -63.999 -59l-9 -103h73l-6 -67
h-72l-46 -517c-2 -20 -8 -38.667 -18 -56s-23.167 -32.5 -39.5 -45.5s-35 -23.167 -56 -30.5s-43.167 -11 -66.5 -11h-75l5 67h68c28 0 43.667 19.667 47 59l47 534h-64l6 67h64l7 86c2 21.333 7.66699 40.833 17 58.5s21.5 32.667 36.5 45s32.5 22 52.5 29
s41.667 10.5 65 10.5h240z" />
    </font>
</defs>
</svg>
